SplineFontDB: 3.0
FontName: Coda-Black
FullName: Coda Black
FamilyName: Coda Black
Weight: Black
Copyright: Copyright (c) 2010 by Newtypography. All rights reserved.
Version: 1.00 2010
ItalicAngle: 0
UnderlinePosition: -103
UnderlineWidth: 102
Ascent: 1530
Descent: 518
LayerCount: 2
Layer: 0 1 "Back"  1
Layer: 1 1 "Fore"  0
XUID: [1021 823 301787212 9522642]
FSType: 4
OS2Version: 3
OS2_WeightWidthSlopeOnly: 0
OS2_UseTypoMetrics: 1
CreationTime: 1295565700
ModificationTime: 1295567403
PfmFamily: 17
TTFWeight: 900
TTFWidth: 5
LineGap: 410
VLineGap: 0
Panose: 2 0 10 3 0 0 0 0 0 0
OS2TypoAscent: 0
OS2TypoAOffset: 1
OS2TypoDescent: 0
OS2TypoDOffset: 1
OS2TypoLinegap: 410
OS2WinAscent: -768
OS2WinAOffset: 1
OS2WinDescent: -447
OS2WinDOffset: 1
HheadAscent: -1125
HheadAOffset: 1
HheadDescent: 500
HheadDOffset: 1
OS2SubXSize: 1331
OS2SubYSize: 1433
OS2SubXOff: 0
OS2SubYOff: 286
OS2SupXSize: 1331
OS2SupYSize: 1433
OS2SupXOff: 0
OS2SupYOff: 983
OS2StrikeYSize: 102
OS2StrikeYPos: 530
OS2Vendor: 'NEW '
OS2CodePages: 20000193.4d000000
OS2UnicodeRanges: a00000bf.5000204b.00000000.00000000
Lookup: 4 0 1 "'liga' Standard Ligatures in Latin lookup 0"  {"'liga' Standard Ligatures in Latin lookup 0 subtable"  } ['liga' ('latn' <'dflt' > ) ]

StartChar: exclam
Encoding: 33 33 4
Width: 683
GlyphClass: 2
Flags: W
HStem: 0 397<82 597> 1584 20G<85 600>
VStem: 82 515<0 397> 147 395<492 749.123>
LayerCount: 2
Fore
SplineSet
542 492 m 1,0,-1
 147 492 l 1,1,-1
 85 1604 l 1,2,-1
 600 1604 l 1,3,-1
 542 492 l 1,0,-1
82 0 m 1,4,-1
 82 397 l 1,5,-1
 597 397 l 1,6,-1
 597 0 l 1,7,-1
 82 0 l 1,4,-1
EndSplineSet
Validated: 1
EndChar

StartChar: quotedbl
Encoding: 34 34 5
Width: 1075
GlyphClass: 2
Flags: W
HStem: 798 806<129 417 657 945>
VStem: 129 288<798 933.939> 657 288<798 933.939>
LayerCount: 2
Fore
SplineSet
417 798 m 1,0,-1
 129 798 l 1,1,-1
 44 1604 l 1,2,-1
 502 1604 l 1,3,-1
 417 798 l 1,0,-1
945 798 m 1,4,-1
 657 798 l 1,5,-1
 572 1604 l 1,6,-1
 1030 1604 l 1,7,-1
 945 798 l 1,4,-1
EndSplineSet
Validated: 1
EndChar

StartChar: numbersign
Encoding: 35 35 6
Width: 1252
GlyphClass: 2
Flags: W
HStem: 0 21G<173 435.513 636 898.5> 199 288<73 199 495 662 958 1101> 880 287<153 287 584 750 1047 1181>
LayerCount: 2
Fore
SplineSet
1101 200 m 1,0,-1
 921 200 l 1,1,-1
 896 0 l 1,2,-1
 636 0 l 1,3,-1
 662 199 l 1,4,-1
 458 199 l 1,5,-1
 433 0 l 1,6,-1
 173 0 l 1,7,-1
 199 199 l 1,8,-1
 38 199 l 1,9,-1
 73 487 l 1,10,-1
 236 487 l 1,11,-1
 287 880 l 1,12,-1
 118 880 l 1,13,-1
 153 1167 l 1,14,-1
 325 1167 l 1,15,-1
 350 1358 l 1,16,-1
 609 1358 l 1,17,-1
 584 1167 l 1,18,-1
 788 1167 l 1,19,-1
 813 1358 l 1,20,-1
 1072 1358 l 1,21,-1
 1047 1167 l 1,22,-1
 1216 1167 l 1,23,-1
 1181 880 l 1,24,-1
 1010 880 l 1,25,-1
 958 487 l 1,26,-1
 1136 487 l 1,27,-1
 1101 200 l 1,0,-1
495 487 m 1,28,-1
 698 487 l 1,29,-1
 750 880 l 1,30,-1
 547 880 l 1,31,-1
 495 487 l 1,28,-1
EndSplineSet
Validated: 1
EndChar

StartChar: dollar
Encoding: 36 36 7
Width: 1324
GlyphClass: 2
Flags: W
HStem: 1358 257<622 735>
VStem: 53 477<237.219 533 1085.18 1356.3> 445 177<-248 -36 1615 1843> 735 187<-248 -36 1615 1843> 806 477<237.679 537.844>
LayerCount: 2
Fore
SplineSet
530 1136 m 2,0,1
 530 1110 530 1110 562.5 1091.5 c 128,-1,2
 595 1073 595 1073 648 1056 c 128,-1,3
 701 1039 701 1039 768.5 1021 c 128,-1,4
 836 1003 836 1003 906.5 978 c 128,-1,5
 977 953 977 953 1044.5 918 c 128,-1,6
 1112 883 1112 883 1165 832 c 128,-1,7
 1218 781 1218 781 1250.5 711 c 128,-1,8
 1283 641 1283 641 1283 547 c 0,9,10
 1283 481 1283 481 1280.5 419 c 128,-1,11
 1278 357 1278 357 1266.5 300.5 c 128,-1,12
 1255 244 1255 244 1232.5 195 c 128,-1,13
 1210 146 1210 146 1170 105.5 c 128,-1,14
 1130 65 1130 65 1069.5 34 c 128,-1,15
 1009 3 1009 3 922 -16 c 1,16,-1
 922 -248 l 1,17,-1
 735 -248 l 1,18,-1
 735 -36 l 1,19,-1
 622 -36 l 1,20,-1
 622 -248 l 1,21,-1
 445 -248 l 1,22,-1
 445 -17 l 1,23,24
 357 -1 357 -1 293.5 24.5 c 128,-1,25
 230 50 230 50 186 82.5 c 128,-1,26
 142 115 142 115 116 151.5 c 128,-1,27
 90 188 90 188 76 225.5 c 128,-1,28
 62 263 62 263 57.5 300.5 c 128,-1,29
 53 338 53 338 53 371 c 2,30,-1
 53 533 l 1,31,-1
 530 533 l 1,32,-1
 530 237 l 1,33,-1
 806 237 l 1,34,-1
 806 493 l 2,35,36
 806 515 806 515 773.5 532 c 128,-1,37
 741 549 741 549 688 566 c 128,-1,38
 635 583 635 583 567.5 602.5 c 128,-1,39
 500 622 500 622 429.5 649.5 c 128,-1,40
 359 677 359 677 291.5 715 c 128,-1,41
 224 753 224 753 171 806.5 c 128,-1,42
 118 860 118 860 85.5 932 c 128,-1,43
 53 1004 53 1004 53 1100 c 0,44,45
 53 1231 53 1231 70 1321 c 128,-1,46
 87 1411 87 1411 131 1470.5 c 128,-1,47
 175 1530 175 1530 251 1563.5 c 128,-1,48
 327 1597 327 1597 445 1615 c 1,49,-1
 445 1843 l 1,50,-1
 622 1843 l 1,51,-1
 622 1615 l 1,52,-1
 735 1615 l 1,53,-1
 735 1843 l 1,54,-1
 922 1843 l 1,55,-1
 922 1612 l 1,56,57
 999 1597 999 1597 1052.5 1573.5 c 128,-1,58
 1106 1550 1106 1550 1141 1520 c 128,-1,59
 1176 1490 1176 1490 1196 1456.5 c 128,-1,60
 1216 1423 1216 1423 1226 1387 c 128,-1,61
 1236 1351 1236 1351 1238 1315.5 c 128,-1,62
 1240 1280 1240 1280 1240 1247 c 2,63,-1
 1240 1128 l 1,64,-1
 806 1128 l 1,65,-1
 806 1358 l 1,66,-1
 530 1358 l 1,67,-1
 530 1136 l 2,0,1
EndSplineSet
Validated: 1
EndChar

StartChar: percent
Encoding: 37 37 8
Width: 2532
GlyphClass: 2
Flags: W
HStem: -40 21G<887 1310.96> 75 215<1910.27 2147.67> 454 215<385.209 625.672> 955 219<1910.27 2147.67> 1334 219<385.209 625.672>
VStem: 52 333<669.918 1333.91> 627 329<669.918 1333.91> 1576 333<290.842 954.788> 2150 329<290.842 954.788>
LayerCount: 2
Fore
SplineSet
627 1334 m 1,0,-1
 385 1334 l 1,1,-1
 385 669 l 1,2,-1
 627 669 l 1,3,-1
 627 1334 l 1,0,-1
504 454 m 256,4,5
 391 454 391 454 313.5 468 c 128,-1,6
 236 482 236 482 186 506 c 128,-1,7
 136 530 136 530 108.5 561.5 c 128,-1,8
 81 593 81 593 68.5 627.5 c 128,-1,9
 56 662 56 662 54 697.5 c 128,-1,10
 52 733 52 733 52 765 c 2,11,-1
 52 1244 l 2,12,13
 52 1276 52 1276 54 1311 c 128,-1,14
 56 1346 56 1346 68.5 1380.5 c 128,-1,15
 81 1415 81 1415 108.5 1446 c 128,-1,16
 136 1477 136 1477 186 1501 c 128,-1,17
 236 1525 236 1525 313.5 1539 c 128,-1,18
 391 1553 391 1553 504 1553 c 256,19,20
 617 1553 617 1553 694.5 1539 c 128,-1,21
 772 1525 772 1525 822 1501 c 128,-1,22
 872 1477 872 1477 899.5 1446 c 128,-1,23
 927 1415 927 1415 939.5 1380.5 c 128,-1,24
 952 1346 952 1346 954 1311 c 128,-1,25
 956 1276 956 1276 956 1244 c 2,26,-1
 956 765 l 2,27,28
 956 733 956 733 954 697.5 c 128,-1,29
 952 662 952 662 939.5 627.5 c 128,-1,30
 927 593 927 593 899.5 561.5 c 128,-1,31
 872 530 872 530 822 506 c 128,-1,32
 772 482 772 482 694.5 468 c 128,-1,33
 617 454 617 454 504 454 c 256,4,5
2150 955 m 1,34,-1
 1909 955 l 1,35,-1
 1909 290 l 1,36,-1
 2150 290 l 1,37,-1
 2150 955 l 1,34,-1
2026 75 m 256,38,39
 1913 75 1913 75 1836 89 c 128,-1,40
 1759 103 1759 103 1709 127 c 128,-1,41
 1659 151 1659 151 1632 182 c 128,-1,42
 1605 213 1605 213 1592.5 248 c 128,-1,43
 1580 283 1580 283 1578 318.5 c 128,-1,44
 1576 354 1576 354 1576 386 c 2,45,-1
 1576 863 l 2,46,47
 1576 895 1576 895 1578 930.5 c 128,-1,48
 1580 966 1580 966 1592.5 1000.5 c 128,-1,49
 1605 1035 1605 1035 1632 1066.5 c 128,-1,50
 1659 1098 1659 1098 1709 1122 c 128,-1,51
 1759 1146 1759 1146 1836 1160 c 128,-1,52
 1913 1174 1913 1174 2026 1174 c 256,53,54
 2139 1174 2139 1174 2216.5 1160 c 128,-1,55
 2294 1146 2294 1146 2344.5 1122 c 128,-1,56
 2395 1098 2395 1098 2422.5 1066.5 c 128,-1,57
 2450 1035 2450 1035 2462.5 1000.5 c 128,-1,58
 2475 966 2475 966 2477 930.5 c 128,-1,59
 2479 895 2479 895 2479 863 c 2,60,-1
 2479 386 l 2,61,62
 2479 354 2479 354 2477 318.5 c 128,-1,63
 2475 283 2475 283 2462.5 248 c 128,-1,64
 2450 213 2450 213 2422.5 182 c 128,-1,65
 2395 151 2395 151 2344.5 127 c 128,-1,66
 2294 103 2294 103 2216.5 89 c 128,-1,67
 2139 75 2139 75 2026 75 c 256,38,39
1646 1670 m 1,68,-1
 1307 -40 l 1,69,-1
 887 -40 l 1,70,-1
 1231 1670 l 1,71,-1
 1646 1670 l 1,68,-1
EndSplineSet
Validated: 1
EndChar

StartChar: ampersand
Encoding: 38 38 9
Width: 1453
GlyphClass: 2
Flags: W
HStem: -38 275<550.955 825.227> 728 224<550 826 1303 1430> 1154 444.5<825.068 1183.87> 1358 277<553.82 821.423>
VStem: 73 477<237.145 726.664 952.793 1355.32> 826 477<238.302 728 952 1080 1154 1356.22>
LayerCount: 2
Fore
SplineSet
823 1154 m 1,0,-1
 823 1358 l 1,1,-1
 550 1358 l 1,2,-1
 550 952 l 1,3,-1
 826 952 l 1,4,-1
 826 1080 l 1,5,-1
 1303 1080 l 1,6,-1
 1303 952 l 1,7,-1
 1430 952 l 1,8,-1
 1430 728 l 1,9,-1
 1303 728 l 1,10,-1
 1303 635 l 2,11,12
 1303 503 1303 503 1295.5 402 c 128,-1,13
 1288 301 1288 301 1265 226.5 c 128,-1,14
 1242 152 1242 152 1200 101 c 128,-1,15
 1158 50 1158 50 1089 19.5 c 128,-1,16
 1020 -11 1020 -11 920 -24.5 c 128,-1,17
 820 -38 820 -38 682 -38 c 0,18,19
 545 -38 545 -38 446.5 -25 c 128,-1,20
 348 -12 348 -12 280.5 16 c 128,-1,21
 213 44 213 44 172 89 c 128,-1,22
 131 134 131 134 109 199 c 128,-1,23
 87 264 87 264 80 349 c 128,-1,24
 73 434 73 434 73 543 c 0,25,26
 73 631 73 631 91 688.5 c 128,-1,27
 109 746 109 746 131.5 779 c 128,-1,28
 154 812 154 812 173 825.5 c 128,-1,29
 192 839 192 839 194 840 c 1,30,31
 192 841 192 841 173 855 c 128,-1,32
 154 869 154 869 131.5 903 c 128,-1,33
 109 937 109 937 91 993.5 c 128,-1,34
 73 1050 73 1050 73 1137 c 0,35,36
 73 1290 73 1290 99.5 1387 c 128,-1,37
 126 1484 126 1484 194 1539 c 128,-1,38
 262 1594 262 1594 380.5 1614.5 c 128,-1,39
 499 1635 499 1635 682 1635 c 0,40,41
 820 1635 820 1635 919.5 1627 c 128,-1,42
 1019 1619 1019 1619 1087.5 1598.5 c 128,-1,43
 1156 1578 1156 1578 1197.5 1543 c 128,-1,44
 1239 1508 1239 1508 1261.5 1454.5 c 128,-1,45
 1284 1401 1284 1401 1291.5 1327 c 128,-1,46
 1299 1253 1299 1253 1299 1154 c 1,47,-1
 823 1154 l 1,0,-1
826 237 m 1,48,-1
 826 728 l 1,49,-1
 550 728 l 1,50,-1
 550 237 l 1,51,-1
 826 237 l 1,48,-1
EndSplineSet
Validated: 1
EndChar

StartChar: quotesingle
Encoding: 39 39 10
Width: 546
GlyphClass: 2
Flags: W
HStem: 1584 20G<44 502>
VStem: 129 288<798 933.939>
LayerCount: 2
Fore
SplineSet
417 798 m 1,0,-1
 129 798 l 1,1,-1
 44 1604 l 1,2,-1
 502 1604 l 1,3,-1
 417 798 l 1,0,-1
EndSplineSet
Validated: 1
EndChar

StartChar: parenleft
Encoding: 40 40 11
Width: 833
GlyphClass: 2
Flags: W
HStem: -330 279<682.149 862> 1657 278<682.149 862>
VStem: 65 512<226.385 1379.61>
LayerCount: 2
Fore
SplineSet
65 803 m 256,0,1
 65 1068 65 1068 89.5 1254.5 c 128,-1,2
 114 1441 114 1441 161 1567 c 128,-1,3
 208 1693 208 1693 277 1766 c 128,-1,4
 346 1839 346 1839 434.5 1876.5 c 128,-1,5
 523 1914 523 1914 630.5 1924.5 c 128,-1,6
 738 1935 738 1935 862 1935 c 1,7,-1
 862 1657 l 1,8,9
 810 1657 810 1657 768.5 1652.5 c 128,-1,10
 727 1648 727 1648 695.5 1624 c 128,-1,11
 664 1600 664 1600 641.5 1548 c 128,-1,12
 619 1496 619 1496 604.5 1401 c 128,-1,13
 590 1306 590 1306 583.5 1160.5 c 128,-1,14
 577 1015 577 1015 577 803 c 256,15,16
 577 591 577 591 583.5 445.5 c 128,-1,17
 590 300 590 300 604.5 205 c 128,-1,18
 619 110 619 110 641.5 58 c 128,-1,19
 664 6 664 6 695.5 -18 c 128,-1,20
 727 -42 727 -42 768.5 -46.5 c 128,-1,21
 810 -51 810 -51 862 -51 c 1,22,-1
 862 -330 l 1,23,24
 738 -330 738 -330 630.5 -319.5 c 128,-1,25
 523 -309 523 -309 434.5 -271.5 c 128,-1,26
 346 -234 346 -234 277 -160.5 c 128,-1,27
 208 -87 208 -87 161 38.5 c 128,-1,28
 114 164 114 164 89.5 351 c 128,-1,29
 65 538 65 538 65 803 c 256,0,1
EndSplineSet
Validated: 1
EndChar

StartChar: parenright
Encoding: 41 41 12
Width: 833
GlyphClass: 2
Flags: W
HStem: -330 279<-29 150.851> 1657 278<-29 150.851>
VStem: 256 512<226.385 1379.61>
LayerCount: 2
Fore
SplineSet
768 803 m 256,0,1
 768 538 768 538 743.5 351 c 128,-1,2
 719 164 719 164 672 38.5 c 128,-1,3
 625 -87 625 -87 556 -160.5 c 128,-1,4
 487 -234 487 -234 398.5 -271.5 c 128,-1,5
 310 -309 310 -309 202.5 -319.5 c 128,-1,6
 95 -330 95 -330 -29 -330 c 1,7,-1
 -29 -51 l 1,8,9
 23 -51 23 -51 64.5 -46.5 c 128,-1,10
 106 -42 106 -42 137.5 -18 c 128,-1,11
 169 6 169 6 191.5 58 c 128,-1,12
 214 110 214 110 228.5 205 c 128,-1,13
 243 300 243 300 249.5 445.5 c 128,-1,14
 256 591 256 591 256 803 c 256,15,16
 256 1015 256 1015 249.5 1160.5 c 128,-1,17
 243 1306 243 1306 228.5 1401 c 128,-1,18
 214 1496 214 1496 191.5 1548 c 128,-1,19
 169 1600 169 1600 137.5 1624 c 128,-1,20
 106 1648 106 1648 64.5 1652.5 c 128,-1,21
 23 1657 23 1657 -29 1657 c 1,22,-1
 -29 1935 l 1,23,24
 95 1935 95 1935 202.5 1924.5 c 128,-1,25
 310 1914 310 1914 398.5 1876.5 c 128,-1,26
 487 1839 487 1839 556 1766 c 128,-1,27
 625 1693 625 1693 672 1567 c 128,-1,28
 719 1441 719 1441 743.5 1254.5 c 128,-1,29
 768 1068 768 1068 768 803 c 256,0,1
EndSplineSet
Validated: 1
EndChar

StartChar: asterisk
Encoding: 42 42 13
Width: 1159
GlyphClass: 2
Flags: W
HStem: 1581 20G<440.071 474.134 685.739 719.929>
LayerCount: 2
Fore
SplineSet
497 346 m 1,0,-1
 145 478 l 1,1,-1
 323 791 l 1,2,-1
 46 733 l 1,3,-1
 46 1164 l 1,4,-1
 323 1097 l 1,5,-1
 125 1347 l 1,6,-1
 467 1601 l 1,7,-1
 579 1287 l 1,8,-1
 693 1601 l 1,9,-1
 1035 1347 l 1,10,-1
 835 1097 l 1,11,-1
 1113 1164 l 1,12,-1
 1113 733 l 1,13,-1
 835 791 l 1,14,-1
 1014 478 l 1,15,-1
 663 346 l 1,16,-1
 579 647 l 1,17,-1
 497 346 l 1,0,-1
EndSplineSet
Validated: 1
EndChar

StartChar: plus
Encoding: 43 43 14
Width: 1157
GlyphClass: 2
Flags: W
HStem: 0 21G<355 801> 408 483<44 355 801 1112>
VStem: 355 446<0 408 891 1298>
LayerCount: 2
Fore
SplineSet
355 891 m 1,0,-1
 355 1298 l 1,1,-1
 801 1298 l 1,2,-1
 801 891 l 1,3,-1
 1112 891 l 1,4,-1
 1112 408 l 1,5,-1
 801 408 l 1,6,-1
 801 0 l 1,7,-1
 355 0 l 1,8,-1
 355 408 l 1,9,-1
 44 408 l 1,10,-1
 44 891 l 1,11,-1
 355 891 l 1,0,-1
EndSplineSet
Validated: 1
EndChar

StartChar: comma
Encoding: 44 44 15
Width: 649
GlyphClass: 2
Flags: W
HStem: -367 199<103 210.323>
VStem: 79 492<3.31689 487>
LayerCount: 2
Fore
SplineSet
103 -168 m 1,0,1
 154 -156 154 -156 196 -133 c 0,2,3
 214 -123 214 -123 230.5 -110.5 c 128,-1,4
 247 -98 247 -98 260.5 -81.5 c 128,-1,5
 274 -65 274 -65 282 -44.5 c 128,-1,6
 290 -24 290 -24 290 0 c 1,7,-1
 79 0 l 1,8,-1
 79 487 l 1,9,-1
 571 487 l 1,10,-1
 571 150 l 2,11,12
 571 -2 571 -2 539 -101.5 c 128,-1,13
 507 -201 507 -201 447 -260 c 128,-1,14
 387 -319 387 -319 300 -343 c 128,-1,15
 213 -367 213 -367 103 -367 c 1,16,-1
 103 -168 l 1,0,1
EndSplineSet
Validated: 1
EndChar

StartChar: hyphen
Encoding: 45 45 16
Width: 918
GlyphClass: 2
Flags: W
HStem: 461 436<82 835>
LayerCount: 2
Fore
SplineSet
835 897 m 1,0,-1
 835 461 l 1,1,-1
 82 461 l 1,2,-1
 82 897 l 1,3,-1
 835 897 l 1,0,-1
EndSplineSet
Validated: 1
EndChar

StartChar: period
Encoding: 46 46 17
Width: 616
GlyphClass: 2
Flags: W
HStem: 0 467<79 537>
VStem: 79 458<0 467>
LayerCount: 2
Fore
SplineSet
537 0 m 1,0,-1
 79 0 l 1,1,-1
 79 467 l 1,2,-1
 537 467 l 1,3,-1
 537 0 l 1,0,-1
EndSplineSet
Validated: 1
EndChar

StartChar: slash
Encoding: 47 47 18
Width: 879
GlyphClass: 2
Flags: W
HStem: 0 21G<35 532.987> 1575 20G<349.013 847>
LayerCount: 2
Fore
SplineSet
353 1595 m 1,0,-1
 847 1595 l 1,1,-1
 529 0 l 1,2,-1
 35 0 l 1,3,-1
 353 1595 l 1,0,-1
EndSplineSet
Validated: 1
EndChar

StartChar: zero
Encoding: 48 48 19
Width: 1394
GlyphClass: 2
Flags: W
HStem: -39 276<580.797 813.093> 1358 275<580.797 813.093>
VStem: 82 497<237.083 1356.98> 815 497<237.083 1356.98>
LayerCount: 2
Fore
SplineSet
579 237 m 1,0,-1
 815 237 l 1,1,-1
 815 1358 l 1,2,-1
 579 1358 l 1,3,-1
 579 237 l 1,0,-1
701 -39 m 256,4,5
 554 -39 554 -39 451 -21 c 128,-1,6
 348 -3 348 -3 279 27 c 128,-1,7
 210 57 210 57 170.5 97 c 128,-1,8
 131 137 131 137 111.5 180 c 128,-1,9
 92 223 92 223 87 267.5 c 128,-1,10
 82 312 82 312 82 352 c 2,11,-1
 82 1242 l 2,12,13
 82 1282 82 1282 87 1326.5 c 128,-1,14
 92 1371 92 1371 111.5 1414.5 c 128,-1,15
 131 1458 131 1458 170.5 1497.5 c 128,-1,16
 210 1537 210 1537 279 1567 c 128,-1,17
 348 1597 348 1597 451 1615 c 128,-1,18
 554 1633 554 1633 701 1633 c 256,19,20
 848 1633 848 1633 950.5 1615 c 128,-1,21
 1053 1597 1053 1597 1121 1567 c 128,-1,22
 1189 1537 1189 1537 1227 1497.5 c 128,-1,23
 1265 1458 1265 1458 1284 1414.5 c 128,-1,24
 1303 1371 1303 1371 1307.5 1326.5 c 128,-1,25
 1312 1282 1312 1282 1312 1242 c 2,26,-1
 1312 352 l 2,27,28
 1312 312 1312 312 1307.5 267.5 c 128,-1,29
 1303 223 1303 223 1284 180 c 128,-1,30
 1265 137 1265 137 1227 97 c 128,-1,31
 1189 57 1189 57 1121 27 c 128,-1,32
 1053 -3 1053 -3 950.5 -21 c 128,-1,33
 848 -39 848 -39 701 -39 c 256,4,5
EndSplineSet
Validated: 1
EndChar

StartChar: one
Encoding: 49 49 20
Width: 866
GlyphClass: 2
Flags: W
HStem: 0 21G<270 767> 1200 184<21 201.195> 1575 20G<351.5 767>
VStem: 270 497<0 1200>
LayerCount: 2
Fore
SplineSet
767 1595 m 1,0,-1
 767 0 l 1,1,-1
 270 0 l 1,2,-1
 270 1200 l 1,3,-1
 21 1200 l 1,4,-1
 21 1384 l 1,5,6
 65 1384 65 1384 115.5 1396.5 c 128,-1,7
 166 1409 166 1409 213 1435 c 128,-1,8
 260 1461 260 1461 300 1501 c 128,-1,9
 340 1541 340 1541 363 1595 c 1,10,-1
 767 1595 l 1,0,-1
EndSplineSet
Validated: 1
EndChar

StartChar: two
Encoding: 50 50 21
Width: 1292
GlyphClass: 2
Flags: W
HStem: 0 351<556 1190> 1358 274<558.367 751.531>
VStem: 60 497<994 1329.7> 753 497<986.649 1356.69>
LayerCount: 2
Fore
SplineSet
60 994 m 1,0,1
 60 1162 60 1162 90 1282.5 c 128,-1,2
 120 1403 120 1403 192 1481 c 128,-1,3
 264 1559 264 1559 384.5 1595.5 c 128,-1,4
 505 1632 505 1632 685 1632 c 0,5,6
 822 1632 822 1632 927.5 1603.5 c 128,-1,7
 1033 1575 1033 1575 1104.5 1515 c 128,-1,8
 1176 1455 1176 1455 1213 1362.5 c 128,-1,9
 1250 1270 1250 1270 1250 1143 c 0,10,11
 1250 1042 1250 1042 1220 958.5 c 128,-1,12
 1190 875 1190 875 1141.5 807.5 c 128,-1,13
 1093 740 1093 740 1030.5 686 c 128,-1,14
 968 632 968 632 903 588.5 c 128,-1,15
 838 545 838 545 775.5 511 c 128,-1,16
 713 477 713 477 664.5 449 c 128,-1,17
 616 421 616 421 586 397 c 128,-1,18
 556 373 556 373 556 351 c 1,19,-1
 1190 351 l 1,20,-1
 1190 0 l 1,21,-1
 60 0 l 1,22,-1
 60 237 l 2,23,24
 60 335 60 335 90 410 c 128,-1,25
 120 485 120 485 168.5 544 c 128,-1,26
 217 603 217 603 279.5 650 c 128,-1,27
 342 697 342 697 406.5 739 c 128,-1,28
 471 781 471 781 533.5 821.5 c 128,-1,29
 596 862 596 862 644.5 908.5 c 128,-1,30
 693 955 693 955 723 1010.5 c 128,-1,31
 753 1066 753 1066 753 1138 c 2,32,-1
 753 1358 l 1,33,-1
 557 1358 l 1,34,-1
 557 994 l 1,35,-1
 60 994 l 1,0,1
EndSplineSet
Validated: 1
EndChar

StartChar: three
Encoding: 51 51 22
Width: 1330
GlyphClass: 2
Flags: W
HStem: -38 275<557.674 769.06> 708 224<477 770> 1358 277<557.674 769.06>
VStem: 58 497<248.789 614 1025 1355.14> 770 497<239.727 698.296 944.284 1357.48>
LayerCount: 2
Fore
SplineSet
58 1025 m 1,0,1
 58 1176 58 1176 80 1290.5 c 128,-1,2
 102 1405 102 1405 166 1481.5 c 128,-1,3
 230 1558 230 1558 347 1596.5 c 128,-1,4
 464 1635 464 1635 653 1635 c 0,5,6
 785 1635 785 1635 882 1616.5 c 128,-1,7
 979 1598 979 1598 1047.5 1564 c 128,-1,8
 1116 1530 1116 1530 1158.5 1482.5 c 128,-1,9
 1201 1435 1201 1435 1225.5 1377.5 c 128,-1,10
 1250 1320 1250 1320 1258.5 1254 c 128,-1,11
 1267 1188 1267 1188 1267 1117 c 0,12,13
 1267 1059 1267 1059 1253 1015 c 128,-1,14
 1239 971 1239 971 1218.5 938 c 128,-1,15
 1198 905 1198 905 1173.5 883 c 128,-1,16
 1149 861 1149 861 1128 847.5 c 128,-1,17
 1107 834 1107 834 1092 827.5 c 128,-1,18
 1077 821 1077 821 1076 820 c 1,19,20
 1077 819 1077 819 1092 813 c 128,-1,21
 1107 807 1107 807 1128 793.5 c 128,-1,22
 1149 780 1149 780 1173.5 758.5 c 128,-1,23
 1198 737 1198 737 1218.5 704.5 c 128,-1,24
 1239 672 1239 672 1253 627 c 128,-1,25
 1267 582 1267 582 1267 523 c 0,26,27
 1267 450 1267 450 1258.5 380 c 128,-1,28
 1250 310 1250 310 1225.5 247.5 c 128,-1,29
 1201 185 1201 185 1158.5 132.5 c 128,-1,30
 1116 80 1116 80 1047.5 42 c 128,-1,31
 979 4 979 4 882 -17 c 128,-1,32
 785 -38 785 -38 653 -38 c 0,33,34
 464 -38 464 -38 347 4.5 c 128,-1,35
 230 47 230 47 166 130 c 128,-1,36
 102 213 102 213 80 334.5 c 128,-1,37
 58 456 58 456 58 615 c 1,38,-1
 555 614 l 1,39,-1
 555 237 l 1,40,-1
 770 237 l 1,41,-1
 770 708 l 1,42,-1
 477 708 l 1,43,-1
 477 932 l 1,44,-1
 770 932 l 1,45,-1
 770 1358 l 1,46,-1
 555 1358 l 1,47,-1
 555 1025 l 1,48,-1
 58 1025 l 1,0,1
EndSplineSet
Validated: 1
EndChar

StartChar: four
Encoding: 52 52 23
Width: 1307
GlyphClass: 2
Flags: W
HStem: 0 21G<731 1101> 237 366<476 731 1101 1269> 1575 20G<357.507 1101>
VStem: 731 370<0 237 604 1496>
LayerCount: 2
Fore
SplineSet
1101 604 m 1,0,-1
 1269 604 l 1,1,-1
 1269 237 l 1,2,-1
 1101 237 l 1,3,-1
 1101 0 l 1,4,-1
 731 0 l 1,5,-1
 731 237 l 1,6,-1
 40 237 l 1,7,-1
 40 597 l 1,8,-1
 364 1595 l 1,9,-1
 1101 1595 l 1,10,-1
 1101 604 l 1,0,-1
731 603 m 1,11,-1
 731 1496 l 1,12,-1
 476 603 l 1,13,-1
 731 603 l 1,11,-1
EndSplineSet
Validated: 1
EndChar

StartChar: five
Encoding: 53 53 24
Width: 1328
GlyphClass: 2
Flags: W
HStem: -38 275<555.352 786.06> -0.5 474.5<246.625 549.999> 838 270<646.438 787> 1300 295<550 1165>
VStem: 94 456<655 777.024 998 1300> 787 497<238.031 836.178>
LayerCount: 2
Fore
SplineSet
551 474 m 1,0,-1
 551 237 l 1,1,-1
 787 237 l 1,2,-1
 787 838 l 1,3,-1
 570 838 l 1,4,-1
 550 655 l 1,5,-1
 94 655 l 1,6,-1
 94 1595 l 1,7,-1
 1165 1595 l 1,8,-1
 1165 1300 l 1,9,-1
 550 1300 l 1,10,-1
 549 998 l 1,11,12
 578 1029 578 1029 625 1053 c 0,13,14
 665 1074 665 1074 728 1091 c 128,-1,15
 791 1108 791 1108 884 1108 c 0,16,17
 988 1108 988 1108 1063.5 1072 c 128,-1,18
 1139 1036 1139 1036 1188 966 c 128,-1,19
 1237 896 1237 896 1260.5 792.5 c 128,-1,20
 1284 689 1284 689 1284 553 c 0,21,22
 1284 454 1284 454 1275.5 371.5 c 128,-1,23
 1267 289 1267 289 1242.5 223.5 c 128,-1,24
 1218 158 1218 158 1175.5 109 c 128,-1,25
 1133 60 1133 60 1064.5 27.5 c 128,-1,26
 996 -5 996 -5 899 -21.5 c 128,-1,27
 802 -38 802 -38 670 -38 c 0,28,29
 475 -38 475 -38 354 -0.5 c 128,-1,30
 233 37 233 37 166.5 104.5 c 128,-1,31
 100 172 100 172 77 266 c 128,-1,32
 54 360 54 360 54 474 c 1,33,-1
 551 474 l 1,0,-1
EndSplineSet
Validated: 1
EndChar

StartChar: six
Encoding: 54 54 25
Width: 1350
GlyphClass: 2
Flags: W
HStem: -38 275<573.768 805.23> 801 259<572 803.389> 1358 274<574.253 804.541>
VStem: 75 497<238.022 801 1060 1338.88> 808 497<238.008 798.662>
LayerCount: 2
Fore
SplineSet
572 237 m 1,0,-1
 808 237 l 1,1,-1
 808 801 l 1,2,-1
 572 801 l 1,3,-1
 572 237 l 1,0,-1
689 -38 m 0,4,5
 558 -38 558 -38 461.5 -21 c 128,-1,6
 365 -4 365 -4 296.5 27.5 c 128,-1,7
 228 59 228 59 185 104.5 c 128,-1,8
 142 150 142 150 117.5 207 c 128,-1,9
 93 264 93 264 84 331.5 c 128,-1,10
 75 399 75 399 75 475 c 2,11,-1
 75 1055 l 2,12,13
 75 1122 75 1122 83 1190.5 c 128,-1,14
 91 1259 91 1259 114 1323 c 128,-1,15
 137 1387 137 1387 179 1443.5 c 128,-1,16
 221 1500 221 1500 289.5 1542 c 128,-1,17
 358 1584 358 1584 456 1608 c 128,-1,18
 554 1632 554 1632 689 1632 c 0,19,20
 831 1632 831 1632 927.5 1609 c 128,-1,21
 1024 1586 1024 1586 1086 1548 c 128,-1,22
 1148 1510 1148 1510 1180.5 1460.5 c 128,-1,23
 1213 1411 1213 1411 1227.5 1358.5 c 128,-1,24
 1242 1306 1242 1306 1243.5 1254 c 128,-1,25
 1245 1202 1245 1202 1245 1158 c 1,26,-1
 807 1158 l 1,27,-1
 807 1358 l 1,28,-1
 572 1358 l 1,29,-1
 572 1060 l 1,30,-1
 700 1060 l 2,31,32
 884 1060 884 1060 1001.5 1028 c 128,-1,33
 1119 996 1119 996 1186.5 929.5 c 128,-1,34
 1254 863 1254 863 1279.5 762 c 128,-1,35
 1305 661 1305 661 1305 523 c 0,36,37
 1305 389 1305 389 1283 285 c 128,-1,38
 1261 181 1261 181 1195 109 c 128,-1,39
 1129 37 1129 37 1008 -0.5 c 128,-1,40
 887 -38 887 -38 689 -38 c 0,4,5
EndSplineSet
Validated: 1
EndChar

StartChar: seven
Encoding: 55 55 26
Width: 952
GlyphClass: 2
Flags: W
HStem: 0 21G<128 629.367> 1358 237<25 417>
LayerCount: 2
Fore
SplineSet
920 1595 m 1,0,-1
 920 1351 l 1,1,-1
 625 0 l 1,2,-1
 128 0 l 1,3,-1
 417 1358 l 1,4,-1
 25 1358 l 1,5,-1
 25 1595 l 1,6,-1
 920 1595 l 1,0,-1
EndSplineSet
Validated: 1
EndChar

StartChar: eight
Encoding: 56 56 27
Width: 1339
GlyphClass: 2
Flags: W
HStem: -41 277<558.94 791.06> 721 240<557 793> 1358 272<559.514 790.104>
VStem: 60 497<236.952 720.842> 79 478<961.748 1357.61> 793 497<236.987 697.663> 793 467<991.115 1357.61>
LayerCount: 2
Fore
SplineSet
675 1630 m 256,0,1
 813 1630 813 1630 921.5 1604.5 c 128,-1,2
 1030 1579 1030 1579 1105.5 1524.5 c 128,-1,3
 1181 1470 1181 1470 1220.5 1385 c 128,-1,4
 1260 1300 1260 1300 1260 1181 c 0,5,6
 1260 1127 1260 1127 1250.5 1085 c 128,-1,7
 1241 1043 1241 1043 1225.5 1010.5 c 128,-1,8
 1210 978 1210 978 1190.5 955 c 128,-1,9
 1171 932 1171 932 1150 916 c 0,10,11
 1102 879 1102 879 1040 865 c 1,12,13
 1109 852 1109 852 1165 805 c 0,14,15
 1188 785 1188 785 1210.5 756 c 128,-1,16
 1233 727 1233 727 1250.5 686.5 c 128,-1,17
 1268 646 1268 646 1279 592.5 c 128,-1,18
 1290 539 1290 539 1290 471 c 0,19,20
 1290 397 1290 397 1281 330 c 128,-1,21
 1272 263 1272 263 1248 206 c 128,-1,22
 1224 149 1224 149 1181 103.5 c 128,-1,23
 1138 58 1138 58 1069.5 26 c 128,-1,24
 1001 -6 1001 -6 904 -23.5 c 128,-1,25
 807 -41 807 -41 675 -41 c 256,26,27
 543 -41 543 -41 446 -24 c 128,-1,28
 349 -7 349 -7 280.5 25.5 c 128,-1,29
 212 58 212 58 169 103.5 c 128,-1,30
 126 149 126 149 102 206 c 128,-1,31
 78 263 78 263 69 329.5 c 128,-1,32
 60 396 60 396 60 471 c 0,33,34
 60 539 60 539 67 592.5 c 128,-1,35
 74 646 74 646 86 686.5 c 128,-1,36
 98 727 98 727 113 756 c 128,-1,37
 128 785 128 785 144 805 c 0,38,39
 182 852 182 852 229 865 c 1,40,41
 186 879 186 879 154 917 c 0,42,43
 140 933 140 933 126.5 956.5 c 128,-1,44
 113 980 113 980 102.5 1012.5 c 128,-1,45
 92 1045 92 1045 85.5 1086.5 c 128,-1,46
 79 1128 79 1128 79 1181 c 0,47,48
 79 1300 79 1300 120.5 1385 c 128,-1,49
 162 1470 162 1470 239 1524.5 c 128,-1,50
 316 1579 316 1579 426.5 1604.5 c 128,-1,51
 537 1630 537 1630 675 1630 c 256,0,1
557 1358 m 1,52,-1
 557 961 l 1,53,-1
 793 961 l 1,54,-1
 793 1358 l 1,55,-1
 557 1358 l 1,52,-1
557 236 m 1,56,-1
 793 236 l 1,57,-1
 793 721 l 1,58,-1
 557 721 l 1,59,-1
 557 236 l 1,56,-1
EndSplineSet
Validated: 1
EndChar

StartChar: nine
Encoding: 57 57 28
Width: 1353
GlyphClass: 2
Flags: W
HStem: -38 275<545.371 779.747> 596 270<545.389 781> 1358 274<548.721 780.232>
VStem: 48 497<866.125 1356.54> 91 454<237.088 466> 781 497<255.117 596 866 1357.84>
LayerCount: 2
Fore
SplineSet
781 1358 m 1,0,-1
 545 1358 l 1,1,-1
 545 866 l 1,2,-1
 781 866 l 1,3,-1
 781 1358 l 1,0,-1
665 1632 m 0,4,5
 796 1632 796 1632 892.5 1615 c 128,-1,6
 989 1598 989 1598 1057 1566.5 c 128,-1,7
 1125 1535 1125 1535 1168 1489.5 c 128,-1,8
 1211 1444 1211 1444 1235.5 1387 c 128,-1,9
 1260 1330 1260 1330 1269 1262.5 c 128,-1,10
 1278 1195 1278 1195 1278 1119 c 2,11,-1
 1278 539 l 2,12,13
 1278 472 1278 472 1270 403.5 c 128,-1,14
 1262 335 1262 335 1239 271 c 128,-1,15
 1216 207 1216 207 1174 150.5 c 128,-1,16
 1132 94 1132 94 1064 52 c 128,-1,17
 996 10 996 10 898 -14 c 128,-1,18
 800 -38 800 -38 665 -38 c 0,19,20
 518 -38 518 -38 418 -12.5 c 128,-1,21
 318 13 318 13 254 54 c 128,-1,22
 190 95 190 95 156 148.5 c 128,-1,23
 122 202 122 202 107.5 258 c 128,-1,24
 93 314 93 314 91 368 c 128,-1,25
 89 422 89 422 89 466 c 1,26,-1
 545 466 l 1,27,-1
 545 237 l 1,28,-1
 781 237 l 1,29,-1
 781 596 l 1,30,-1
 654 596 l 2,31,32
 531 596 531 596 438.5 608.5 c 128,-1,33
 346 621 346 621 278.5 647 c 128,-1,34
 211 673 211 673 166.5 713.5 c 128,-1,35
 122 754 122 754 95.5 810 c 128,-1,36
 69 866 69 866 58.5 938.5 c 128,-1,37
 48 1011 48 1011 48 1101 c 0,38,39
 48 1228 48 1228 70 1326.5 c 128,-1,40
 92 1425 92 1425 158 1493 c 128,-1,41
 224 1561 224 1561 345.5 1596.5 c 128,-1,42
 467 1632 467 1632 665 1632 c 0,4,5
EndSplineSet
Validated: 1
EndChar

StartChar: colon
Encoding: 58 58 29
Width: 645
GlyphClass: 2
Flags: W
HStem: 92 467<94 552> 1000 497<94 552>
VStem: 94 458<92 559 1000 1497>
LayerCount: 2
Fore
SplineSet
552 92 m 1,0,-1
 94 92 l 1,1,-1
 94 559 l 1,2,-1
 552 559 l 1,3,-1
 552 92 l 1,0,-1
552 1000 m 1,4,-1
 94 1000 l 1,5,-1
 94 1497 l 1,6,-1
 552 1497 l 1,7,-1
 552 1000 l 1,4,-1
EndSplineSet
Validated: 1
EndChar

StartChar: semicolon
Encoding: 59 59 30
Width: 683
GlyphClass: 2
Flags: W
HStem: -247 199<127 234.323> 1000 497<111 569>
VStem: 103 492<123.317 607> 111 458<1000 1497>
LayerCount: 2
Fore
SplineSet
569 1000 m 1,0,-1
 111 1000 l 1,1,-1
 111 1497 l 1,2,-1
 569 1497 l 1,3,-1
 569 1000 l 1,0,-1
127 -48 m 1,4,5
 178 -36 178 -36 220 -13 c 0,6,7
 238 -3 238 -3 254.5 9.5 c 128,-1,8
 271 22 271 22 284.5 38.5 c 128,-1,9
 298 55 298 55 306 75.5 c 128,-1,10
 314 96 314 96 314 120 c 1,11,-1
 103 120 l 1,12,-1
 103 607 l 1,13,-1
 595 607 l 1,14,-1
 595 270 l 2,15,16
 595 118 595 118 563 18.5 c 128,-1,17
 531 -81 531 -81 471 -140 c 128,-1,18
 411 -199 411 -199 324 -223 c 128,-1,19
 237 -247 237 -247 127 -247 c 1,20,-1
 127 -48 l 1,4,5
EndSplineSet
Validated: 1
EndChar

StartChar: less
Encoding: 60 60 31
Width: 914
GlyphClass: 2
Flags: W
HStem: 0 21G<805.607 838> 1577 20G<806.257 838>
LayerCount: 2
Fore
SplineSet
46 1098 m 1,0,-1
 838 1597 l 1,1,-1
 838 1092 l 1,2,-1
 295 797 l 1,3,-1
 838 504 l 1,4,-1
 838 0 l 1,5,-1
 46 489 l 1,6,-1
 46 1098 l 1,0,-1
EndSplineSet
Validated: 1
EndChar

StartChar: equal
Encoding: 61 61 32
Width: 928
GlyphClass: 2
Flags: W
HStem: 0 336<87 841> 561 336<87 841>
VStem: 87 754<0 336 561 897>
LayerCount: 2
Fore
SplineSet
841 336 m 1,0,-1
 841 0 l 1,1,-1
 87 0 l 1,2,-1
 87 336 l 1,3,-1
 841 336 l 1,0,-1
841 897 m 1,4,-1
 841 561 l 1,5,-1
 87 561 l 1,6,-1
 87 897 l 1,7,-1
 841 897 l 1,4,-1
EndSplineSet
Validated: 1
EndChar

StartChar: greater
Encoding: 62 62 33
Width: 916
GlyphClass: 2
Flags: W
HStem: 0 21G<77 109.434> 1577 20G<77 108.784>
LayerCount: 2
Fore
SplineSet
870 489 m 1,0,-1
 77 0 l 1,1,-1
 77 504 l 1,2,-1
 620 797 l 1,3,-1
 77 1092 l 1,4,-1
 77 1597 l 1,5,-1
 870 1098 l 1,6,-1
 870 489 l 1,0,-1
EndSplineSet
Validated: 1
EndChar

StartChar: question
Encoding: 63 63 34
Width: 1264
GlyphClass: 2
Flags: W
HStem: 0 237<276 753> 1358 274<474.518 744.862>
VStem: 41 431<1070 1357.04> 276 477<0 237 422 649.703> 748 477<1022.32 1356.82>
LayerCount: 2
Fore
SplineSet
276 422 m 1,0,1
 276 540 276 540 296.5 626 c 128,-1,2
 317 712 317 712 350 773.5 c 128,-1,3
 383 835 383 835 425.5 875 c 128,-1,4
 468 915 468 915 512 941 c 128,-1,5
 556 967 556 967 598.5 982.5 c 128,-1,6
 641 998 641 998 674 1010 c 128,-1,7
 707 1022 707 1022 727.5 1034 c 128,-1,8
 748 1046 748 1046 748 1066 c 2,9,-1
 748 1358 l 1,10,-1
 472 1358 l 1,11,-1
 472 1070 l 1,12,-1
 41 1070 l 1,13,-1
 41 1247 l 2,14,15
 41 1287 41 1287 44 1331 c 128,-1,16
 47 1375 47 1375 63 1418 c 128,-1,17
 79 1461 79 1461 113 1499.5 c 128,-1,18
 147 1538 147 1538 209 1567.5 c 128,-1,19
 271 1597 271 1597 365.5 1614.5 c 128,-1,20
 460 1632 460 1632 598 1632 c 256,21,22
 736 1632 736 1632 836 1621 c 128,-1,23
 936 1610 936 1610 1005.5 1585.5 c 128,-1,24
 1075 1561 1075 1561 1118 1521.5 c 128,-1,25
 1161 1482 1161 1482 1185 1425 c 128,-1,26
 1209 1368 1209 1368 1217 1291.5 c 128,-1,27
 1225 1215 1225 1215 1225 1117 c 0,28,29
 1225 1030 1225 1030 1204.5 967.5 c 128,-1,30
 1184 905 1184 905 1151 860.5 c 128,-1,31
 1118 816 1118 816 1075.5 786.5 c 128,-1,32
 1033 757 1033 757 989 736 c 128,-1,33
 945 715 945 715 902.5 699.5 c 128,-1,34
 860 684 860 684 827 668 c 128,-1,35
 794 652 794 652 773.5 632.5 c 128,-1,36
 753 613 753 613 753 583 c 2,37,-1
 753 422 l 1,38,-1
 276 422 l 1,0,1
276 237 m 1,39,-1
 753 237 l 1,40,-1
 753 0 l 1,41,-1
 276 0 l 1,42,-1
 276 237 l 1,39,-1
EndSplineSet
Validated: 1
EndChar

StartChar: at
Encoding: 64 64 35
Width: 2032
GlyphClass: 2
Flags: W
HStem: -385 298<684.236 1257.41> -29 20G<1511.5 1559.71> 88 240<1467 1579> 109 223<921 1030.34> 637 195<921 1110.42> 1068 227<923.357 1113.17> 1462 279<709 1407.79>
VStem: 42 352<282.004 1136.27> 567 354<332.166 635.992> 1115 352<332 637 784 1067.2> 1618 366<452.75 1216.97>
LayerCount: 2
Fore
SplineSet
1142 235 m 1,0,1
 1104 199 1104 199 1061 172 c 0,2,3
 1024 148 1024 148 975.5 128.5 c 128,-1,4
 927 109 927 109 873 109 c 0,5,6
 796 109 796 109 744 125.5 c 128,-1,7
 692 142 692 142 658 170 c 128,-1,8
 624 198 624 198 605.5 235.5 c 128,-1,9
 587 273 587 273 578.5 315 c 128,-1,10
 570 357 570 357 568.5 401.5 c 128,-1,11
 567 446 567 446 567 489 c 0,12,13
 567 522 567 522 567 560 c 128,-1,14
 567 598 567 598 573 636 c 128,-1,15
 579 674 579 674 595 709.5 c 128,-1,16
 611 745 611 745 643 772 c 128,-1,17
 675 799 675 799 725.5 815.5 c 128,-1,18
 776 832 776 832 853 832 c 0,19,20
 893 832 893 832 934.5 828 c 128,-1,21
 976 824 976 824 1012 817 c 128,-1,22
 1048 810 1048 810 1075.5 801.5 c 128,-1,23
 1103 793 1103 793 1115 784 c 1,24,-1
 1115 1068 l 1,25,-1
 921 1068 l 1,26,-1
 921 933 l 1,27,-1
 613 933 l 1,28,29
 613 950 613 950 612.5 966.5 c 128,-1,30
 612 983 612 983 612 1000 c 0,31,32
 612 1036 612 1036 616 1071.5 c 128,-1,33
 620 1107 620 1107 634 1139.5 c 128,-1,34
 648 1172 648 1172 676 1200.5 c 128,-1,35
 704 1229 704 1229 752 1250 c 128,-1,36
 800 1271 800 1271 871 1283 c 128,-1,37
 942 1295 942 1295 1043 1295 c 0,38,39
 1142 1295 1142 1295 1212 1281 c 128,-1,40
 1282 1267 1282 1267 1329 1243.5 c 128,-1,41
 1376 1220 1376 1220 1403.5 1187.5 c 128,-1,42
 1431 1155 1431 1155 1445 1117.5 c 128,-1,43
 1459 1080 1459 1080 1463 1040 c 128,-1,44
 1467 1000 1467 1000 1467 960 c 2,45,-1
 1467 328 l 1,46,-1
 1579 328 l 1,47,48
 1584 376 1584 376 1588.5 422.5 c 128,-1,49
 1593 469 1593 469 1598 515 c 0,50,51
 1602 554 1602 554 1605.5 596 c 128,-1,52
 1609 638 1609 638 1612 679 c 128,-1,53
 1615 720 1615 720 1616.5 759 c 128,-1,54
 1618 798 1618 798 1618 830 c 0,55,56
 1618 982 1618 982 1602.5 1088 c 128,-1,57
 1587 1194 1587 1194 1555.5 1264.5 c 128,-1,58
 1524 1335 1524 1335 1477 1374.5 c 128,-1,59
 1430 1414 1430 1414 1367.5 1433.5 c 128,-1,60
 1305 1453 1305 1453 1227 1457.5 c 128,-1,61
 1149 1462 1149 1462 1056 1462 c 0,62,63
 912 1462 912 1462 806.5 1442.5 c 128,-1,64
 701 1423 701 1423 627.5 1383 c 128,-1,65
 554 1343 554 1343 508.5 1280.5 c 128,-1,66
 463 1218 463 1218 437.5 1132.5 c 128,-1,67
 412 1047 412 1047 403 936.5 c 128,-1,68
 394 826 394 826 394 690 c 0,69,70
 394 534 394 534 411 416 c 128,-1,71
 428 298 428 298 460.5 211.5 c 128,-1,72
 493 125 493 125 540.5 67.5 c 128,-1,73
 588 10 588 10 649 -24.5 c 128,-1,74
 710 -59 710 -59 784 -73 c 128,-1,75
 858 -87 858 -87 944 -87 c 0,76,77
 1008 -87 1008 -87 1079 -80 c 128,-1,78
 1150 -73 1150 -73 1226.5 -62 c 128,-1,79
 1303 -51 1303 -51 1385.5 -37 c 128,-1,80
 1468 -23 1468 -23 1555 -9 c 1,81,-1
 1608 -234 l 1,82,83
 1414 -306 1414 -306 1234.5 -345.5 c 128,-1,84
 1055 -385 1055 -385 889 -385 c 0,85,86
 703 -385 703 -385 547.5 -327.5 c 128,-1,87
 392 -270 392 -270 279.5 -142.5 c 128,-1,88
 167 -15 167 -15 104.5 189.5 c 128,-1,89
 42 394 42 394 42 687 c 0,90,91
 42 893 42 893 69 1051.5 c 128,-1,92
 96 1210 96 1210 151 1327 c 128,-1,93
 206 1444 206 1444 289.5 1523.5 c 128,-1,94
 373 1603 373 1603 485 1651 c 128,-1,95
 597 1699 597 1699 739 1720 c 128,-1,96
 881 1741 881 1741 1054 1741 c 0,97,98
 1237 1741 1237 1741 1377.5 1717.5 c 128,-1,99
 1518 1694 1518 1694 1621.5 1647 c 128,-1,100
 1725 1600 1725 1600 1794.5 1528.5 c 128,-1,101
 1864 1457 1864 1457 1906 1361 c 128,-1,102
 1948 1265 1948 1265 1966 1144.5 c 128,-1,103
 1984 1024 1984 1024 1984 878 c 0,104,105
 1984 643 1984 643 1949 490 c 128,-1,106
 1914 337 1914 337 1843.5 248 c 128,-1,107
 1773 159 1773 159 1667.5 123.5 c 128,-1,108
 1562 88 1562 88 1420 88 c 0,109,110
 1327 88 1327 88 1271.5 110.5 c 128,-1,111
 1216 133 1216 133 1188 161 c 0,112,113
 1156 193 1156 193 1142 235 c 1,0,1
921 637 m 1,114,-1
 921 332 l 1,115,-1
 1115 332 l 1,116,-1
 1115 637 l 1,117,-1
 921 637 l 1,114,-1
EndSplineSet
Validated: 1
EndChar

StartChar: A
Encoding: 65 65 36
Width: 1398
GlyphClass: 2
Flags: W
HStem: 0 21G<14 531.086 865.015 1384> 393 179<596 802> 1575 20G<266.79 1131.21>
LayerCount: 2
Fore
SplineSet
570 393 m 1,0,-1
 529 0 l 1,1,-1
 14 0 l 1,2,-1
 270 1595 l 1,3,-1
 1128 1595 l 1,4,-1
 1384 0 l 1,5,-1
 867 0 l 1,6,-1
 828 393 l 1,7,-1
 570 393 l 1,0,-1
596 572 m 1,8,-1
 802 572 l 1,9,-1
 698 1361 l 1,10,-1
 596 572 l 1,8,-1
EndSplineSet
Validated: 1
EndChar

StartChar: B
Encoding: 66 66 37
Width: 1429
GlyphClass: 2
Flags: W
HStem: 0 237<617 848.998> 750 231<617 853> 1358 237<617 852.07>
VStem: 100 517<237 750 981 1358> 853 537<237.633 697.719> 853 485<1005.17 1357.57>
LayerCount: 2
Fore
SplineSet
1390 460 m 0,0,1
 1390 397 1390 397 1387 338 c 128,-1,2
 1384 279 1384 279 1367.5 228 c 128,-1,3
 1351 177 1351 177 1315 135 c 128,-1,4
 1279 93 1279 93 1212.5 63 c 128,-1,5
 1146 33 1146 33 1043 16.5 c 128,-1,6
 940 0 940 0 790 0 c 2,7,-1
 100 0 l 1,8,-1
 100 1595 l 1,9,-1
 799 1595 l 2,10,11
 934 1595 934 1595 1026 1578 c 128,-1,12
 1118 1561 1118 1561 1178 1531 c 128,-1,13
 1238 1501 1238 1501 1270.5 1461 c 128,-1,14
 1303 1421 1303 1421 1318 1376 c 128,-1,15
 1333 1331 1333 1331 1335.5 1282.5 c 128,-1,16
 1338 1234 1338 1234 1338 1188 c 0,17,18
 1338 1123 1338 1123 1324.5 1076.5 c 128,-1,19
 1311 1030 1311 1030 1288.5 998 c 128,-1,20
 1266 966 1266 966 1238 945 c 128,-1,21
 1210 924 1210 924 1181 909 c 0,22,23
 1150 893 1150 893 1116.5 883 c 128,-1,24
 1083 873 1083 873 1045 870 c 1,25,26
 1135 864 1135 864 1201 827 c 1,27,28
 1238 811 1238 811 1272 786.5 c 128,-1,29
 1306 762 1306 762 1332.5 720 c 128,-1,30
 1359 678 1359 678 1374.5 615.5 c 128,-1,31
 1390 553 1390 553 1390 460 c 0,0,1
617 237 m 1,32,-1
 853 237 l 1,33,-1
 853 750 l 1,34,-1
 617 750 l 1,35,-1
 617 237 l 1,32,-1
617 981 m 1,36,-1
 853 981 l 1,37,-1
 853 1358 l 1,38,-1
 617 1358 l 1,39,-1
 617 981 l 1,36,-1
EndSplineSet
Validated: 1
EndChar

StartChar: C
Encoding: 67 67 38
Width: 1404
GlyphClass: 2
Flags: W
HStem: -39 276<602.469 833.111> 1358 274<599.634 834.982>
VStem: 82 517<237.695 1357.88> 835 497<237.695 686 909 1357.88>
LayerCount: 2
Fore
SplineSet
835 1358 m 1,0,-1
 599 1358 l 1,1,-1
 599 237 l 1,2,-1
 835 237 l 1,3,-1
 835 686 l 1,4,-1
 1332 686 l 1,5,-1
 1332 371 l 2,6,7
 1332 331 1332 331 1327.5 285 c 128,-1,8
 1323 239 1323 239 1303.5 193.5 c 128,-1,9
 1284 148 1284 148 1245 106 c 128,-1,10
 1206 64 1206 64 1137.5 32 c 128,-1,11
 1069 0 1069 0 966.5 -19.5 c 128,-1,12
 864 -39 864 -39 717 -39 c 0,13,14
 567 -39 567 -39 461.5 -19.5 c 128,-1,15
 356 0 356 0 285.5 32 c 128,-1,16
 215 64 215 64 174.5 106 c 128,-1,17
 134 148 134 148 113.5 193.5 c 128,-1,18
 93 239 93 239 87.5 285 c 128,-1,19
 82 331 82 331 82 371 c 2,20,-1
 82 1227 l 2,21,22
 82 1267 82 1267 87.5 1312.5 c 128,-1,23
 93 1358 93 1358 113 1403 c 128,-1,24
 133 1448 133 1448 173.5 1489.5 c 128,-1,25
 214 1531 214 1531 284.5 1562.5 c 128,-1,26
 355 1594 355 1594 459.5 1613 c 128,-1,27
 564 1632 564 1632 714 1632 c 0,28,29
 862 1632 862 1632 965.5 1613 c 128,-1,30
 1069 1594 1069 1594 1137.5 1562.5 c 128,-1,31
 1206 1531 1206 1531 1245 1489.5 c 128,-1,32
 1284 1448 1284 1448 1303.5 1403 c 128,-1,33
 1323 1358 1323 1358 1327.5 1312.5 c 128,-1,34
 1332 1267 1332 1267 1332 1227 c 2,35,-1
 1332 909 l 1,36,-1
 835 909 l 1,37,-1
 835 1358 l 1,0,-1
EndSplineSet
Validated: 1
EndChar

StartChar: D
Encoding: 68 68 39
Width: 1454
GlyphClass: 2
Flags: W
HStem: 0 237<617 852.236> 1358 237<617 852.236>
VStem: 100 517<237 1358> 853 517<237.896 1357.42>
LayerCount: 2
Fore
SplineSet
617 237 m 1,0,-1
 853 237 l 1,1,-1
 853 1358 l 1,2,-1
 617 1358 l 1,3,-1
 617 237 l 1,0,-1
1370 393 m 2,4,5
 1370 353 1370 353 1367.5 308.5 c 128,-1,6
 1365 264 1365 264 1348.5 220 c 128,-1,7
 1332 176 1332 176 1297.5 136.5 c 128,-1,8
 1263 97 1263 97 1198.5 66.5 c 128,-1,9
 1134 36 1134 36 1035 18 c 128,-1,10
 936 0 936 0 791 0 c 2,11,-1
 100 0 l 1,12,-1
 100 1595 l 1,13,-1
 791 1595 l 2,14,15
 936 1595 936 1595 1035 1577 c 128,-1,16
 1134 1559 1134 1559 1198.5 1529 c 128,-1,17
 1263 1499 1263 1499 1297.5 1459.5 c 128,-1,18
 1332 1420 1332 1420 1348.5 1376.5 c 128,-1,19
 1365 1333 1365 1333 1367.5 1288.5 c 128,-1,20
 1370 1244 1370 1244 1370 1204 c 2,21,-1
 1370 393 l 2,4,5
EndSplineSet
Validated: 1
EndChar

StartChar: E
Encoding: 69 69 40
Width: 991
GlyphClass: 2
Flags: W
HStem: 0 237<617 926> 711 250<617 905> 1358 237<617 926>
VStem: 100 517<237 711 961 1358>
LayerCount: 2
Fore
SplineSet
926 1595 m 1,0,-1
 926 1358 l 1,1,-1
 617 1358 l 1,2,-1
 617 961 l 1,3,-1
 905 961 l 1,4,-1
 905 711 l 1,5,-1
 617 711 l 1,6,-1
 617 237 l 1,7,-1
 926 237 l 1,8,-1
 926 0 l 1,9,-1
 100 0 l 1,10,-1
 100 1595 l 1,11,-1
 926 1595 l 1,0,-1
EndSplineSet
Validated: 1
EndChar

StartChar: F
Encoding: 70 70 41
Width: 966
GlyphClass: 2
Flags: W
HStem: 0 21G<100 617> 705 249<617 905> 1358 237<617 926>
VStem: 100 517<0 705 954 1358>
LayerCount: 2
Fore
SplineSet
926 1595 m 1,0,-1
 926 1358 l 1,1,-1
 617 1358 l 1,2,-1
 617 954 l 1,3,-1
 905 954 l 1,4,-1
 905 705 l 1,5,-1
 617 705 l 1,6,-1
 617 0 l 1,7,-1
 100 0 l 1,8,-1
 100 1595 l 1,9,-1
 926 1595 l 1,0,-1
EndSplineSet
Validated: 1
EndChar

StartChar: G
Encoding: 71 71 42
Width: 1412
GlyphClass: 2
Flags: W
HStem: -37 274<598 757.875> 0 21G<886.769 1331> 455 231<776 920> 1358 274<598.364 831.466>
VStem: 81 517<237.426 1357.74> 834 497<909 1357.88>
LayerCount: 2
Fore
SplineSet
1331 686 m 1,0,-1
 1331 0 l 1,1,-1
 896 0 l 1,2,-1
 848 104 l 1,3,4
 838 84 838 84 824 66.5 c 128,-1,5
 810 49 810 49 793 33 c 0,6,7
 763 7 763 7 712.5 -15 c 128,-1,8
 662 -37 662 -37 585 -37 c 0,9,10
 486 -37 486 -37 410.5 -19 c 128,-1,11
 335 -1 335 -1 279 30 c 128,-1,12
 223 61 223 61 185 101 c 128,-1,13
 147 141 147 141 124 185 c 128,-1,14
 101 229 101 229 91 273.5 c 128,-1,15
 81 318 81 318 81 358 c 2,16,-1
 81 1227 l 2,17,18
 81 1270 81 1270 86.5 1317 c 128,-1,19
 92 1364 92 1364 112.5 1409 c 128,-1,20
 133 1454 133 1454 173.5 1494.5 c 128,-1,21
 214 1535 214 1535 284.5 1565.5 c 128,-1,22
 355 1596 355 1596 459 1614 c 128,-1,23
 563 1632 563 1632 712 1632 c 0,24,25
 853 1632 853 1632 953.5 1613 c 128,-1,26
 1054 1594 1054 1594 1122.5 1562.5 c 128,-1,27
 1191 1531 1191 1531 1232.5 1489.5 c 128,-1,28
 1274 1448 1274 1448 1295.5 1403 c 128,-1,29
 1317 1358 1317 1358 1324 1312.5 c 128,-1,30
 1331 1267 1331 1267 1331 1227 c 2,31,-1
 1331 909 l 1,32,-1
 834 909 l 1,33,-1
 834 1358 l 1,34,-1
 598 1358 l 1,35,-1
 598 237 l 1,36,-1
 920 237 l 1,37,-1
 920 455 l 1,38,-1
 776 455 l 1,39,-1
 776 686 l 1,40,-1
 1331 686 l 1,0,-1
EndSplineSet
Validated: 1
EndChar

StartChar: H
Encoding: 72 72 43
Width: 1520
GlyphClass: 2
Flags: W
HStem: 0 21G<100 617 903 1420> 688 250<617 903> 1575 20G<100 617 903 1420>
VStem: 100 517<0 688 938 1595> 903 517<0 688 938 1595>
LayerCount: 2
Fore
SplineSet
1420 1595 m 1,0,-1
 1420 0 l 1,1,-1
 903 0 l 1,2,-1
 903 688 l 1,3,-1
 617 688 l 1,4,-1
 617 0 l 1,5,-1
 100 0 l 1,6,-1
 100 1595 l 1,7,-1
 617 1595 l 1,8,-1
 617 938 l 1,9,-1
 903 938 l 1,10,-1
 903 1595 l 1,11,-1
 1420 1595 l 1,0,-1
EndSplineSet
Validated: 1
EndChar

StartChar: I
Encoding: 73 73 44
Width: 717
GlyphClass: 2
Flags: W
HStem: 0 21G<100 617> 1575 20G<100 617>
VStem: 100 517<0 1595>
LayerCount: 2
Fore
SplineSet
617 1595 m 1,0,-1
 617 0 l 1,1,-1
 100 0 l 1,2,-1
 100 1595 l 1,3,-1
 617 1595 l 1,0,-1
EndSplineSet
Validated: 1
EndChar

StartChar: J
Encoding: 74 74 45
Width: 1340
GlyphClass: 2
Flags: W
HStem: -39 276<492.823 722.805> 1575 20G<726 1243>
VStem: 33 457<237.695 603> 726 517<237.695 1595>
LayerCount: 2
Fore
SplineSet
726 1595 m 1,0,-1
 1243 1595 l 1,1,-1
 1243 371 l 2,2,3
 1243 331 1243 331 1236.5 285 c 128,-1,4
 1230 239 1230 239 1208.5 193.5 c 128,-1,5
 1187 148 1187 148 1146 106 c 128,-1,6
 1105 64 1105 64 1036 32 c 128,-1,7
 967 0 967 0 865.5 -19.5 c 128,-1,8
 764 -39 764 -39 622 -39 c 0,9,10
 478 -39 478 -39 378 -19.5 c 128,-1,11
 278 0 278 0 212.5 32 c 128,-1,12
 147 64 147 64 111 106 c 128,-1,13
 75 148 75 148 57.5 193.5 c 128,-1,14
 40 239 40 239 36.5 285 c 128,-1,15
 33 331 33 331 33 371 c 2,16,-1
 33 603 l 1,17,-1
 490 603 l 1,18,-1
 490 237 l 1,19,-1
 726 237 l 1,20,-1
 726 1595 l 1,0,-1
EndSplineSet
Validated: 1
EndChar

StartChar: K
Encoding: 75 75 46
Width: 1511
GlyphClass: 2
Flags: W
HStem: 0 21G<100 617 944.094 1539> 1575 20G<100 617 925.592 1521>
VStem: 100 517<0 440 1034 1595>
LayerCount: 2
Fore
SplineSet
617 0 m 1,0,-1
 100 0 l 1,1,-1
 100 1595 l 1,2,-1
 617 1595 l 1,3,-1
 617 1034 l 1,4,-1
 937 1595 l 1,5,-1
 1521 1595 l 1,6,-1
 1016 854 l 1,7,-1
 1539 0 l 1,8,-1
 954 0 l 1,9,-1
 691 531 l 1,10,-1
 617 440 l 1,11,-1
 617 0 l 1,0,-1
EndSplineSet
Validated: 1
EndChar

StartChar: L
Encoding: 76 76 47
Width: 953
GlyphClass: 2
Flags: W
HStem: 0 237<617 925> 1575 20G<100 617>
VStem: 100 517<237 1595>
LayerCount: 2
Fore
SplineSet
100 0 m 1,0,-1
 100 1595 l 1,1,-1
 617 1595 l 1,2,-1
 617 237 l 1,3,-1
 925 237 l 1,4,-1
 925 0 l 1,5,-1
 100 0 l 1,0,-1
EndSplineSet
Validated: 1
EndChar

StartChar: M
Encoding: 77 77 48
Width: 1794
GlyphClass: 2
Flags: W
HStem: 0 21G<100 480 710.57 1083.43 1314 1694> 1575 20G<100 707.967 1086.03 1694>
VStem: 100 380<0 1061> 1314 380<0 1061>
LayerCount: 2
Fore
SplineSet
1079 0 m 1,0,-1
 715 0 l 1,1,-1
 480 1061 l 1,2,-1
 480 0 l 1,3,-1
 100 0 l 1,4,-1
 100 1595 l 1,5,-1
 704 1595 l 1,6,-1
 897 622 l 1,7,-1
 1090 1595 l 1,8,-1
 1694 1595 l 1,9,-1
 1694 0 l 1,10,-1
 1314 0 l 1,11,-1
 1314 1061 l 1,12,-1
 1079 0 l 1,0,-1
EndSplineSet
Validated: 1
EndChar

StartChar: N
Encoding: 78 78 49
Width: 1501
GlyphClass: 2
Flags: W
HStem: 0 21G<100 532 907.734 1401> 1575 20G<100 583.262 982 1401>
VStem: 100 432<0 831> 982 419<714 1595>
LayerCount: 2
Fore
SplineSet
917 0 m 1,0,-1
 532 831 l 1,1,-1
 532 0 l 1,2,-1
 100 0 l 1,3,-1
 100 1595 l 1,4,-1
 574 1595 l 1,5,-1
 982 714 l 1,6,-1
 982 1595 l 1,7,-1
 1401 1595 l 1,8,-1
 1401 0 l 1,9,-1
 917 0 l 1,0,-1
EndSplineSet
Validated: 1
EndChar

StartChar: O
Encoding: 79 79 50
Width: 1433
GlyphClass: 2
Flags: W
HStem: -39 276<599.603 834.291> 1358 274<599.05 834.291>
VStem: 82 517<237.695 1357.88> 835 517<237.695 1357.88>
LayerCount: 2
Fore
SplineSet
599 237 m 1,0,-1
 835 237 l 1,1,-1
 835 1358 l 1,2,-1
 599 1358 l 1,3,-1
 599 237 l 1,0,-1
710 -39 m 0,4,5
 560 -39 560 -39 454.5 -19.5 c 128,-1,6
 349 0 349 0 279.5 32 c 128,-1,7
 210 64 210 64 170.5 106 c 128,-1,8
 131 148 131 148 111 193.5 c 128,-1,9
 91 239 91 239 86.5 285 c 128,-1,10
 82 331 82 331 82 371 c 2,11,-1
 82 1227 l 2,12,13
 82 1267 82 1267 86.5 1312.5 c 128,-1,14
 91 1358 91 1358 111 1403 c 128,-1,15
 131 1448 131 1448 170.5 1489.5 c 128,-1,16
 210 1531 210 1531 279.5 1562.5 c 128,-1,17
 349 1594 349 1594 454 1613 c 128,-1,18
 559 1632 559 1632 710 1632 c 0,19,20
 862 1632 862 1632 968.5 1613 c 128,-1,21
 1075 1594 1075 1594 1146.5 1562.5 c 128,-1,22
 1218 1531 1218 1531 1259 1489.5 c 128,-1,23
 1300 1448 1300 1448 1320.5 1403 c 128,-1,24
 1341 1358 1341 1358 1346.5 1312.5 c 128,-1,25
 1352 1267 1352 1267 1352 1227 c 2,26,-1
 1352 371 l 2,27,28
 1352 331 1352 331 1346.5 285 c 128,-1,29
 1341 239 1341 239 1320.5 193.5 c 128,-1,30
 1300 148 1300 148 1259 106 c 128,-1,31
 1218 64 1218 64 1146.5 32 c 128,-1,32
 1075 0 1075 0 968.5 -19.5 c 128,-1,33
 862 -39 862 -39 710 -39 c 0,4,5
EndSplineSet
Validated: 1
EndChar

StartChar: P
Encoding: 80 80 51
Width: 1420
GlyphClass: 2
Flags: W
HStem: 0 21G<100 617> 432 218<617 851.236> 1358 237<617 851.236>
VStem: 100 517<0 432 650 1358> 853 517<651.009 1357.42>
LayerCount: 2
Fore
SplineSet
100 1595 m 1,0,-1
 790 1595 l 2,1,2
 935 1595 935 1595 1034 1577 c 128,-1,3
 1133 1559 1133 1559 1197.5 1529 c 128,-1,4
 1262 1499 1262 1499 1297 1459.5 c 128,-1,5
 1332 1420 1332 1420 1348 1376.5 c 128,-1,6
 1364 1333 1364 1333 1367 1288.5 c 128,-1,7
 1370 1244 1370 1244 1370 1204 c 2,8,-1
 1370 823 l 2,9,10
 1370 783 1370 783 1367 738.5 c 128,-1,11
 1364 694 1364 694 1348 651 c 128,-1,12
 1332 608 1332 608 1297 568 c 128,-1,13
 1262 528 1262 528 1197.5 498 c 128,-1,14
 1133 468 1133 468 1034 450 c 128,-1,15
 935 432 935 432 790 432 c 2,16,-1
 617 432 l 1,17,-1
 617 0 l 1,18,-1
 100 0 l 1,19,-1
 100 1595 l 1,0,-1
617 650 m 1,20,-1
 853 650 l 1,21,-1
 853 1358 l 1,22,-1
 617 1358 l 1,23,-1
 617 650 l 1,20,-1
EndSplineSet
Validated: 1
EndChar

StartChar: Q
Encoding: 81 81 52
Width: 1437
GlyphClass: 2
Flags: W
HStem: -549 356<900.65 1161.94> 1358 274<599.603 834.291>
VStem: 82 517<237.938 1357.88> 835 517<237.389 1357.88>
LayerCount: 2
Fore
SplineSet
1164 -170 m 1,0,-1
 1164 -537 l 1,1,2
 1063 -549 1063 -549 983 -549 c 0,3,4
 873 -549 873 -549 795 -528.5 c 128,-1,5
 717 -508 717 -508 663.5 -472 c 128,-1,6
 610 -436 610 -436 578 -386.5 c 128,-1,7
 546 -337 546 -337 528.5 -279 c 128,-1,8
 511 -221 511 -221 505 -156.5 c 128,-1,9
 499 -92 499 -92 498 -26 c 1,10,11
 399 -13 399 -13 329.5 12 c 128,-1,12
 260 37 260 37 213.5 69.5 c 128,-1,13
 167 102 167 102 141 140 c 128,-1,14
 115 178 115 178 101.5 218 c 128,-1,15
 88 258 88 258 85 297 c 128,-1,16
 82 336 82 336 82 371 c 2,17,-1
 82 1227 l 2,18,19
 82 1267 82 1267 86.5 1312.5 c 128,-1,20
 91 1358 91 1358 111 1403 c 128,-1,21
 131 1448 131 1448 170.5 1489.5 c 128,-1,22
 210 1531 210 1531 279.5 1562.5 c 128,-1,23
 349 1594 349 1594 454.5 1613 c 128,-1,24
 560 1632 560 1632 710 1632 c 0,25,26
 862 1632 862 1632 968.5 1613 c 128,-1,27
 1075 1594 1075 1594 1146.5 1562.5 c 128,-1,28
 1218 1531 1218 1531 1259 1489.5 c 128,-1,29
 1300 1448 1300 1448 1320.5 1403 c 128,-1,30
 1341 1358 1341 1358 1346.5 1312.5 c 128,-1,31
 1352 1267 1352 1267 1352 1227 c 2,32,-1
 1352 371 l 2,33,34
 1352 335 1352 335 1348 294 c 128,-1,35
 1344 253 1344 253 1328 211.5 c 128,-1,36
 1312 170 1312 170 1281.5 130.5 c 128,-1,37
 1251 91 1251 91 1197.5 58.5 c 128,-1,38
 1144 26 1144 26 1065 2 c 128,-1,39
 986 -22 986 -22 873 -32 c 1,40,-1
 873 -33 l 2,41,42
 873 -82 873 -82 883 -113 c 128,-1,43
 893 -144 893 -144 910.5 -162 c 128,-1,44
 928 -180 928 -180 950.5 -186.5 c 128,-1,45
 973 -193 973 -193 999 -193 c 0,46,47
 1021 -193 1021 -193 1049 -190 c 128,-1,48
 1077 -187 1077 -187 1103 -182 c 0,49,50
 1133 -177 1133 -177 1164 -170 c 1,0,-1
599 237 m 1,51,-1
 835 237 l 1,52,-1
 835 1358 l 1,53,-1
 599 1358 l 1,54,-1
 599 237 l 1,51,-1
EndSplineSet
Validated: 1
EndChar

StartChar: R
Encoding: 82 82 53
Width: 1445
GlyphClass: 2
Flags: W
HStem: 0 21G<100 617 853 1370> 649 232<617 853> 1358 237<617 849.657>
VStem: 100 517<0 649 881 1358> 853 517<0 648.656 888.048 1357.38>
LayerCount: 2
Fore
SplineSet
853 649 m 1,0,-1
 617 649 l 1,1,-1
 617 0 l 1,2,-1
 100 0 l 1,3,-1
 100 1595 l 1,4,-1
 769 1595 l 2,5,6
 919 1595 919 1595 1022 1576.5 c 128,-1,7
 1125 1558 1125 1558 1191.5 1525.5 c 128,-1,8
 1258 1493 1258 1493 1294.5 1448 c 128,-1,9
 1331 1403 1331 1403 1347.5 1349 c 128,-1,10
 1364 1295 1364 1295 1367 1234 c 128,-1,11
 1370 1173 1370 1173 1370 1110 c 0,12,13
 1370 1051 1370 1051 1362 995.5 c 128,-1,14
 1354 940 1354 940 1329 895 c 128,-1,15
 1304 850 1304 850 1257.5 818 c 128,-1,16
 1211 786 1211 786 1135 774 c 1,17,18
 1170 771 1170 771 1211 756.5 c 128,-1,19
 1252 742 1252 742 1287.5 709.5 c 128,-1,20
 1323 677 1323 677 1346.5 623 c 128,-1,21
 1370 569 1370 569 1370 487 c 2,22,-1
 1370 0 l 1,23,-1
 853 0 l 1,24,-1
 853 649 l 1,0,-1
617 881 m 1,25,-1
 853 881 l 1,26,-1
 853 1358 l 1,27,-1
 617 1358 l 1,28,-1
 617 881 l 1,25,-1
EndSplineSet
Validated: 1
EndChar

StartChar: S
Encoding: 83 83 54
Width: 1383
GlyphClass: 2
Flags: W
HStem: -37 274<577.673 808.846> 18 478<208.105 491.147> 1158 449.5<817.493 1134.73> 1358 274<578.547 812.451>
VStem: 57 520<238.641 496 1070.6 1355.94> 813 517<237.354 586.742>
LayerCount: 2
Fore
SplineSet
577 1128 m 2,0,1
 577 1096 577 1096 609.5 1077 c 128,-1,2
 642 1058 642 1058 695 1043.5 c 128,-1,3
 748 1029 748 1029 815.5 1015 c 128,-1,4
 883 1001 883 1001 953.5 979.5 c 128,-1,5
 1024 958 1024 958 1091.5 924.5 c 128,-1,6
 1159 891 1159 891 1212 837.5 c 128,-1,7
 1265 784 1265 784 1297.5 706 c 128,-1,8
 1330 628 1330 628 1330 518 c 0,9,10
 1330 439 1330 439 1326 367 c 128,-1,11
 1322 295 1322 295 1303.5 233.5 c 128,-1,12
 1285 172 1285 172 1245.5 122 c 128,-1,13
 1206 72 1206 72 1135.5 36.5 c 128,-1,14
 1065 1 1065 1 957.5 -18 c 128,-1,15
 850 -37 850 -37 695 -37 c 0,16,17
 562 -37 562 -37 462.5 -23.5 c 128,-1,18
 363 -10 363 -10 292 18 c 128,-1,19
 221 46 221 46 175.5 89.5 c 128,-1,20
 130 133 130 133 103.5 192 c 128,-1,21
 77 251 77 251 67 327 c 128,-1,22
 57 403 57 403 57 496 c 1,23,-1
 577 496 l 1,24,-1
 577 237 l 1,25,-1
 813 237 l 1,26,-1
 813 533 l 2,27,28
 813 562 813 562 780.5 581 c 128,-1,29
 748 600 748 600 695 615.5 c 128,-1,30
 642 631 642 631 574.5 646 c 128,-1,31
 507 661 507 661 436.5 682 c 128,-1,32
 366 703 366 703 298.5 733 c 128,-1,33
 231 763 231 763 178 807.5 c 128,-1,34
 125 852 125 852 92.5 914.5 c 128,-1,35
 60 977 60 977 60 1064 c 0,36,37
 60 1172 60 1172 71.5 1256.5 c 128,-1,38
 83 1341 83 1341 111 1404 c 128,-1,39
 139 1467 139 1467 186 1510.5 c 128,-1,40
 233 1554 233 1554 305 1581 c 128,-1,41
 377 1608 377 1608 475.5 1620 c 128,-1,42
 574 1632 574 1632 705 1632 c 0,43,44
 887 1632 887 1632 1004.5 1607.5 c 128,-1,45
 1122 1583 1122 1583 1190 1527.5 c 128,-1,46
 1258 1472 1258 1472 1284 1381 c 128,-1,47
 1310 1290 1310 1290 1310 1158 c 1,48,-1
 813 1158 l 1,49,-1
 813 1358 l 1,50,-1
 577 1358 l 1,51,-1
 577 1128 l 2,0,1
EndSplineSet
Validated: 1
EndChar

StartChar: T
Encoding: 84 84 55
Width: 1236
GlyphClass: 2
Flags: W
HStem: 0 21G<359 876> 1358 237<25 359 876 1212>
VStem: 359 517<0 1358>
LayerCount: 2
Fore
SplineSet
1212 1595 m 1,0,-1
 1212 1358 l 1,1,-1
 876 1358 l 1,2,-1
 876 0 l 1,3,-1
 359 0 l 1,4,-1
 359 1358 l 1,5,-1
 25 1358 l 1,6,-1
 25 1595 l 1,7,-1
 1212 1595 l 1,0,-1
EndSplineSet
Validated: 1
EndChar

StartChar: U
Encoding: 85 85 56
Width: 1464
GlyphClass: 2
Flags: W
HStem: -39 276<615.603 849.607> 1575 20G<97 614 850 1367>
VStem: 97 517<237.695 1595> 850 517<237.695 1595>
LayerCount: 2
Fore
SplineSet
614 237 m 1,0,-1
 850 237 l 1,1,-1
 850 1595 l 1,2,-1
 1367 1595 l 1,3,-1
 1367 371 l 2,4,5
 1367 331 1367 331 1361.5 285 c 128,-1,6
 1356 239 1356 239 1335.5 193.5 c 128,-1,7
 1315 148 1315 148 1274 106 c 128,-1,8
 1233 64 1233 64 1161.5 32 c 128,-1,9
 1090 0 1090 0 983.5 -19.5 c 128,-1,10
 877 -39 877 -39 726 -39 c 0,11,12
 576 -39 576 -39 470.5 -19.5 c 128,-1,13
 365 0 365 0 295 32 c 128,-1,14
 225 64 225 64 185.5 106 c 128,-1,15
 146 148 146 148 126.5 193.5 c 128,-1,16
 107 239 107 239 102 285 c 128,-1,17
 97 331 97 331 97 371 c 2,18,-1
 97 1595 l 1,19,-1
 614 1595 l 1,20,-1
 614 237 l 1,0,-1
EndSplineSet
Validated: 1
EndChar

StartChar: V
Encoding: 86 86 57
Width: 1401
GlyphClass: 2
Flags: W
HStem: 0 21G<297.288 1102.71> 1575 20G<5 542.319 855.681 1395>
LayerCount: 2
Fore
SplineSet
540 1595 m 1,0,-1
 699 224 l 1,1,-1
 858 1595 l 1,2,-1
 1395 1595 l 1,3,-1
 1099 0 l 1,4,-1
 301 0 l 1,5,-1
 5 1595 l 1,6,-1
 540 1595 l 1,0,-1
EndSplineSet
Validated: 1
EndChar

StartChar: W
Encoding: 87 87 58
Width: 1966
GlyphClass: 2
Flags: W
HStem: 0 21G<301.226 846.996 1119 1663.79> 1575 20G<4 529.683 796.237 1170.72 1436.3 1962>
LayerCount: 2
Fore
SplineSet
1962 1595 m 1,0,-1
 1660 0 l 1,1,-1
 1122 0 l 1,2,-1
 983 928 l 1,3,-1
 844 0 l 1,4,-1
 305 0 l 1,5,-1
 4 1595 l 1,6,-1
 527 1595 l 1,7,-1
 661 596 l 1,8,-1
 799 1595 l 1,9,-1
 1168 1595 l 1,10,-1
 1304 596 l 1,11,-1
 1439 1595 l 1,12,-1
 1962 1595 l 1,0,-1
EndSplineSet
Validated: 1
EndChar

StartChar: X
Encoding: 88 88 59
Width: 1334
GlyphClass: 2
Flags: W
HStem: 0 21G<-12 542.47 791.359 1347> 1575 20G<-12 510.402 823.439 1347>
LayerCount: 2
Fore
SplineSet
504 1595 m 1,0,-1
 665 1092 l 1,1,-1
 830 1595 l 1,2,-1
 1347 1595 l 1,3,-1
 985 782 l 1,4,-1
 1347 0 l 1,5,-1
 797 0 l 1,6,-1
 665 468 l 1,7,-1
 537 0 l 1,8,-1
 -12 0 l 1,9,-1
 347 782 l 1,10,-1
 -12 1595 l 1,11,-1
 504 1595 l 1,0,-1
EndSplineSet
Validated: 1
EndChar

StartChar: Y
Encoding: 89 89 60
Width: 1297
GlyphClass: 2
Flags: W
HStem: 0 21G<395 912> 1575 20G<-10 488.532 819.305 1306>
VStem: 395 517<0 449>
LayerCount: 2
Fore
SplineSet
484 1595 m 1,0,-1
 651 858 l 1,1,-1
 824 1595 l 1,2,-1
 1306 1595 l 1,3,-1
 912 449 l 1,4,-1
 912 0 l 1,5,-1
 395 0 l 1,6,-1
 395 459 l 1,7,-1
 -10 1595 l 1,8,-1
 484 1595 l 1,0,-1
EndSplineSet
Validated: 1
EndChar

StartChar: Z
Encoding: 90 90 61
Width: 1013
GlyphClass: 2
Flags: W
HStem: 0 294<660 964> 1304 291<47 383>
LayerCount: 2
Fore
SplineSet
974 1595 m 1,0,-1
 660 294 l 1,1,-1
 964 294 l 1,2,-1
 964 0 l 1,3,-1
 37 0 l 1,4,-1
 383 1304 l 1,5,-1
 47 1304 l 1,6,-1
 47 1595 l 1,7,-1
 974 1595 l 1,0,-1
EndSplineSet
Validated: 1
EndChar

StartChar: bracketleft
Encoding: 91 91 62
Width: 961
GlyphClass: 2
Flags: W
HStem: -319 242<670 977> 1578 241<670 977>
VStem: 96 574<-77 1578>
LayerCount: 2
Fore
SplineSet
96 1819 m 1,0,-1
 977 1819 l 1,1,-1
 977 1578 l 1,2,-1
 670 1578 l 1,3,-1
 670 -77 l 1,4,-1
 977 -77 l 1,5,-1
 977 -319 l 1,6,-1
 96 -319 l 1,7,-1
 96 1819 l 1,0,-1
EndSplineSet
Validated: 1
EndChar

StartChar: backslash
Encoding: 92 92 63
Width: 879
GlyphClass: 2
Flags: W
HStem: 0 21G<346.013 844> 1575 20G<32 529.987>
LayerCount: 2
Fore
SplineSet
526 1595 m 1,0,-1
 844 0 l 1,1,-1
 350 0 l 1,2,-1
 32 1595 l 1,3,-1
 526 1595 l 1,0,-1
EndSplineSet
Validated: 1
EndChar

StartChar: bracketright
Encoding: 93 93 64
Width: 962
GlyphClass: 2
Flags: W
HStem: -319 242<-15 294> 1578 241<-15 294>
VStem: 294 572<-77 1578>
LayerCount: 2
Fore
SplineSet
866 -319 m 1,0,-1
 -15 -319 l 1,1,-1
 -15 -77 l 1,2,-1
 294 -77 l 1,3,-1
 294 1578 l 1,4,-1
 -15 1578 l 1,5,-1
 -15 1819 l 1,6,-1
 866 1819 l 1,7,-1
 866 -319 l 1,0,-1
EndSplineSet
Validated: 1
EndChar

StartChar: asciicircum
Encoding: 94 94 65
Width: 1706
GlyphClass: 2
Flags: W
HStem: 61 615<38 226 382 561>
LayerCount: 2
Fore
SplineSet
1084 676 m 1,0,-1
 1340 61 l 1,1,-1
 905 61 l 1,2,-1
 825 381 l 1,3,-1
 749 61 l 1,4,-1
 315 61 l 1,5,-1
 561 676 l 1,6,-1
 1084 676 l 1,0,-1
EndSplineSet
Validated: 1
EndChar

StartChar: underscore
Encoding: 95 95 66
Width: 830
GlyphClass: 2
Flags: W
HStem: -435 436<13 817>
LayerCount: 2
Fore
SplineSet
817 1 m 1,0,-1
 817 -435 l 1,1,-1
 13 -435 l 1,2,-1
 13 1 l 1,3,-1
 817 1 l 1,0,-1
EndSplineSet
Validated: 1
EndChar

StartChar: grave
Encoding: 96 96 67
Width: 1706
GlyphClass: 2
Flags: W
HStem: 40 649
LayerCount: 2
Fore
SplineSet
551 689 m 1,0,-1
 1276 166 l 1,1,-1
 1211 40 l 1,2,-1
 385 265 l 1,3,-1
 551 689 l 1,0,-1
EndSplineSet
Validated: 1
EndChar

StartChar: a
Encoding: 97 97 68
Width: 1340
GlyphClass: 2
Flags: W
HStem: -36 273<503 630.656> 0 21G<837.611 1299> 602 193<506.574 779> 1060 283<504.875 778.27>
VStem: 26 477<238.98 578.625> 104 399<895.219 1058.91> 779 477<237 602 782 1058.69>
LayerCount: 2
Fore
SplineSet
843 0 m 1,0,-1
 798 167 l 1,1,2
 772 116 772 116 732 78 c 128,-1,3
 692 40 692 40 643 14.5 c 128,-1,4
 594 -11 594 -11 539 -23.5 c 128,-1,5
 484 -36 484 -36 428 -36 c 0,6,7
 312 -36 312 -36 235 -1.5 c 128,-1,8
 158 33 158 33 111.5 89.5 c 128,-1,9
 65 146 65 146 45.5 218.5 c 128,-1,10
 26 291 26 291 26 368 c 0,11,12
 26 447 26 447 48.5 523.5 c 128,-1,13
 71 600 71 600 126.5 660.5 c 128,-1,14
 182 721 182 721 275.5 758 c 128,-1,15
 369 795 369 795 511 795 c 0,16,17
 571 795 571 795 640.5 792 c 128,-1,18
 710 789 710 789 779 782 c 1,19,-1
 779 1060 l 1,20,-1
 503 1060 l 1,21,-1
 503 893 l 1,22,-1
 129 894 l 1,23,24
 118 933 118 933 111 971 c 128,-1,25
 104 1009 104 1009 104 1044 c 0,26,27
 104 1104 104 1104 129.5 1158.5 c 128,-1,28
 155 1213 155 1213 217.5 1254 c 128,-1,29
 280 1295 280 1295 385.5 1319 c 128,-1,30
 491 1343 491 1343 652 1343 c 0,31,32
 797 1343 797 1343 898 1325 c 128,-1,33
 999 1307 999 1307 1066 1277 c 128,-1,34
 1133 1247 1133 1247 1171 1207.5 c 128,-1,35
 1209 1168 1209 1168 1228 1124.5 c 128,-1,36
 1247 1081 1247 1081 1251.5 1036.5 c 128,-1,37
 1256 992 1256 992 1256 952 c 2,38,-1
 1256 257 l 2,39,40
 1256 209 1256 209 1262.5 164 c 128,-1,41
 1269 119 1269 119 1277 82 c 0,42,43
 1282 60 1282 60 1287.5 40 c 128,-1,44
 1293 20 1293 20 1299 0 c 1,45,-1
 843 0 l 1,0,-1
503 602 m 1,46,-1
 503 237 l 1,47,-1
 779 237 l 1,48,-1
 779 602 l 1,49,-1
 503 602 l 1,46,-1
EndSplineSet
Validated: 1
EndChar

StartChar: b
Encoding: 98 98 69
Width: 1378
GlyphClass: 2
Flags: W
HStem: -37 274<721.462 837> 0 21G<84 500.509> 1060 284<705.33 837> 1690 20G<84 561>
VStem: 84 477<237 1060 1199 1710> 837 477<237.343 1059.12>
LayerCount: 2
Fore
SplineSet
561 1710 m 1,0,-1
 561 1199 l 1,1,2
 628 1271 628 1271 726.5 1307.5 c 128,-1,3
 825 1344 825 1344 939 1344 c 0,4,5
 1010 1344 1010 1344 1077.5 1321 c 128,-1,6
 1145 1298 1145 1298 1197.5 1250 c 128,-1,7
 1250 1202 1250 1202 1282 1128.5 c 128,-1,8
 1314 1055 1314 1055 1314 955 c 2,9,-1
 1314 377 l 2,10,11
 1314 272 1314 272 1281.5 194 c 128,-1,12
 1249 116 1249 116 1195.5 64.5 c 128,-1,13
 1142 13 1142 13 1073 -12 c 128,-1,14
 1004 -37 1004 -37 932 -37 c 0,15,16
 872 -37 872 -37 815 -24 c 128,-1,17
 758 -11 758 -11 707 14.5 c 128,-1,18
 656 40 656 40 613.5 78.5 c 128,-1,19
 571 117 571 117 541 167 c 1,20,-1
 495 0 l 1,21,-1
 84 0 l 1,22,-1
 84 1710 l 1,23,-1
 561 1710 l 1,0,-1
561 237 m 1,24,-1
 837 237 l 1,25,-1
 837 1060 l 1,26,-1
 561 1060 l 1,27,-1
 561 237 l 1,24,-1
EndSplineSet
Validated: 1
EndChar

StartChar: c
Encoding: 99 99 70
Width: 1312
GlyphClass: 2
Flags: W
HStem: -37 274<542.597 816.231> 1060 283<542.597 816.769>
VStem: 65 477<237.709 1059.94> 818 447<237.266 451 855 1058.99>
LayerCount: 2
Fore
SplineSet
1265 451 m 1,0,-1
 1265 354 l 2,1,2
 1265 315 1265 315 1262 270.5 c 128,-1,3
 1259 226 1259 226 1243 182.5 c 128,-1,4
 1227 139 1227 139 1191.5 99.5 c 128,-1,5
 1156 60 1156 60 1090.5 29.5 c 128,-1,6
 1025 -1 1025 -1 924.5 -19 c 128,-1,7
 824 -37 824 -37 677 -37 c 0,8,9
 527 -37 527 -37 423.5 -19 c 128,-1,10
 320 -1 320 -1 252 29 c 128,-1,11
 184 59 184 59 146 99 c 128,-1,12
 108 139 108 139 90 182 c 128,-1,13
 72 225 72 225 68.5 269.5 c 128,-1,14
 65 314 65 314 65 354 c 2,15,-1
 65 954 l 2,16,17
 65 994 65 994 68.5 1038 c 128,-1,18
 72 1082 72 1082 90 1125 c 128,-1,19
 108 1168 108 1168 146 1207.5 c 128,-1,20
 184 1247 184 1247 252 1277 c 128,-1,21
 320 1307 320 1307 423.5 1325 c 128,-1,22
 527 1343 527 1343 677 1343 c 0,23,24
 816 1343 816 1343 914 1327 c 128,-1,25
 1012 1311 1012 1311 1077 1283 c 128,-1,26
 1142 1255 1142 1255 1179.5 1219 c 128,-1,27
 1217 1183 1217 1183 1236 1142 c 128,-1,28
 1255 1101 1255 1101 1260 1059 c 128,-1,29
 1265 1017 1265 1017 1265 978 c 2,30,-1
 1265 855 l 1,31,-1
 818 855 l 1,32,-1
 818 1060 l 1,33,-1
 542 1060 l 1,34,-1
 542 237 l 1,35,-1
 818 237 l 1,36,-1
 818 451 l 1,37,-1
 1265 451 l 1,0,-1
EndSplineSet
Validated: 1
EndChar

StartChar: d
Encoding: 100 100 71
Width: 1378
GlyphClass: 2
Flags: W
HStem: -37 274<541 656.538> 0 21G<877.491 1294> 1060 284<541 672.67> 1690 20G<817 1294>
VStem: 64 477<237.343 1059.12> 817 477<237 1060 1199 1710>
LayerCount: 2
Fore
SplineSet
1294 1710 m 1,0,-1
 1294 0 l 1,1,-1
 883 0 l 1,2,-1
 837 167 l 1,3,4
 807 117 807 117 764.5 78.5 c 128,-1,5
 722 40 722 40 671 14.5 c 128,-1,6
 620 -11 620 -11 563 -24 c 128,-1,7
 506 -37 506 -37 446 -37 c 0,8,9
 374 -37 374 -37 305 -12 c 128,-1,10
 236 13 236 13 182.5 64.5 c 128,-1,11
 129 116 129 116 96.5 194 c 128,-1,12
 64 272 64 272 64 377 c 2,13,-1
 64 955 l 2,14,15
 64 1055 64 1055 96 1128.5 c 128,-1,16
 128 1202 128 1202 180.5 1250 c 128,-1,17
 233 1298 233 1298 300.5 1321 c 128,-1,18
 368 1344 368 1344 439 1344 c 0,19,20
 553 1344 553 1344 651.5 1307.5 c 128,-1,21
 750 1271 750 1271 817 1199 c 1,22,-1
 817 1710 l 1,23,-1
 1294 1710 l 1,0,-1
817 1060 m 1,24,-1
 541 1060 l 1,25,-1
 541 237 l 1,26,-1
 817 237 l 1,27,-1
 817 1060 l 1,24,-1
EndSplineSet
Validated: 1
EndChar

StartChar: e
Encoding: 101 101 72
Width: 1322
GlyphClass: 2
Flags: W
HStem: -36 273<562.799 794.551> 579 178<562 798> 1060 283<562.799 795.251>
VStem: 65 497<237.07 579 757 1059.94> 798 467<237.032 450 757 1059.66>
LayerCount: 2
Fore
SplineSet
1264 451 m 1,0,1
 1264 380 1264 380 1259.5 316.5 c 128,-1,2
 1255 253 1255 253 1236 198.5 c 128,-1,3
 1217 144 1217 144 1179.5 101 c 128,-1,4
 1142 58 1142 58 1077 27.5 c 128,-1,5
 1012 -3 1012 -3 914 -19.5 c 128,-1,6
 816 -36 816 -36 677 -36 c 0,7,8
 527 -36 527 -36 423.5 -18 c 128,-1,9
 320 0 320 0 252 30 c 128,-1,10
 184 60 184 60 146 99.5 c 128,-1,11
 108 139 108 139 90 182.5 c 128,-1,12
 72 226 72 226 68.5 270 c 128,-1,13
 65 314 65 314 65 354 c 2,14,-1
 65 954 l 2,15,16
 65 994 65 994 68.5 1038 c 128,-1,17
 72 1082 72 1082 90 1125 c 128,-1,18
 108 1168 108 1168 146 1207.5 c 128,-1,19
 184 1247 184 1247 252 1277 c 128,-1,20
 320 1307 320 1307 423.5 1325 c 128,-1,21
 527 1343 527 1343 677 1343 c 0,22,23
 817 1343 817 1343 915 1325 c 128,-1,24
 1013 1307 1013 1307 1078 1277 c 128,-1,25
 1143 1247 1143 1247 1180.5 1207.5 c 128,-1,26
 1218 1168 1218 1168 1237 1125 c 128,-1,27
 1256 1082 1256 1082 1260.5 1037.5 c 128,-1,28
 1265 993 1265 993 1265 954 c 2,29,-1
 1265 579 l 1,30,-1
 562 579 l 1,31,-1
 562 237 l 1,32,-1
 798 237 l 1,33,-1
 798 450 l 1,34,-1
 1264 451 l 1,0,1
562 757 m 1,35,-1
 798 757 l 1,36,-1
 798 1060 l 1,37,-1
 562 1060 l 1,38,-1
 562 757 l 1,35,-1
EndSplineSet
Validated: 1
EndChar

StartChar: f
Encoding: 102 102 73
Width: 988
GlyphClass: 2
Flags: W
HStem: 0 21G<220 697> 1098 202<13 220 697 981> 1477 257<697 948.359> 1477 206<749.059 973>
VStem: 220 477<0 1098 1300 1476.59>
LayerCount: 2
Fore
SplineSet
220 1300 m 1,0,1
 220 1418 220 1418 251.5 1500.5 c 128,-1,2
 283 1583 283 1583 339.5 1635 c 128,-1,3
 396 1687 396 1687 474 1710.5 c 128,-1,4
 552 1734 552 1734 644 1734 c 0,5,6
 720 1734 720 1734 802.5 1720.5 c 128,-1,7
 885 1707 885 1707 973 1683 c 1,8,-1
 973 1477 l 1,9,-1
 697 1477 l 1,10,-1
 697 1300 l 1,11,-1
 981 1300 l 1,12,-1
 981 1098 l 1,13,-1
 697 1098 l 1,14,-1
 697 0 l 1,15,-1
 220 0 l 1,16,-1
 220 1098 l 1,17,-1
 13 1098 l 1,18,-1
 13 1300 l 1,19,-1
 220 1300 l 1,0,1
EndSplineSet
Validated: 1
EndChar

StartChar: g
Encoding: 103 103 74
Width: 1378
GlyphClass: 2
Flags: W
HStem: -587 299<540.373 815.527> -44 281<541 668.146> 1060 277<541 654.538> 1280 20G<877.491 1294>
VStem: 64 477<237.577 1059.99> 817 477<-216.926 101 237 1060>
LayerCount: 2
Fore
SplineSet
817 101 m 1,0,1
 784 66 784 66 741.5 39 c 128,-1,2
 699 12 699 12 650 -6.5 c 128,-1,3
 601 -25 601 -25 547.5 -34.5 c 128,-1,4
 494 -44 494 -44 439 -44 c 0,5,6
 368 -44 368 -44 300.5 -21 c 128,-1,7
 233 2 233 2 180.5 50 c 128,-1,8
 128 98 128 98 96 171 c 128,-1,9
 64 244 64 244 64 345 c 2,10,-1
 64 923 l 2,11,12
 64 1028 64 1028 96.5 1106 c 128,-1,13
 129 1184 129 1184 182.5 1235.5 c 128,-1,14
 236 1287 236 1287 305 1312 c 128,-1,15
 374 1337 374 1337 446 1337 c 0,16,17
 504 1337 504 1337 561 1324 c 128,-1,18
 618 1311 618 1311 669 1285.5 c 128,-1,19
 720 1260 720 1260 763.5 1221.5 c 128,-1,20
 807 1183 807 1183 837 1133 c 1,21,-1
 883 1300 l 1,22,-1
 1294 1300 l 1,23,-1
 1294 58 l 2,24,25
 1294 -59 1294 -59 1269.5 -152.5 c 128,-1,26
 1245 -246 1245 -246 1201.5 -318 c 128,-1,27
 1158 -390 1158 -390 1099.5 -441 c 128,-1,28
 1041 -492 1041 -492 972.5 -524.5 c 128,-1,29
 904 -557 904 -557 829.5 -572 c 128,-1,30
 755 -587 755 -587 680 -587 c 0,31,32
 612 -587 612 -587 546.5 -575 c 128,-1,33
 481 -563 481 -563 421.5 -540.5 c 128,-1,34
 362 -518 362 -518 312 -486 c 128,-1,35
 262 -454 262 -454 225 -414.5 c 128,-1,36
 188 -375 188 -375 167.5 -329 c 128,-1,37
 147 -283 147 -283 147 -232 c 0,38,39
 147 -210 147 -210 151 -196 c 128,-1,40
 155 -182 155 -182 164 -159 c 1,41,-1
 540 -171 l 1,42,-1
 540 -288 l 1,43,-1
 817 -288 l 1,44,-1
 817 101 l 1,0,1
817 1060 m 1,45,-1
 541 1060 l 1,46,-1
 541 237 l 1,47,-1
 817 237 l 1,48,-1
 817 1060 l 1,45,-1
EndSplineSet
Validated: 1
EndChar

StartChar: h
Encoding: 104 104 75
Width: 1395
GlyphClass: 2
Flags: W
HStem: 0 21G<84 561 837 1314> 1060 283<701.401 837> 1690 20G<84 561>
VStem: 84 477<0 1060 1188 1710> 837 477<0 1059.25>
LayerCount: 2
Fore
SplineSet
84 0 m 1,0,-1
 84 1710 l 1,1,-1
 561 1710 l 1,2,-1
 561 1188 l 1,3,4
 585 1225 585 1225 624 1254 c 128,-1,5
 663 1283 663 1283 712 1302.5 c 128,-1,6
 761 1322 761 1322 817 1332.5 c 128,-1,7
 873 1343 873 1343 932 1343 c 0,8,9
 1002 1343 1002 1343 1070.5 1321 c 128,-1,10
 1139 1299 1139 1299 1193 1253.5 c 128,-1,11
 1247 1208 1247 1208 1280.5 1137 c 128,-1,12
 1314 1066 1314 1066 1314 968 c 2,13,-1
 1314 0 l 1,14,-1
 837 0 l 1,15,-1
 837 1060 l 1,16,-1
 561 1060 l 1,17,-1
 561 0 l 1,18,-1
 84 0 l 1,0,-1
EndSplineSet
Validated: 1
EndChar

StartChar: i
Encoding: 105 105 76
Width: 645
GlyphClass: 2
Flags: W
HStem: 0 21G<84 561> 1280 20G<84 561> 1473 237<84 561>
VStem: 84 477<0 1300 1473 1710>
LayerCount: 2
Fore
SplineSet
561 0 m 1,0,-1
 84 0 l 1,1,-1
 84 1300 l 1,2,-1
 561 1300 l 1,3,-1
 561 0 l 1,0,-1
561 1710 m 1,4,-1
 561 1473 l 1,5,-1
 84 1473 l 1,6,-1
 84 1710 l 1,7,-1
 561 1710 l 1,4,-1
EndSplineSet
Validated: 1
EndChar

StartChar: j
Encoding: 106 106 77
Width: 645
GlyphClass: 2
Flags: W
HStem: -332 266<-106.541 84> -285 219<-113 83.875> 1280 20G<84 561> 1473 237<84 561>
VStem: 84 477<-63.5547 1300 1473 1710>
LayerCount: 2
Fore
SplineSet
84 1300 m 1,0,-1
 561 1300 l 1,1,-1
 561 94 l 2,2,3
 561 -5 561 -5 531 -83.5 c 128,-1,4
 501 -162 501 -162 446 -217.5 c 128,-1,5
 391 -273 391 -273 314.5 -302.5 c 128,-1,6
 238 -332 238 -332 145 -332 c 0,7,8
 85 -332 85 -332 20.5 -320.5 c 128,-1,9
 -44 -309 -44 -309 -113 -285 c 1,10,-1
 -113 -66 l 1,11,-1
 84 -66 l 1,12,-1
 84 1300 l 1,0,-1
561 1710 m 1,13,-1
 561 1473 l 1,14,-1
 84 1473 l 1,15,-1
 84 1710 l 1,16,-1
 561 1710 l 1,13,-1
EndSplineSet
Validated: 1
EndChar

StartChar: k
Encoding: 107 107 78
Width: 1329
GlyphClass: 2
Flags: W
HStem: 0 21G<84 561 826.948 1340> 1280 20G<791.252 1333> 1690 20G<84 561>
VStem: 84 477<0 348 888 1710>
LayerCount: 2
Fore
SplineSet
84 0 m 1,0,-1
 84 1710 l 1,1,-1
 561 1710 l 1,2,-1
 561 888 l 1,3,-1
 803 1300 l 1,4,-1
 1333 1300 l 1,5,-1
 1016 820 l 1,6,-1
 1340 0 l 1,7,-1
 834 0 l 1,8,-1
 663 485 l 1,9,-1
 561 348 l 1,10,-1
 561 0 l 1,11,-1
 84 0 l 1,0,-1
EndSplineSet
Validated: 1
EndChar

StartChar: l
Encoding: 108 108 79
Width: 645
GlyphClass: 2
Flags: W
HStem: 0 21G<84 561> 1690 20G<84 561>
VStem: 84 477<0 1710>
LayerCount: 2
Fore
SplineSet
561 0 m 1,0,-1
 84 0 l 1,1,-1
 84 1710 l 1,2,-1
 561 1710 l 1,3,-1
 561 0 l 1,0,-1
EndSplineSet
Validated: 1
EndChar

StartChar: m
Encoding: 109 109 80
Width: 2068
GlyphClass: 2
Flags: W
HStem: 0 21G<84 541 807 1264 1530 1987> 1060 284<701.052 807 1402.4 1530> 1280 20G<84 480.509>
VStem: 84 457<0 1060> 807 457<0 1060> 1530 457<0 1059.45>
CounterMasks: 1 1c
LayerCount: 2
Fore
SplineSet
84 0 m 1,0,-1
 84 1300 l 1,1,-1
 475 1300 l 1,2,-1
 521 1133 l 1,3,4
 547 1185 547 1185 589 1224.5 c 128,-1,5
 631 1264 631 1264 683 1290.5 c 128,-1,6
 735 1317 735 1317 793 1330.5 c 128,-1,7
 851 1344 851 1344 910 1344 c 0,8,9
 959 1344 959 1344 1006.5 1332.5 c 128,-1,10
 1054 1321 1054 1321 1096 1297.5 c 128,-1,11
 1138 1274 1138 1274 1173 1239 c 128,-1,12
 1208 1204 1208 1204 1232 1157 c 1,13,14
 1260 1203 1260 1203 1302.5 1238 c 128,-1,15
 1345 1273 1345 1273 1396 1296.5 c 128,-1,16
 1447 1320 1447 1320 1504 1332 c 128,-1,17
 1561 1344 1561 1344 1618 1344 c 0,18,19
 1687 1344 1687 1344 1753.5 1321 c 128,-1,20
 1820 1298 1820 1298 1872 1251 c 128,-1,21
 1924 1204 1924 1204 1955.5 1133.5 c 128,-1,22
 1987 1063 1987 1063 1987 968 c 2,23,-1
 1987 0 l 1,24,-1
 1530 0 l 1,25,-1
 1530 1060 l 1,26,-1
 1263 1060 l 1,27,28
 1264 1055 1264 1055 1264 1049.5 c 128,-1,29
 1264 1044 1264 1044 1264 1039 c 2,30,-1
 1264 0 l 1,31,-1
 807 0 l 1,32,-1
 807 1060 l 1,33,-1
 541 1060 l 1,34,-1
 541 0 l 1,35,-1
 84 0 l 1,0,-1
EndSplineSet
Validated: 1
EndChar

StartChar: n
Encoding: 110 110 81
Width: 1395
GlyphClass: 2
Flags: W
HStem: 0 21G<84 561 837 1314> 1060 284<721.082 837> 1280 20G<84 500.509>
VStem: 84 477<0 1060> 837 477<0 1059.59>
LayerCount: 2
Fore
SplineSet
84 0 m 1,0,-1
 84 1300 l 1,1,-1
 495 1300 l 1,2,-1
 541 1133 l 1,3,4
 567 1185 567 1185 609 1224.5 c 128,-1,5
 651 1264 651 1264 703 1290.5 c 128,-1,6
 755 1317 755 1317 814 1330.5 c 128,-1,7
 873 1344 873 1344 934 1344 c 0,8,9
 1005 1344 1005 1344 1073.5 1321 c 128,-1,10
 1142 1298 1142 1298 1195.5 1251.5 c 128,-1,11
 1249 1205 1249 1205 1281.5 1134 c 128,-1,12
 1314 1063 1314 1063 1314 968 c 2,13,-1
 1314 0 l 1,14,-1
 837 0 l 1,15,-1
 837 1060 l 1,16,-1
 561 1060 l 1,17,-1
 561 0 l 1,18,-1
 84 0 l 1,0,-1
EndSplineSet
Validated: 1
EndChar

StartChar: o
Encoding: 111 111 82
Width: 1359
GlyphClass: 2
Flags: W
HStem: -39 276<542.41 814.69> 1060 283<542.41 814.69>
VStem: 64 477<237.083 1058.69> 817 477<237.083 1058.69>
LayerCount: 2
Fore
SplineSet
541 237 m 1,0,-1
 817 237 l 1,1,-1
 817 1060 l 1,2,-1
 541 1060 l 1,3,-1
 541 237 l 1,0,-1
685 -39 m 0,4,5
 535 -39 535 -39 430.5 -21 c 128,-1,6
 326 -3 326 -3 257 27 c 128,-1,7
 188 57 188 57 149.5 97 c 128,-1,8
 111 137 111 137 92 180 c 128,-1,9
 73 223 73 223 68.5 267.5 c 128,-1,10
 64 312 64 312 64 352 c 2,11,-1
 64 952 l 2,12,13
 64 992 64 992 68.5 1036.5 c 128,-1,14
 73 1081 73 1081 92 1124.5 c 128,-1,15
 111 1168 111 1168 149.5 1207.5 c 128,-1,16
 188 1247 188 1247 257 1277 c 128,-1,17
 326 1307 326 1307 430.5 1325 c 128,-1,18
 535 1343 535 1343 685 1343 c 0,19,20
 834 1343 834 1343 937.5 1325 c 128,-1,21
 1041 1307 1041 1307 1108.5 1277 c 128,-1,22
 1176 1247 1176 1247 1213.5 1207.5 c 128,-1,23
 1251 1168 1251 1168 1269 1124.5 c 128,-1,24
 1287 1081 1287 1081 1290.5 1036.5 c 128,-1,25
 1294 992 1294 992 1294 952 c 2,26,-1
 1294 352 l 2,27,28
 1294 312 1294 312 1290.5 267.5 c 128,-1,29
 1287 223 1287 223 1269 180 c 128,-1,30
 1251 137 1251 137 1213.5 97 c 128,-1,31
 1176 57 1176 57 1108.5 27 c 128,-1,32
 1041 -3 1041 -3 937.5 -21 c 128,-1,33
 834 -39 834 -39 685 -39 c 0,4,5
EndSplineSet
Validated: 1
EndChar

StartChar: p
Encoding: 112 112 83
Width: 1378
GlyphClass: 2
Flags: W
HStem: -408 21G<84 561> -44 280<709.854 837> 1060 277<722.462 837> 1280 20G<84 500.509>
VStem: 84 477<-408 101 236 1060> 837 477<237.577 1059.99>
LayerCount: 2
Fore
SplineSet
84 -408 m 1,0,-1
 84 1300 l 1,1,-1
 495 1300 l 1,2,-1
 541 1133 l 1,3,4
 571 1183 571 1183 614 1221.5 c 128,-1,5
 657 1260 657 1260 708 1285.5 c 128,-1,6
 759 1311 759 1311 816 1324 c 128,-1,7
 873 1337 873 1337 932 1337 c 0,8,9
 1004 1337 1004 1337 1073 1312 c 128,-1,10
 1142 1287 1142 1287 1195.5 1235.5 c 128,-1,11
 1249 1184 1249 1184 1281.5 1106 c 128,-1,12
 1314 1028 1314 1028 1314 923 c 2,13,-1
 1314 345 l 2,14,15
 1314 244 1314 244 1282 171 c 128,-1,16
 1250 98 1250 98 1197.5 50 c 128,-1,17
 1145 2 1145 2 1077.5 -21 c 128,-1,18
 1010 -44 1010 -44 939 -44 c 0,19,20
 884 -44 884 -44 830.5 -34.5 c 128,-1,21
 777 -25 777 -25 728 -6.5 c 128,-1,22
 679 12 679 12 636.5 39 c 128,-1,23
 594 66 594 66 561 101 c 1,24,-1
 561 -408 l 1,25,-1
 84 -408 l 1,0,-1
561 236 m 1,26,-1
 837 236 l 1,27,-1
 837 1060 l 1,28,-1
 561 1060 l 1,29,-1
 561 236 l 1,26,-1
EndSplineSet
Validated: 1
EndChar

StartChar: q
Encoding: 113 113 84
Width: 1378
GlyphClass: 2
Flags: W
HStem: -408 21G<817 1294> -44 281<541 668.146> 1060 277<541 655.528> 1280 20G<877.491 1294>
VStem: 64 477<237.577 1059.99> 817 477<-408 101 237 1060>
LayerCount: 2
Fore
SplineSet
817 -408 m 1,0,-1
 817 101 l 1,1,2
 784 66 784 66 741.5 39 c 128,-1,3
 699 12 699 12 650 -6.5 c 128,-1,4
 601 -25 601 -25 547.5 -34.5 c 128,-1,5
 494 -44 494 -44 439 -44 c 0,6,7
 368 -44 368 -44 300.5 -21 c 128,-1,8
 233 2 233 2 180.5 50 c 128,-1,9
 128 98 128 98 96 171 c 128,-1,10
 64 244 64 244 64 345 c 2,11,-1
 64 923 l 2,12,13
 64 1028 64 1028 96.5 1106 c 128,-1,14
 129 1184 129 1184 182.5 1235.5 c 128,-1,15
 236 1287 236 1287 305 1312 c 128,-1,16
 374 1337 374 1337 446 1337 c 0,17,18
 504 1337 504 1337 561.5 1324 c 128,-1,19
 619 1311 619 1311 670 1285.5 c 128,-1,20
 721 1260 721 1260 764 1221.5 c 128,-1,21
 807 1183 807 1183 837 1133 c 1,22,-1
 883 1300 l 1,23,-1
 1294 1300 l 1,24,-1
 1294 -408 l 1,25,-1
 817 -408 l 1,0,-1
817 1060 m 1,26,-1
 541 1060 l 1,27,-1
 541 237 l 1,28,-1
 817 237 l 1,29,-1
 817 1060 l 1,26,-1
EndSplineSet
Validated: 1
EndChar

StartChar: r
Encoding: 114 114 85
Width: 865
GlyphClass: 2
Flags: W
HStem: 0 21G<84 561> 1280 20G<84 470.463 821.5 839>
VStem: 84 477<0 869>
LayerCount: 2
Fore
SplineSet
84 0 m 1,0,-1
 84 1300 l 1,1,-1
 465 1300 l 1,2,-1
 521 1095 l 1,3,4
 536 1171 536 1171 574.5 1219 c 128,-1,5
 613 1267 613 1267 660 1294 c 128,-1,6
 707 1321 707 1321 755.5 1331 c 128,-1,7
 804 1341 804 1341 839 1343 c 1,8,-1
 839 949 l 1,9,-1
 561 869 l 1,10,-1
 561 0 l 1,11,-1
 84 0 l 1,0,-1
EndSplineSet
Validated: 1
EndChar

StartChar: s
Encoding: 115 115 86
Width: 1305
GlyphClass: 2
Flags: W
HStem: -36 273<515.521 784.724> 1060 283<514.054 788.791>
VStem: 36 477<879.791 1059.25> 789 477<237.18 428.626>
LayerCount: 2
Fore
SplineSet
789 404 m 2,0,1
 789 416 789 416 756.5 425.5 c 128,-1,2
 724 435 724 435 671 445.5 c 128,-1,3
 618 456 618 456 550.5 470.5 c 128,-1,4
 483 485 483 485 412.5 507.5 c 128,-1,5
 342 530 342 530 274.5 563 c 128,-1,6
 207 596 207 596 154 644.5 c 128,-1,7
 101 693 101 693 68.5 758.5 c 128,-1,8
 36 824 36 824 36 912 c 0,9,10
 36 976 36 976 46 1033 c 128,-1,11
 56 1090 56 1090 81.5 1138.5 c 128,-1,12
 107 1187 107 1187 152 1225 c 128,-1,13
 197 1263 197 1263 267 1289.5 c 128,-1,14
 337 1316 337 1316 435 1330 c 0,15,16
 526 1343 526 1343 648 1343 c 0,17,18
 657 1343 657 1343 666 1343 c 0,19,20
 791 1343 791 1343 893 1330 c 1,21,22
 987 1317 987 1317 1050.5 1294.5 c 128,-1,23
 1114 1272 1114 1272 1151.5 1240 c 128,-1,24
 1189 1208 1189 1208 1208.5 1167.5 c 128,-1,25
 1228 1127 1228 1127 1233.5 1078.5 c 128,-1,26
 1239 1030 1239 1030 1239 975 c 2,27,-1
 1239 889 l 1,28,-1
 789 919 l 1,29,-1
 789 1060 l 1,30,-1
 513 1060 l 1,31,-1
 513 907 l 2,32,33
 513 894 513 894 545.5 883 c 128,-1,34
 578 872 578 872 631 860 c 128,-1,35
 684 848 684 848 751.5 832 c 128,-1,36
 819 816 819 816 889.5 792.5 c 128,-1,37
 960 769 960 769 1027.5 735.5 c 128,-1,38
 1095 702 1095 702 1148 655.5 c 128,-1,39
 1201 609 1201 609 1233.5 546 c 128,-1,40
 1266 483 1266 483 1266 401 c 0,41,42
 1266 288 1266 288 1240.5 205 c 128,-1,43
 1215 122 1215 122 1146 68 c 1,44,45
 1079 14 1079 14 955 -12 c 0,46,47
 841 -36 841 -36 668 -36 c 0,48,49
 654 -36 654 -36 640 -36 c 0,50,51
 517 -36 517 -36 416 -22 c 0,52,53
 323 -9 323 -9 259 14.5 c 128,-1,54
 195 38 195 38 157 70.5 c 128,-1,55
 119 103 119 103 99 143.5 c 128,-1,56
 79 184 79 184 72.5 232.5 c 128,-1,57
 66 281 66 281 66 335 c 2,58,-1
 66 413 l 1,59,-1
 513 378 l 1,60,-1
 513 237 l 1,61,-1
 789 237 l 1,62,-1
 789 404 l 2,0,1
EndSplineSet
Validated: 1
EndChar

StartChar: t
Encoding: 116 116 87
Width: 820
GlyphClass: 2
Flags: W
HStem: 0 21G<162 639> 1100 200<19 162 639 803> 1575 20G<162 639>
VStem: 162 477<0 1100 1300 1595>
LayerCount: 2
Fore
SplineSet
639 0 m 1,0,-1
 162 0 l 1,1,-1
 162 1100 l 1,2,-1
 19 1100 l 1,3,-1
 19 1300 l 1,4,-1
 162 1300 l 1,5,-1
 162 1595 l 1,6,-1
 639 1595 l 1,7,-1
 639 1300 l 1,8,-1
 803 1300 l 1,9,-1
 803 1100 l 1,10,-1
 639 1100 l 1,11,-1
 639 0 l 1,0,-1
EndSplineSet
Validated: 1
EndChar

StartChar: u
Encoding: 117 117 88
Width: 1394
GlyphClass: 2
Flags: W
HStem: -44 281<557 672.918> 0 21G<893.491 1310>
VStem: 80 477<237.836 1300> 833 477<237 1300>
LayerCount: 2
Fore
SplineSet
1310 1300 m 1,0,-1
 1310 0 l 1,1,-1
 899 0 l 1,2,-1
 853 167 l 1,3,4
 827 115 827 115 785 75.5 c 128,-1,5
 743 36 743 36 691 9.5 c 128,-1,6
 639 -17 639 -17 580 -30.5 c 128,-1,7
 521 -44 521 -44 460 -44 c 0,8,9
 389 -44 389 -44 320.5 -21 c 128,-1,10
 252 2 252 2 198.5 48.5 c 128,-1,11
 145 95 145 95 112.5 166 c 128,-1,12
 80 237 80 237 80 332 c 2,13,-1
 80 1300 l 1,14,-1
 557 1300 l 1,15,-1
 557 237 l 1,16,-1
 833 237 l 1,17,-1
 833 1300 l 1,18,-1
 1310 1300 l 1,0,-1
EndSplineSet
Validated: 1
EndChar

StartChar: v
Encoding: 118 118 89
Width: 1231
GlyphClass: 2
Flags: W
HStem: 0 21G<306.2 925.785> 1280 20G<-1 448.13 781.833 1232>
LayerCount: 2
Fore
SplineSet
-1 1300 m 1,0,-1
 445 1300 l 1,1,-1
 614 220 l 1,2,-1
 785 1300 l 1,3,-1
 1232 1300 l 1,4,-1
 921 0 l 1,5,-1
 311 0 l 1,6,-1
 -1 1300 l 1,0,-1
EndSplineSet
Validated: 1
EndChar

StartChar: w
Encoding: 119 119 90
Width: 1926
GlyphClass: 2
Flags: W
HStem: 0 21G<259.062 799.56 1114.4 1659.09> 1280 20G<7 464.34 754.42 1163.54 1462.44 1921>
LayerCount: 2
Fore
SplineSet
956 899 m 1,0,-1
 796 0 l 1,1,-1
 263 0 l 1,2,-1
 7 1300 l 1,3,-1
 462 1300 l 1,4,-1
 579 300 l 1,5,-1
 758 1300 l 1,6,-1
 1160 1300 l 1,7,-1
 1337 300 l 1,8,-1
 1465 1300 l 1,9,-1
 1921 1300 l 1,10,-1
 1655 0 l 1,11,-1
 1118 0 l 1,12,-1
 956 899 l 1,0,-1
EndSplineSet
Validated: 1
EndChar

StartChar: x
Encoding: 120 120 91
Width: 1170
GlyphClass: 2
Flags: W
HStem: 0 21G<-10 420.049 749.951 1180> 1280 20G<-10 423.494 745.55 1180>
LayerCount: 2
Fore
SplineSet
-10 0 m 1,0,-1
 307 682 l 1,1,-1
 -10 1300 l 1,2,-1
 416 1300 l 1,3,-1
 585 849 l 1,4,-1
 753 1300 l 1,5,-1
 1180 1300 l 1,6,-1
 863 682 l 1,7,-1
 1180 0 l 1,8,-1
 757 0 l 1,9,-1
 585 488 l 1,10,-1
 413 0 l 1,11,-1
 -10 0 l 1,0,-1
EndSplineSet
Validated: 1
EndChar

StartChar: y
Encoding: 121 121 92
Width: 1394
GlyphClass: 2
Flags: W
HStem: -587 352<557.455 832.275> -44 281<557 684.164>
VStem: 80 477<237.577 1300> 833 477<-216.926 101 237 1300>
LayerCount: 2
Fore
SplineSet
557 237 m 1,0,-1
 833 237 l 1,1,-1
 833 1300 l 1,2,-1
 1310 1300 l 1,3,-1
 1310 58 l 2,4,5
 1310 -59 1310 -59 1285.5 -152.5 c 128,-1,6
 1261 -246 1261 -246 1217.5 -318 c 128,-1,7
 1174 -390 1174 -390 1115 -441 c 128,-1,8
 1056 -492 1056 -492 987.5 -524.5 c 128,-1,9
 919 -557 919 -557 844 -572 c 128,-1,10
 769 -587 769 -587 693 -587 c 0,11,12
 625 -587 625 -587 559.5 -575 c 128,-1,13
 494 -563 494 -563 434.5 -540.5 c 128,-1,14
 375 -518 375 -518 325 -486 c 128,-1,15
 275 -454 275 -454 238 -414.5 c 128,-1,16
 201 -375 201 -375 180.5 -329 c 128,-1,17
 160 -283 160 -283 160 -232 c 0,18,19
 160 -210 160 -210 164 -187 c 128,-1,20
 168 -164 168 -164 177 -141 c 1,21,-1
 556 -171 l 1,22,-1
 556 -235 l 1,23,-1
 834 -235 l 1,24,-1
 834 101 l 1,25,26
 801 66 801 66 758 39 c 128,-1,27
 715 12 715 12 666 -6.5 c 128,-1,28
 617 -25 617 -25 563.5 -34.5 c 128,-1,29
 510 -44 510 -44 455 -44 c 0,30,31
 384 -44 384 -44 316.5 -21 c 128,-1,32
 249 2 249 2 196.5 50 c 128,-1,33
 144 98 144 98 112 171 c 128,-1,34
 80 244 80 244 80 345 c 2,35,-1
 80 1300 l 1,36,-1
 557 1300 l 1,37,-1
 557 237 l 1,0,-1
EndSplineSet
Validated: 1
EndChar

StartChar: z
Encoding: 122 122 93
Width: 976
GlyphClass: 2
Flags: W
HStem: 0 246<602 930> 1051 249<64 367>
LayerCount: 2
Fore
SplineSet
64 1300 m 1,0,-1
 924 1300 l 1,1,-1
 924 1079 l 1,2,-1
 602 246 l 1,3,-1
 930 246 l 1,4,-1
 930 0 l 1,5,-1
 42 0 l 1,6,-1
 42 233 l 1,7,-1
 367 1051 l 1,8,-1
 64 1051 l 1,9,-1
 64 1300 l 1,0,-1
EndSplineSet
Validated: 1
EndChar

StartChar: braceleft
Encoding: 123 123 94
Width: 929
GlyphClass: 2
Flags: W
HStem: -330 279<787.499 967> 1646 279<787.083 967>
LayerCount: 2
Fore
SplineSet
703 1348 m 0,0,1
 690 1242 690 1242 684 1156.5 c 128,-1,2
 678 1071 678 1071 668 1003.5 c 128,-1,3
 658 936 658 936 638.5 885 c 128,-1,4
 619 834 619 834 578 797 c 1,5,6
 618 760 618 760 638 709.5 c 128,-1,7
 658 659 658 659 668 591.5 c 128,-1,8
 678 524 678 524 684 438.5 c 128,-1,9
 690 353 690 353 703 247 c 0,10,11
 717 136 717 136 739 76 c 128,-1,12
 761 16 761 16 793.5 -12.5 c 128,-1,13
 826 -41 826 -41 868.5 -46 c 128,-1,14
 911 -51 911 -51 967 -51 c 1,15,-1
 967 -330 l 1,16,17
 862 -330 862 -330 769 -323 c 128,-1,18
 676 -316 676 -316 596.5 -292.5 c 128,-1,19
 517 -269 517 -269 451.5 -223.5 c 128,-1,20
 386 -178 386 -178 335 -100.5 c 128,-1,21
 284 -23 284 -23 248 91.5 c 128,-1,22
 212 206 212 206 192 367 c 0,23,24
 183 439 183 439 175.5 489 c 128,-1,25
 168 539 168 539 159.5 571 c 128,-1,26
 151 603 151 603 140.5 621 c 128,-1,27
 130 639 130 639 114 647 c 128,-1,28
 98 655 98 655 75.5 656.5 c 128,-1,29
 53 658 53 658 21 658 c 1,30,-1
 21 937 l 1,31,32
 53 937 53 937 75.5 938.5 c 128,-1,33
 98 940 98 940 114 948 c 128,-1,34
 130 956 130 956 140.5 974 c 128,-1,35
 151 992 151 992 159.5 1024 c 128,-1,36
 168 1056 168 1056 175.5 1106 c 128,-1,37
 183 1156 183 1156 192 1228 c 0,38,39
 212 1389 212 1389 248 1503.5 c 128,-1,40
 284 1618 284 1618 335 1695.5 c 128,-1,41
 386 1773 386 1773 451.5 1818.5 c 128,-1,42
 517 1864 517 1864 596.5 1887.5 c 128,-1,43
 676 1911 676 1911 769 1918 c 128,-1,44
 862 1925 862 1925 967 1925 c 1,45,-1
 967 1646 l 1,46,47
 911 1646 911 1646 868 1641 c 128,-1,48
 825 1636 825 1636 793 1607.5 c 128,-1,49
 761 1579 761 1579 738.5 1519 c 128,-1,50
 716 1459 716 1459 703 1348 c 0,0,1
EndSplineSet
Validated: 1
EndChar

StartChar: bar
Encoding: 124 124 95
Width: 766
GlyphClass: 2
Flags: W
VStem: 96 574<-100 1795>
LayerCount: 2
Fore
SplineSet
670 1795 m 1,0,-1
 670 -100 l 1,1,-1
 96 -100 l 1,2,-1
 96 1795 l 1,3,-1
 670 1795 l 1,0,-1
EndSplineSet
Validated: 1
EndChar

StartChar: braceright
Encoding: 125 125 96
Width: 930
GlyphClass: 2
Flags: W
HStem: -330 279<-38 140.917> 1646 279<-38 141.501>
LayerCount: 2
Fore
SplineSet
226 1348 m 0,0,1
 212 1459 212 1459 190 1519 c 128,-1,2
 168 1579 168 1579 135.5 1607.5 c 128,-1,3
 103 1636 103 1636 60 1641 c 128,-1,4
 17 1646 17 1646 -38 1646 c 1,5,-1
 -38 1925 l 1,6,7
 66 1925 66 1925 158.5 1918 c 128,-1,8
 251 1911 251 1911 330.5 1887.5 c 128,-1,9
 410 1864 410 1864 476 1818.5 c 128,-1,10
 542 1773 542 1773 593.5 1695.5 c 128,-1,11
 645 1618 645 1618 681 1503.5 c 128,-1,12
 717 1389 717 1389 737 1228 c 0,13,14
 746 1156 746 1156 753 1106 c 128,-1,15
 760 1056 760 1056 768.5 1024 c 128,-1,16
 777 992 777 992 787.5 974 c 128,-1,17
 798 956 798 956 814 948 c 128,-1,18
 830 940 830 940 852.5 938.5 c 128,-1,19
 875 937 875 937 908 937 c 1,20,-1
 908 658 l 1,21,22
 875 658 875 658 852.5 656.5 c 128,-1,23
 830 655 830 655 814 647 c 128,-1,24
 798 639 798 639 787.5 621 c 128,-1,25
 777 603 777 603 768.5 571 c 128,-1,26
 760 539 760 539 753 489 c 128,-1,27
 746 439 746 439 737 367 c 0,28,29
 717 206 717 206 681 91.5 c 128,-1,30
 645 -23 645 -23 593.5 -100.5 c 128,-1,31
 542 -178 542 -178 476 -223.5 c 128,-1,32
 410 -269 410 -269 330.5 -292.5 c 128,-1,33
 251 -316 251 -316 158.5 -323 c 128,-1,34
 66 -330 66 -330 -38 -330 c 1,35,-1
 -38 -51 l 1,36,37
 17 -51 17 -51 60 -46 c 128,-1,38
 103 -41 103 -41 135 -12.5 c 128,-1,39
 167 16 167 16 189.5 76 c 128,-1,40
 212 136 212 136 226 247 c 0,41,42
 239 353 239 353 245 438.5 c 128,-1,43
 251 524 251 524 261 591.5 c 128,-1,44
 271 659 271 659 290.5 709.5 c 128,-1,45
 310 760 310 760 351 797 c 1,46,47
 310 834 310 834 290.5 885 c 128,-1,48
 271 936 271 936 261 1003.5 c 128,-1,49
 251 1071 251 1071 245 1156.5 c 128,-1,50
 239 1242 239 1242 226 1348 c 0,0,1
EndSplineSet
Validated: 1
EndChar

StartChar: asciitilde
Encoding: 126 126 97
Width: 1266
GlyphClass: 2
Flags: W
HStem: 616 443<346.534 513.094> 806 446<756.9 916.026>
VStem: 52 268<1082.08 1227> 943 269<642 781.985>
LayerCount: 2
Fore
SplineSet
844 806 m 0,0,1
 819 806 819 806 797.5 792 c 128,-1,2
 776 778 776 778 751.5 757 c 128,-1,3
 727 736 727 736 698 711 c 128,-1,4
 669 686 669 686 630 665 c 128,-1,5
 591 644 591 644 539.5 630 c 128,-1,6
 488 616 488 616 419 616 c 0,7,8
 330 616 330 616 261.5 642 c 128,-1,9
 193 668 193 668 146.5 736 c 128,-1,10
 100 804 100 804 76 922.5 c 128,-1,11
 52 1041 52 1041 52 1227 c 1,12,-1
 320 1227 l 1,13,14
 320 1194 320 1194 325 1163.5 c 128,-1,15
 330 1133 330 1133 342 1110 c 128,-1,16
 354 1087 354 1087 373 1073 c 128,-1,17
 392 1059 392 1059 421 1059 c 0,18,19
 446 1059 446 1059 470 1073.5 c 128,-1,20
 494 1088 494 1088 520 1109 c 128,-1,21
 546 1130 546 1130 576.5 1155.5 c 128,-1,22
 607 1181 607 1181 646 1202 c 128,-1,23
 685 1223 685 1223 733.5 1237.5 c 128,-1,24
 782 1252 782 1252 844 1252 c 0,25,26
 933 1252 933 1252 1002 1226.5 c 128,-1,27
 1071 1201 1071 1201 1117.5 1133 c 128,-1,28
 1164 1065 1164 1065 1188 946.5 c 128,-1,29
 1212 828 1212 828 1212 642 c 1,30,-1
 943 642 l 1,31,32
 943 670 943 670 938 699 c 128,-1,33
 933 728 933 728 921.5 752 c 128,-1,34
 910 776 910 776 891 791 c 128,-1,35
 872 806 872 806 844 806 c 0,0,1
EndSplineSet
Validated: 1
EndChar

StartChar: exclamdown
Encoding: 161 161 99
Width: 679
GlyphClass: 2
Flags: W
HStem: 0 21G<84 599> 1207 397<81 596>
VStem: 81 515<1207 1604> 146 395<854.877 1112>
LayerCount: 2
Fore
SplineSet
541 1112 m 1,0,-1
 599 0 l 1,1,-1
 84 0 l 1,2,-1
 146 1112 l 1,3,-1
 541 1112 l 1,0,-1
81 1604 m 1,4,-1
 596 1604 l 1,5,-1
 596 1207 l 1,6,-1
 81 1207 l 1,7,-1
 81 1604 l 1,4,-1
EndSplineSet
Validated: 1
EndChar

StartChar: cent
Encoding: 162 162 100
Width: 1296
GlyphClass: 2
Flags: W
HStem: 1575 20G<448 877>
VStem: 52 477<238.139 1059.07> 448 429<-304 -18.302 1322.76 1595> 804 448<237.156 451 855 1059.71>
LayerCount: 2
Fore
SplineSet
448 -25 m 1,0,1
 350 -12 350 -12 282 12 c 128,-1,2
 214 36 214 36 170 68 c 128,-1,3
 126 100 126 100 102 137 c 128,-1,4
 78 174 78 174 67 213.5 c 128,-1,5
 56 253 56 253 54 292 c 128,-1,6
 52 331 52 331 52 367 c 2,7,-1
 52 862 l 2,8,9
 52 905 52 905 54 951.5 c 128,-1,10
 56 998 56 998 67 1043.5 c 128,-1,11
 78 1089 78 1089 102 1132 c 128,-1,12
 126 1175 126 1175 170 1212.5 c 128,-1,13
 214 1250 214 1250 281.5 1280.5 c 128,-1,14
 349 1311 349 1311 448 1331 c 1,15,-1
 448 1595 l 1,16,-1
 877 1595 l 1,17,-1
 877 1331 l 1,18,19
 971 1315 971 1315 1035.5 1285.5 c 128,-1,20
 1100 1256 1100 1256 1141.5 1217.5 c 128,-1,21
 1183 1179 1183 1179 1205.5 1133.5 c 128,-1,22
 1228 1088 1228 1088 1238.5 1040.5 c 128,-1,23
 1249 993 1249 993 1250.5 945.5 c 128,-1,24
 1252 898 1252 898 1252 855 c 1,25,-1
 804 855 l 1,26,-1
 804 1060 l 1,27,-1
 529 1060 l 1,28,-1
 529 237 l 1,29,-1
 804 237 l 1,30,-1
 804 451 l 1,31,-1
 1252 451 l 1,32,-1
 1252 367 l 2,33,34
 1252 331 1252 331 1250 292 c 128,-1,35
 1248 253 1248 253 1237.5 214 c 128,-1,36
 1227 175 1227 175 1204.5 137.5 c 128,-1,37
 1182 100 1182 100 1140.5 68 c 128,-1,38
 1099 36 1099 36 1034.5 12 c 128,-1,39
 970 -12 970 -12 877 -25 c 1,40,-1
 877 -304 l 1,41,-1
 448 -304 l 1,42,-1
 448 -25 l 1,0,1
EndSplineSet
Validated: 1
EndChar

StartChar: sterling
Encoding: 163 163 101
Width: 1490
GlyphClass: 2
Flags: W
HStem: 0.5 236.5<815.042 948> 718 222<52 195 672 1218> 1358 274<672.672 947.357>
VStem: 195 477<297.651 718 940 1355.94> 948 477<238.267 562 1070 1357.04>
LayerCount: 2
Fore
SplineSet
1218 718 m 1,0,-1
 672 718 l 1,1,-1
 672 237 l 1,2,-1
 948 237 l 1,3,-1
 948 562 l 1,4,-1
 1425 562 l 1,5,-1
 1425 385 l 2,6,7
 1425 345 1425 345 1423 301 c 128,-1,8
 1421 257 1421 257 1411.5 214 c 128,-1,9
 1402 171 1402 171 1381 132.5 c 128,-1,10
 1360 94 1360 94 1322 64.5 c 128,-1,11
 1284 35 1284 35 1226 17.5 c 128,-1,12
 1168 0 1168 0 1084 0 c 0,13,14
 985 0 985 0 918 14.5 c 128,-1,15
 851 29 851 29 806.5 49 c 128,-1,16
 762 69 762 69 736 91.5 c 128,-1,17
 710 114 710 114 692 130 c 1,18,19
 664 98 664 98 638.5 75.5 c 128,-1,20
 613 53 613 53 582 39 c 128,-1,21
 551 25 551 25 509 17 c 128,-1,22
 467 9 467 9 405.5 5 c 128,-1,23
 344 1 344 1 257.5 0.5 c 128,-1,24
 171 0 171 0 52 0 c 1,25,-1
 52 265 l 1,26,27
 92 270 92 270 123 283 c 0,28,29
 150 294 150 294 172.5 315.5 c 128,-1,30
 195 337 195 337 195 375 c 2,31,-1
 195 718 l 1,32,-1
 52 718 l 1,33,-1
 52 940 l 1,34,-1
 195 940 l 1,35,-1
 195 1064 l 2,36,37
 195 1172 195 1172 203 1256.5 c 128,-1,38
 211 1341 211 1341 235 1404 c 128,-1,39
 259 1467 259 1467 302 1510.5 c 128,-1,40
 345 1554 345 1554 415.5 1581 c 128,-1,41
 486 1608 486 1608 587.5 1620 c 128,-1,42
 689 1632 689 1632 829 1632 c 0,43,44
 974 1632 974 1632 1074.5 1614.5 c 128,-1,45
 1175 1597 1175 1597 1241 1567.5 c 128,-1,46
 1307 1538 1307 1538 1344 1499.5 c 128,-1,47
 1381 1461 1381 1461 1399 1418 c 128,-1,48
 1417 1375 1417 1375 1421 1331 c 128,-1,49
 1425 1287 1425 1287 1425 1247 c 2,50,-1
 1425 1070 l 1,51,-1
 948 1070 l 1,52,-1
 948 1358 l 1,53,-1
 672 1358 l 1,54,-1
 672 940 l 1,55,-1
 1218 940 l 1,56,-1
 1218 718 l 1,0,-1
EndSplineSet
Validated: 1
EndChar

StartChar: currency
Encoding: 164 164 102
Width: 1277
GlyphClass: 2
Flags: W
HStem: 299 270<387.722 886.564> 1069 274<386.789 886.431>
VStem: 72.5 313.5<570.014 1067.51> 888 319<569.959 1067.59>
LayerCount: 2
Fore
SplineSet
303 1286 m 1,0,1
 363 1312 363 1312 445.5 1327.5 c 128,-1,2
 528 1343 528 1343 640 1343 c 0,3,4
 749 1343 749 1343 830.5 1328 c 128,-1,5
 912 1313 912 1313 973 1287 c 1,6,-1
 1078 1414 l 1,7,-1
 1151 1330 l 1,8,-1
 1069 1231 l 1,9,10
 1121 1189 1121 1189 1149 1136.5 c 128,-1,11
 1177 1084 1177 1084 1190 1027.5 c 128,-1,12
 1203 971 1203 971 1205 913.5 c 128,-1,13
 1207 856 1207 856 1207 804 c 0,14,15
 1207 765 1207 765 1204.5 712.5 c 128,-1,16
 1202 660 1202 660 1186.5 604.5 c 128,-1,17
 1171 549 1171 549 1138 495 c 128,-1,18
 1105 441 1105 441 1044 398 c 1,19,-1
 1151 272 l 1,20,-1
 1078 188 l 1,21,-1
 946 346 l 1,22,23
 886 324 886 324 811.5 311.5 c 128,-1,24
 737 299 737 299 640 299 c 0,25,26
 540 299 540 299 463.5 312 c 128,-1,27
 387 325 387 325 330 348 c 1,28,-1
 196 188 l 1,29,-1
 124 272 l 1,30,-1
 231 400 l 1,31,32
 171 443 171 443 138 497 c 128,-1,33
 105 551 105 551 90 606 c 128,-1,34
 75 661 75 661 72.5 713 c 128,-1,35
 70 765 70 765 70 804 c 0,36,37
 70 856 70 856 72 913 c 128,-1,38
 74 970 74 970 87 1026 c 128,-1,39
 100 1082 100 1082 128 1134.5 c 128,-1,40
 156 1187 156 1187 207 1229 c 1,41,-1
 124 1330 l 1,42,-1
 196 1414 l 1,43,-1
 303 1286 l 1,0,1
386 569 m 1,44,-1
 888 569 l 1,45,-1
 888 1069 l 1,46,-1
 386 1069 l 1,47,-1
 386 569 l 1,44,-1
EndSplineSet
Validated: 1
EndChar

StartChar: yen
Encoding: 165 165 103
Width: 1429
GlyphClass: 2
Flags: W
HStem: 0 21G<427 999> 299 143<129 427 999 1303> 585 143<129 334 1097 1303> 1575 20G<31 519.707 910.149 1398>
LayerCount: 2
Fore
SplineSet
427 442 m 1,0,-1
 427 459 l 1,1,-1
 383 585 l 1,2,-1
 129 585 l 1,3,-1
 129 728 l 1,4,-1
 334 728 l 1,5,-1
 31 1595 l 1,6,-1
 515 1595 l 1,7,-1
 712 758 l 1,8,-1
 915 1595 l 1,9,-1
 1398 1595 l 1,10,-1
 1097 728 l 1,11,-1
 1303 728 l 1,12,-1
 1303 585 l 1,13,-1
 1047 585 l 1,14,-1
 999 449 l 1,15,-1
 999 442 l 1,16,-1
 1303 442 l 1,17,-1
 1303 299 l 1,18,-1
 999 299 l 1,19,-1
 999 0 l 1,20,-1
 427 0 l 1,21,-1
 427 299 l 1,22,-1
 129 299 l 1,23,-1
 129 442 l 1,24,-1
 427 442 l 1,0,-1
EndSplineSet
Validated: 1
EndChar

StartChar: brokenbar
Encoding: 166 166 104
Width: 710
GlyphClass: 2
Flags: W
VStem: 97 516<-255 656 797 1708>
LayerCount: 2
Fore
SplineSet
613 656 m 1,0,-1
 613 -255 l 1,1,-1
 97 -255 l 1,2,-1
 97 656 l 1,3,-1
 613 656 l 1,0,-1
613 1708 m 1,4,-1
 613 797 l 1,5,-1
 97 797 l 1,6,-1
 97 1708 l 1,7,-1
 613 1708 l 1,4,-1
EndSplineSet
Validated: 1
EndChar

StartChar: section
Encoding: 167 167 105
Width: 1363
GlyphClass: 2
Flags: W
HStem: -39 276<545.759 817.996> 493 257<545 821> 973 254.5<564.319 821> 1498 274<566.401 838.254>
VStem: 68 477<238.141 426 750.072 957.371> 72 492<1238.97 1497.82> 821 477<238.57 487.975 765.519 972.44>
LayerCount: 2
Fore
SplineSet
72 1331 m 0,0,1
 72 1395 72 1395 78.5 1452.5 c 128,-1,2
 85 1510 85 1510 107.5 1559 c 128,-1,3
 130 1608 130 1608 171.5 1647.5 c 128,-1,4
 213 1687 213 1687 283.5 1714.5 c 128,-1,5
 354 1742 354 1742 457 1757 c 128,-1,6
 560 1772 560 1772 704 1772 c 0,7,8
 837 1772 837 1772 932.5 1759.5 c 128,-1,9
 1028 1747 1028 1747 1093 1724 c 128,-1,10
 1158 1701 1158 1701 1196.5 1668.5 c 128,-1,11
 1235 1636 1235 1636 1255.5 1596 c 128,-1,12
 1276 1556 1276 1556 1282 1509.5 c 128,-1,13
 1288 1463 1288 1463 1288 1412 c 0,14,15
 1288 1386 1288 1386 1287.5 1360 c 128,-1,16
 1287 1334 1287 1334 1287 1307 c 1,17,-1
 840 1307 l 1,18,-1
 840 1498 l 1,19,-1
 564 1498 l 1,20,-1
 564 1249 l 1,21,22
 574 1240 574 1240 611.5 1237 c 128,-1,23
 649 1234 649 1234 702.5 1232 c 128,-1,24
 756 1230 756 1230 821 1227.5 c 128,-1,25
 886 1225 886 1225 952.5 1216 c 128,-1,26
 1019 1207 1019 1207 1081 1189.5 c 128,-1,27
 1143 1172 1143 1172 1191.5 1141.5 c 128,-1,28
 1240 1111 1240 1111 1269 1064 c 128,-1,29
 1298 1017 1298 1017 1298 950 c 0,30,31
 1298 895 1298 895 1288.5 854.5 c 128,-1,32
 1279 814 1279 814 1264 784.5 c 128,-1,33
 1249 755 1249 755 1231.5 736.5 c 128,-1,34
 1214 718 1214 718 1198.5 707 c 128,-1,35
 1183 696 1183 696 1172 691.5 c 128,-1,36
 1161 687 1161 687 1159 686 c 1,37,38
 1162 685 1162 685 1184 672 c 128,-1,39
 1206 659 1206 659 1231.5 627.5 c 128,-1,40
 1257 596 1257 596 1277.5 541.5 c 128,-1,41
 1298 487 1298 487 1298 402 c 0,42,43
 1298 338 1298 338 1290.5 280.5 c 128,-1,44
 1283 223 1283 223 1260.5 174 c 128,-1,45
 1238 125 1238 125 1195.5 85.5 c 128,-1,46
 1153 46 1153 46 1083 18.5 c 128,-1,47
 1013 -9 1013 -9 911 -24 c 128,-1,48
 809 -39 809 -39 668 -39 c 0,49,50
 528 -39 528 -39 429 -26.5 c 128,-1,51
 330 -14 330 -14 263 9 c 128,-1,52
 196 32 196 32 157.5 64.5 c 128,-1,53
 119 97 119 97 99 137 c 128,-1,54
 79 177 79 177 73.5 223.5 c 128,-1,55
 68 270 68 270 68 321 c 2,56,-1
 68 426 l 1,57,-1
 545 426 l 1,58,-1
 545 237 l 1,59,-1
 821 237 l 1,60,-1
 821 484 l 1,61,62
 801 489 801 489 733.5 491 c 128,-1,63
 666 493 666 493 569 493 c 0,64,65
 518 493 518 493 461.5 494.5 c 128,-1,66
 405 496 405 496 349 504 c 128,-1,67
 293 512 293 512 242.5 529.5 c 128,-1,68
 192 547 192 547 153 579 c 128,-1,69
 114 611 114 611 91 660.5 c 128,-1,70
 68 710 68 710 68 783 c 0,71,72
 68 859 68 859 89 909.5 c 128,-1,73
 110 960 110 960 136 990 c 128,-1,74
 162 1020 162 1020 184 1032.5 c 128,-1,75
 206 1045 206 1045 209 1046 c 1,76,77
 206 1047 206 1047 184.5 1061.5 c 128,-1,78
 163 1076 163 1076 138 1109 c 128,-1,79
 113 1142 113 1142 92.5 1196.5 c 128,-1,80
 72 1251 72 1251 72 1331 c 0,0,1
821 750 m 1,81,-1
 821 973 l 1,82,-1
 545 973 l 1,83,-1
 545 750 l 1,84,-1
 821 750 l 1,81,-1
EndSplineSet
Validated: 1
EndChar

StartChar: dieresis
Encoding: 168 168 106
Width: 774
GlyphClass: 2
Flags: W
HStem: 101 237<-209 196 408 813>
VStem: -209 405<101 338> 408 405<101 338>
LayerCount: 2
Fore
SplineSet
196 338 m 1,0,-1
 196 101 l 1,1,-1
 -209 101 l 1,2,-1
 -209 338 l 1,3,-1
 196 338 l 1,0,-1
813 338 m 1,4,-1
 813 101 l 1,5,-1
 408 101 l 1,6,-1
 408 338 l 1,7,-1
 813 338 l 1,4,-1
EndSplineSet
Validated: 1
EndChar

StartChar: copyright
Encoding: 169 169 107
Width: 1743
GlyphClass: 2
Flags: W
HStem: -102 171<533.982 1207.33> 215 160<782.258 930.55> 1274 160<781.719 930.55> 1573 176<532.725 1210.24>
VStem: 64 217<270.38 1373.53> 469 312<375.133 1273.86> 932 310<375.387 752 915 1273.92> 1463 216<272.789 1371.58>
LayerCount: 2
Fore
SplineSet
872 -102 m 256,0,1
 719 -102 719 -102 603 -81.5 c 128,-1,2
 487 -61 487 -61 401.5 -26.5 c 128,-1,3
 316 8 316 8 257.5 54 c 128,-1,4
 199 100 199 100 161.5 152 c 128,-1,5
 124 204 124 204 104 258.5 c 128,-1,6
 84 313 84 313 75 364 c 128,-1,7
 66 415 66 415 65 460.5 c 128,-1,8
 64 506 64 506 64 539 c 2,9,-1
 64 1116 l 2,10,11
 64 1149 64 1149 65 1193.5 c 128,-1,12
 66 1238 66 1238 75 1289 c 128,-1,13
 84 1340 84 1340 104 1393.5 c 128,-1,14
 124 1447 124 1447 161.5 1498.5 c 128,-1,15
 199 1550 199 1550 257.5 1595.5 c 128,-1,16
 316 1641 316 1641 401.5 1675 c 128,-1,17
 487 1709 487 1709 603 1729 c 128,-1,18
 719 1749 719 1749 872 1749 c 256,19,20
 1025 1749 1025 1749 1141 1729 c 128,-1,21
 1257 1709 1257 1709 1342.5 1675 c 128,-1,22
 1428 1641 1428 1641 1486 1595.5 c 128,-1,23
 1544 1550 1544 1550 1581.5 1498.5 c 128,-1,24
 1619 1447 1619 1447 1639 1393.5 c 128,-1,25
 1659 1340 1659 1340 1668 1289 c 128,-1,26
 1677 1238 1677 1238 1678 1193.5 c 128,-1,27
 1679 1149 1679 1149 1679 1116 c 2,28,-1
 1679 539 l 2,29,30
 1679 506 1679 506 1678 460.5 c 128,-1,31
 1677 415 1677 415 1668 364 c 128,-1,32
 1659 313 1659 313 1639 258.5 c 128,-1,33
 1619 204 1619 204 1581.5 152 c 128,-1,34
 1544 100 1544 100 1486 54 c 128,-1,35
 1428 8 1428 8 1342.5 -26.5 c 128,-1,36
 1257 -61 1257 -61 1141 -81.5 c 128,-1,37
 1025 -102 1025 -102 872 -102 c 256,0,1
872 69 m 0,38,39
 1012 69 1012 69 1110 88.5 c 128,-1,40
 1208 108 1208 108 1273.5 140.5 c 128,-1,41
 1339 173 1339 173 1377 215.5 c 128,-1,42
 1415 258 1415 258 1434 304 c 128,-1,43
 1453 350 1453 350 1458 396 c 128,-1,44
 1463 442 1463 442 1463 482 c 2,45,-1
 1463 1165 l 2,46,47
 1463 1205 1463 1205 1458 1250.5 c 128,-1,48
 1453 1296 1453 1296 1434 1341 c 128,-1,49
 1415 1386 1415 1386 1377 1428 c 128,-1,50
 1339 1470 1339 1470 1273.5 1502.5 c 128,-1,51
 1208 1535 1208 1535 1110 1554 c 128,-1,52
 1012 1573 1012 1573 872 1573 c 0,53,54
 731 1573 731 1573 632.5 1554 c 128,-1,55
 534 1535 534 1535 468 1502.5 c 128,-1,56
 402 1470 402 1470 365 1428 c 128,-1,57
 328 1386 328 1386 309 1341 c 128,-1,58
 290 1296 290 1296 285.5 1250 c 128,-1,59
 281 1204 281 1204 281 1165 c 2,60,-1
 281 482 l 2,61,62
 281 442 281 442 285.5 396 c 128,-1,63
 290 350 290 350 309 304 c 128,-1,64
 328 258 328 258 365 215.5 c 128,-1,65
 402 173 402 173 468 140.5 c 128,-1,66
 534 108 534 108 632.5 88.5 c 128,-1,67
 731 69 731 69 872 69 c 0,38,39
781 375 m 1,68,-1
 932 375 l 1,69,-1
 932 752 l 1,70,-1
 1242 752 l 1,71,-1
 1242 485 l 2,72,73
 1242 457 1242 457 1240 426.5 c 128,-1,74
 1238 396 1238 396 1227 366 c 128,-1,75
 1216 336 1216 336 1192.5 308.5 c 128,-1,76
 1169 281 1169 281 1125 260.5 c 128,-1,77
 1081 240 1081 240 1013.5 227.5 c 128,-1,78
 946 215 946 215 848 215 c 0,79,80
 755 215 755 215 690.5 227.5 c 128,-1,81
 626 240 626 240 583.5 261 c 128,-1,82
 541 282 541 282 518 309.5 c 128,-1,83
 495 337 495 337 484 367.5 c 128,-1,84
 473 398 473 398 471 429 c 128,-1,85
 469 460 469 460 469 489 c 2,86,-1
 469 1159 l 2,87,88
 469 1188 469 1188 471 1219.5 c 128,-1,89
 473 1251 473 1251 484 1281.5 c 128,-1,90
 495 1312 495 1312 518 1339.5 c 128,-1,91
 541 1367 541 1367 583.5 1388 c 128,-1,92
 626 1409 626 1409 690 1421.5 c 128,-1,93
 754 1434 754 1434 848 1434 c 0,94,95
 946 1434 946 1434 1013.5 1421.5 c 128,-1,96
 1081 1409 1081 1409 1125 1388.5 c 128,-1,97
 1169 1368 1169 1368 1192.5 1340.5 c 128,-1,98
 1216 1313 1216 1313 1227 1282.5 c 128,-1,99
 1238 1252 1238 1252 1240 1221.5 c 128,-1,100
 1242 1191 1242 1191 1242 1163 c 2,101,-1
 1242 915 l 1,102,-1
 932 915 l 1,103,-1
 932 1274 l 1,104,-1
 781 1274 l 1,105,-1
 781 375 l 1,68,-1
EndSplineSet
Validated: 1
EndChar

StartChar: guillemotleft
Encoding: 171 171 109
Width: 1614
GlyphClass: 2
Flags: W
HStem: 0 21G<726.084 755 1508.08 1537> 1577 20G<726.663 755 1508.66 1537>
LayerCount: 2
Fore
SplineSet
48 1098 m 1,0,-1
 755 1597 l 1,1,-1
 755 1092 l 1,2,-1
 297 797 l 1,3,-1
 755 504 l 1,4,-1
 755 0 l 1,5,-1
 48 489 l 1,6,-1
 48 1098 l 1,0,-1
830 1098 m 1,7,-1
 1537 1597 l 1,8,-1
 1537 1092 l 1,9,-1
 1079 797 l 1,10,-1
 1537 504 l 1,11,-1
 1537 0 l 1,12,-1
 830 489 l 1,13,-1
 830 1098 l 1,7,-1
EndSplineSet
Validated: 1
EndChar

StartChar: logicalnot
Encoding: 172 172 110
Width: 1136
GlyphClass: 2
Flags: W
HStem: 680 380<56 840>
VStem: 840 207<237 680>
LayerCount: 2
Fore
SplineSet
1047 237 m 1,0,-1
 840 237 l 1,1,-1
 840 680 l 1,2,-1
 56 680 l 1,3,-1
 56 1060 l 1,4,-1
 1047 1060 l 1,5,-1
 1047 237 l 1,0,-1
EndSplineSet
Validated: 1
EndChar

StartChar: registered
Encoding: 174 174 111
Width: 1743
GlyphClass: 2
Flags: W
HStem: -102 171<533.982 1207.33> 756 159<799 954> 1274 160<799 953.782> 1573 176<532.725 1210.24>
VStem: 64 217<270.38 1373.53> 487 312<279 756 915 1274> 954 306<279 755.633> 1463 216<272.789 1371.58>
LayerCount: 2
Fore
SplineSet
872 -102 m 256,0,1
 719 -102 719 -102 603 -81.5 c 128,-1,2
 487 -61 487 -61 401.5 -26.5 c 128,-1,3
 316 8 316 8 257.5 54 c 128,-1,4
 199 100 199 100 161.5 152 c 128,-1,5
 124 204 124 204 104 258.5 c 128,-1,6
 84 313 84 313 75 364 c 128,-1,7
 66 415 66 415 65 460.5 c 128,-1,8
 64 506 64 506 64 539 c 2,9,-1
 64 1116 l 2,10,11
 64 1149 64 1149 65 1193.5 c 128,-1,12
 66 1238 66 1238 75 1289 c 128,-1,13
 84 1340 84 1340 104 1393.5 c 128,-1,14
 124 1447 124 1447 161.5 1498.5 c 128,-1,15
 199 1550 199 1550 257.5 1595.5 c 128,-1,16
 316 1641 316 1641 401.5 1675 c 128,-1,17
 487 1709 487 1709 603 1729 c 128,-1,18
 719 1749 719 1749 872 1749 c 256,19,20
 1025 1749 1025 1749 1141 1729 c 128,-1,21
 1257 1709 1257 1709 1342.5 1675 c 128,-1,22
 1428 1641 1428 1641 1486 1595.5 c 128,-1,23
 1544 1550 1544 1550 1581.5 1498.5 c 128,-1,24
 1619 1447 1619 1447 1639 1393.5 c 128,-1,25
 1659 1340 1659 1340 1668 1289 c 128,-1,26
 1677 1238 1677 1238 1678 1193.5 c 128,-1,27
 1679 1149 1679 1149 1679 1116 c 2,28,-1
 1679 539 l 2,29,30
 1679 506 1679 506 1678 460.5 c 128,-1,31
 1677 415 1677 415 1668 364 c 128,-1,32
 1659 313 1659 313 1639 258.5 c 128,-1,33
 1619 204 1619 204 1581.5 152 c 128,-1,34
 1544 100 1544 100 1486 54 c 128,-1,35
 1428 8 1428 8 1342.5 -26.5 c 128,-1,36
 1257 -61 1257 -61 1141 -81.5 c 128,-1,37
 1025 -102 1025 -102 872 -102 c 256,0,1
954 756 m 1,38,-1
 799 756 l 1,39,-1
 799 279 l 1,40,-1
 487 279 l 1,41,-1
 487 1434 l 1,42,-1
 866 1434 l 2,43,44
 964 1434 964 1434 1031.5 1421.5 c 128,-1,45
 1099 1409 1099 1409 1143 1388.5 c 128,-1,46
 1187 1368 1187 1368 1210.5 1340.5 c 128,-1,47
 1234 1313 1234 1313 1245 1282.5 c 128,-1,48
 1256 1252 1256 1252 1258 1221.5 c 128,-1,49
 1260 1191 1260 1191 1260 1163 c 2,50,-1
 1260 1010 l 2,51,52
 1260 963 1260 963 1246 933 c 128,-1,53
 1232 903 1232 903 1211 884.5 c 128,-1,54
 1190 866 1190 866 1165.5 856.5 c 128,-1,55
 1141 847 1141 847 1120 842 c 1,56,57
 1144 839 1144 839 1171 829 c 128,-1,58
 1198 819 1198 819 1220.5 796.5 c 128,-1,59
 1243 774 1243 774 1258 737 c 128,-1,60
 1273 700 1273 700 1273 643 c 2,61,-1
 1275 279 l 1,62,-1
 954 279 l 1,63,-1
 954 756 l 1,38,-1
799 915 m 1,64,-1
 954 915 l 1,65,-1
 954 1274 l 1,66,-1
 799 1274 l 1,67,-1
 799 915 l 1,64,-1
872 69 m 0,68,69
 1012 69 1012 69 1110 88.5 c 128,-1,70
 1208 108 1208 108 1273.5 140.5 c 128,-1,71
 1339 173 1339 173 1377 215.5 c 128,-1,72
 1415 258 1415 258 1434 304 c 128,-1,73
 1453 350 1453 350 1458 396 c 128,-1,74
 1463 442 1463 442 1463 482 c 2,75,-1
 1463 1165 l 2,76,77
 1463 1205 1463 1205 1458 1250.5 c 128,-1,78
 1453 1296 1453 1296 1434 1341 c 128,-1,79
 1415 1386 1415 1386 1377 1428 c 128,-1,80
 1339 1470 1339 1470 1273.5 1502.5 c 128,-1,81
 1208 1535 1208 1535 1110 1554 c 128,-1,82
 1012 1573 1012 1573 872 1573 c 0,83,84
 731 1573 731 1573 632.5 1554 c 128,-1,85
 534 1535 534 1535 468 1502.5 c 128,-1,86
 402 1470 402 1470 365 1428 c 128,-1,87
 328 1386 328 1386 309 1341 c 128,-1,88
 290 1296 290 1296 285.5 1250 c 128,-1,89
 281 1204 281 1204 281 1165 c 2,90,-1
 281 482 l 2,91,92
 281 442 281 442 285.5 396 c 128,-1,93
 290 350 290 350 309 304 c 128,-1,94
 328 258 328 258 365 215.5 c 128,-1,95
 402 173 402 173 468 140.5 c 128,-1,96
 534 108 534 108 632.5 88.5 c 128,-1,97
 731 69 731 69 872 69 c 0,68,69
EndSplineSet
Validated: 1
EndChar

StartChar: degree
Encoding: 176 176 112
Width: 722
GlyphClass: 2
Flags: W
HStem: 1081 183<277.296 446.758> 1483 178<277.296 447.745>
VStem: 40 213<1290.4 1457.53> 471 211<1289.54 1458.37>
LayerCount: 2
Fore
SplineSet
360 1661 m 0,0,1
 432 1661 432 1661 491 1638 c 128,-1,2
 550 1615 550 1615 592.5 1576 c 128,-1,3
 635 1537 635 1537 658.5 1484.5 c 128,-1,4
 682 1432 682 1432 682 1372 c 0,5,6
 682 1311 682 1311 658.5 1258 c 128,-1,7
 635 1205 635 1205 592.5 1165.5 c 128,-1,8
 550 1126 550 1126 491 1103.5 c 128,-1,9
 432 1081 432 1081 360 1081 c 0,10,11
 289 1081 289 1081 230.5 1103.5 c 128,-1,12
 172 1126 172 1126 129.5 1165.5 c 128,-1,13
 87 1205 87 1205 63.5 1258 c 128,-1,14
 40 1311 40 1311 40 1372 c 0,15,16
 40 1432 40 1432 63.5 1484.5 c 128,-1,17
 87 1537 87 1537 129.5 1576 c 128,-1,18
 172 1615 172 1615 230.5 1638 c 128,-1,19
 289 1661 289 1661 360 1661 c 0,0,1
362 1483 m 0,20,21
 310 1483 310 1483 281.5 1451.5 c 128,-1,22
 253 1420 253 1420 253 1374 c 0,23,24
 253 1329 253 1329 281.5 1296.5 c 128,-1,25
 310 1264 310 1264 362 1264 c 0,26,27
 416 1264 416 1264 443.5 1296.5 c 128,-1,28
 471 1329 471 1329 471 1374 c 0,29,30
 471 1420 471 1420 443.5 1451.5 c 128,-1,31
 416 1483 416 1483 362 1483 c 0,20,21
EndSplineSet
Validated: 1
EndChar

StartChar: plusminus
Encoding: 177 177 113
Width: 1115
GlyphClass: 2
Flags: W
HStem: 0 328<176 929> 712 350<44 355 761 1072>
VStem: 355 406<434 712 1062 1358>
LayerCount: 2
Fore
SplineSet
355 1062 m 1,0,-1
 355 1358 l 1,1,-1
 761 1358 l 1,2,-1
 761 1062 l 1,3,-1
 1072 1062 l 1,4,-1
 1072 712 l 1,5,-1
 761 712 l 1,6,-1
 761 434 l 1,7,-1
 355 434 l 1,8,-1
 355 712 l 1,9,-1
 44 712 l 1,10,-1
 44 1062 l 1,11,-1
 355 1062 l 1,0,-1
929 328 m 1,12,-1
 929 0 l 1,13,-1
 176 0 l 1,14,-1
 176 328 l 1,15,-1
 929 328 l 1,12,-1
EndSplineSet
Validated: 1
EndChar

StartChar: twosuperior
Encoding: 178 178 114
Width: 1023
GlyphClass: 2
Flags: W
HStem: 0 240<470 928>
VStem: 70 400<240 350.34 851 1085.15> 553 418<810.383 1085.16>
LayerCount: 2
Fore
SplineSet
70 851 m 1,0,1
 70 920 70 920 75 980.5 c 128,-1,2
 80 1041 80 1041 95.5 1091.5 c 128,-1,3
 111 1142 111 1142 140.5 1182 c 128,-1,4
 170 1222 170 1222 219 1249.5 c 128,-1,5
 268 1277 268 1277 340 1291.5 c 128,-1,6
 412 1306 412 1306 512 1306 c 0,7,8
 660 1306 660 1306 750.5 1276 c 128,-1,9
 841 1246 841 1246 890 1191 c 128,-1,10
 939 1136 939 1136 955 1059.5 c 128,-1,11
 971 983 971 983 971 890 c 0,12,13
 971 777 971 777 949.5 700.5 c 128,-1,14
 928 624 928 624 892.5 574 c 128,-1,15
 857 524 857 524 812 494 c 128,-1,16
 767 464 767 464 720.5 444.5 c 128,-1,17
 674 425 674 425 629 410.5 c 128,-1,18
 584 396 584 396 548.5 375.5 c 128,-1,19
 513 355 513 355 491.5 324 c 128,-1,20
 470 293 470 293 470 240 c 1,21,-1
 928 240 l 1,22,-1
 928 0 l 1,23,-1
 70 0 l 1,24,-1
 70 242 l 2,25,26
 70 366 70 366 91 454 c 128,-1,27
 112 542 112 542 145.5 602 c 128,-1,28
 179 662 179 662 222.5 698.5 c 128,-1,29
 266 735 266 735 311.5 756 c 128,-1,30
 357 777 357 777 400.5 786.5 c 128,-1,31
 444 796 444 796 477.5 802 c 128,-1,32
 511 808 511 808 532 815 c 128,-1,33
 553 822 553 822 553 838 c 2,34,-1
 553 1086 l 1,35,-1
 470 1086 l 1,36,-1
 470 851 l 1,37,-1
 70 851 l 1,0,1
EndSplineSet
Validated: 1
EndChar

StartChar: threesuperior
Encoding: 179 179 115
Width: 1045
GlyphClass: 2
Flags: W
HStem: -30 219<461.363 556.262> 566 180<396 558> 1091 217<460.919 556.262>
VStem: 60 400<189.964 491 820 1089.49> 558 417<190.236 565.808 746.186 1090.39>
LayerCount: 2
Fore
SplineSet
60 820 m 1,0,1
 60 900 60 900 65.5 967.5 c 128,-1,2
 71 1035 71 1035 88 1089.5 c 128,-1,3
 105 1144 105 1144 136 1185 c 128,-1,4
 167 1226 167 1226 217.5 1253 c 128,-1,5
 268 1280 268 1280 341 1294 c 128,-1,6
 414 1308 414 1308 516 1308 c 256,7,8
 618 1308 618 1308 691.5 1293 c 128,-1,9
 765 1278 765 1278 816 1251 c 128,-1,10
 867 1224 867 1224 898 1186 c 128,-1,11
 929 1148 929 1148 946.5 1102 c 128,-1,12
 964 1056 964 1056 969.5 1003 c 128,-1,13
 975 950 975 950 975 894 c 0,14,15
 975 822 975 822 959.5 776.5 c 128,-1,16
 944 731 944 731 926 704 c 1,17,18
 903 672 903 672 877 656 c 1,19,20
 904 641 904 641 926 610 c 0,21,22
 944 584 944 584 959.5 537.5 c 128,-1,23
 975 491 975 491 975 418 c 0,24,25
 975 360 975 360 969.5 304 c 128,-1,26
 964 248 964 248 946.5 198 c 128,-1,27
 929 148 929 148 898 106 c 128,-1,28
 867 64 867 64 816 34 c 128,-1,29
 765 4 765 4 691.5 -13 c 128,-1,30
 618 -30 618 -30 516 -30 c 0,31,32
 415 -30 415 -30 341.5 -15 c 128,-1,33
 268 0 268 0 217.5 30 c 128,-1,34
 167 60 167 60 136 104 c 128,-1,35
 105 148 105 148 88 206 c 128,-1,36
 71 264 71 264 65.5 335.5 c 128,-1,37
 60 407 60 407 60 492 c 1,38,-1
 460 491 l 1,39,-1
 460 189 l 1,40,-1
 558 189 l 1,41,-1
 558 566 l 1,42,-1
 396 566 l 1,43,-1
 396 746 l 1,44,-1
 558 746 l 1,45,-1
 558 1091 l 1,46,-1
 460 1091 l 1,47,-1
 460 820 l 1,48,-1
 60 820 l 1,0,1
EndSplineSet
Validated: 1
EndChar

StartChar: acute
Encoding: 180 180 116
Width: 1706
GlyphClass: 2
Flags: W
HStem: 41 649
LayerCount: 2
Fore
SplineSet
1363 266 m 1,0,-1
 537 41 l 1,1,-1
 472 167 l 1,2,-1
 1197 690 l 1,3,-1
 1363 266 l 1,0,-1
EndSplineSet
Validated: 1
EndChar

StartChar: mu
Encoding: 181 181 117
Width: 1397
GlyphClass: 2
Flags: W
HStem: 0 21G<894.895 1313> 1280 20G<84 560 836 1313>
VStem: 84 476<-345 -16 237 1300> 836 477<237 1300>
LayerCount: 2
Fore
SplineSet
84 1300 m 1,0,-1
 560 1300 l 1,1,-1
 560 237 l 1,2,-1
 836 237 l 1,3,-1
 836 1300 l 1,4,-1
 1313 1300 l 1,5,-1
 1313 0 l 1,6,-1
 902 0 l 1,7,-1
 875 76 l 1,8,9
 849 56 849 56 810.5 41.5 c 128,-1,10
 772 27 772 27 728 16 c 128,-1,11
 684 5 684 5 639 -2.5 c 128,-1,12
 594 -10 594 -10 556 -16 c 1,13,-1
 556 -345 l 1,14,-1
 84 -345 l 1,15,-1
 84 1300 l 1,0,-1
EndSplineSet
Validated: 1
EndChar

StartChar: paragraph
Encoding: 182 182 118
Width: 1198
GlyphClass: 2
Flags: W
HStem: 0 21G<521 758 857 1093> 1575 20G<550.5 1093>
VStem: 38 1055<870.968 1369.04> 521 237<0 658> 857 236<0 658>
LayerCount: 2
Fore
SplineSet
521 659 m 1,0,1
 383 659 383 659 290 692.5 c 128,-1,2
 197 726 197 726 141 785.5 c 128,-1,3
 85 845 85 845 61.5 927 c 128,-1,4
 38 1009 38 1009 38 1107 c 0,5,6
 38 1180 38 1180 47 1245 c 128,-1,7
 56 1310 56 1310 80 1364 c 128,-1,8
 104 1418 104 1418 145 1461 c 128,-1,9
 186 1504 186 1504 249.5 1534 c 128,-1,10
 313 1564 313 1564 402 1579.5 c 128,-1,11
 491 1595 491 1595 610 1595 c 2,12,-1
 1093 1595 l 1,13,-1
 1093 0 l 1,14,-1
 857 0 l 1,15,-1
 857 658 l 1,16,-1
 758 658 l 1,17,-1
 758 0 l 1,18,-1
 521 0 l 1,19,-1
 521 659 l 1,0,1
EndSplineSet
Validated: 1
EndChar

StartChar: periodcentered
Encoding: 183 183 119
Width: 624
GlyphClass: 2
Flags: W
HStem: 655 467<83 541>
VStem: 83 458<655 1122>
LayerCount: 2
Fore
SplineSet
541 655 m 1,0,-1
 83 655 l 1,1,-1
 83 1122 l 1,2,-1
 541 1122 l 1,3,-1
 541 655 l 1,0,-1
EndSplineSet
Validated: 1
EndChar

StartChar: cedilla
Encoding: 184 184 120
Width: 1456
GlyphClass: 2
Flags: W
HStem: -782 180<689.358 833.798> -288 296<533 797>
VStem: 385 303<-601.394 -415> 836 302<-601.209 -288.445>
LayerCount: 2
Fore
SplineSet
533 8 m 1,0,-1
 797 8 l 1,1,-1
 797 -106 l 1,2,3
 879 -106 879 -106 936.5 -118 c 128,-1,4
 994 -130 994 -130 1032 -150.5 c 128,-1,5
 1070 -171 1070 -171 1091.5 -197 c 128,-1,6
 1113 -223 1113 -223 1123 -252 c 128,-1,7
 1133 -281 1133 -281 1135.5 -310.5 c 128,-1,8
 1138 -340 1138 -340 1138 -366 c 2,9,-1
 1138 -522 l 2,10,11
 1138 -548 1138 -548 1135.5 -578 c 128,-1,12
 1133 -608 1133 -608 1121.5 -636.5 c 128,-1,13
 1110 -665 1110 -665 1086.5 -691.5 c 128,-1,14
 1063 -718 1063 -718 1021 -738 c 128,-1,15
 979 -758 979 -758 916 -770 c 128,-1,16
 853 -782 853 -782 762 -782 c 0,17,18
 670 -782 670 -782 606 -770 c 128,-1,19
 542 -758 542 -758 500 -738 c 128,-1,20
 458 -718 458 -718 435 -691.5 c 128,-1,21
 412 -665 412 -665 401 -636.5 c 128,-1,22
 390 -608 390 -608 387.5 -578.5 c 128,-1,23
 385 -549 385 -549 385 -522 c 2,24,-1
 385 -415 l 1,25,-1
 688 -415 l 1,26,-1
 688 -602 l 1,27,-1
 836 -602 l 1,28,-1
 836 -288 l 1,29,-1
 533 -288 l 1,30,-1
 533 8 l 1,0,-1
EndSplineSet
Validated: 1
EndChar

StartChar: onesuperior
Encoding: 185 185 121
Width: 732
GlyphClass: 2
Flags: W
HStem: 0 21G<171 631> 1081 195<34 171>
VStem: 171 460<0 1081>
LayerCount: 2
Fore
SplineSet
631 1276 m 1,0,-1
 631 0 l 1,1,-1
 171 0 l 1,2,-1
 171 1081 l 1,3,-1
 34 1081 l 1,4,-1
 34 1276 l 1,5,-1
 631 1276 l 1,0,-1
EndSplineSet
Validated: 1
EndChar

StartChar: guillemotright
Encoding: 187 187 123
Width: 1614
GlyphClass: 2
Flags: W
HStem: 0 21G<76 104.916 858 886.916> 1577 20G<76 104.337 858 886.337>
LayerCount: 2
Fore
SplineSet
1565 1098 m 1,0,-1
 1565 489 l 1,1,-1
 858 0 l 1,2,-1
 858 504 l 1,3,-1
 1316 797 l 1,4,-1
 858 1092 l 1,5,-1
 858 1597 l 1,6,-1
 1565 1098 l 1,0,-1
783 1098 m 1,7,-1
 783 489 l 1,8,-1
 76 0 l 1,9,-1
 76 504 l 1,10,-1
 534 797 l 1,11,-1
 76 1092 l 1,12,-1
 76 1597 l 1,13,-1
 783 1098 l 1,7,-1
EndSplineSet
Validated: 1
EndChar

StartChar: onequarter
Encoding: 188 188 124
Width: 2474
GlyphClass: 2
Flags: W
HStem: 0 22G<660 1157.99 2082 2416> 195 288<1906 2082> 1416 195<37 174> 1575 20G<974.013 1472>
VStem: 174 460<335 1416> 2082 334<1 195 483 751>
LayerCount: 2
Fore
SplineSet
2416 1 m 1,0,-1
 2082 1 l 1,1,-1
 2082 195 l 1,2,-1
 1479 195 l 1,3,-1
 1479 527 l 1,4,-1
 1685 1277 l 1,5,-1
 2071 1277 l 1,6,-1
 1906 527 l 1,7,-1
 1906 483 l 1,8,-1
 2082 483 l 1,9,-1
 2082 751 l 1,10,-1
 2416 751 l 1,11,-1
 2416 1 l 1,0,-1
634 1611 m 1,12,-1
 634 335 l 1,13,-1
 174 335 l 1,14,-1
 174 1416 l 1,15,-1
 37 1416 l 1,16,-1
 37 1611 l 1,17,-1
 634 1611 l 1,12,-1
978 1595 m 1,18,-1
 1472 1595 l 1,19,-1
 1154 0 l 1,20,-1
 660 0 l 1,21,-1
 978 1595 l 1,18,-1
EndSplineSet
Validated: 1
EndChar

StartChar: onehalf
Encoding: 189 189 125
Width: 2495
GlyphClass: 2
Flags: W
HStem: 0 240<1943 2401> 1410 195<37 174>
VStem: 174 460<329 1410> 1543 400<240 350.34 851 1085.15> 2026 418<810.383 1085.16>
LayerCount: 2
Fore
SplineSet
634 1605 m 1,0,-1
 634 329 l 1,1,-1
 174 329 l 1,2,-1
 174 1410 l 1,3,-1
 37 1410 l 1,4,-1
 37 1605 l 1,5,-1
 634 1605 l 1,0,-1
1543 851 m 1,6,7
 1543 920 1543 920 1548 980.5 c 128,-1,8
 1553 1041 1553 1041 1568.5 1091.5 c 128,-1,9
 1584 1142 1584 1142 1613.5 1182 c 128,-1,10
 1643 1222 1643 1222 1692 1249.5 c 128,-1,11
 1741 1277 1741 1277 1813 1291.5 c 128,-1,12
 1885 1306 1885 1306 1985 1306 c 0,13,14
 2133 1306 2133 1306 2223.5 1276 c 128,-1,15
 2314 1246 2314 1246 2363 1191 c 128,-1,16
 2412 1136 2412 1136 2428 1059.5 c 128,-1,17
 2444 983 2444 983 2444 890 c 0,18,19
 2444 777 2444 777 2422.5 700.5 c 128,-1,20
 2401 624 2401 624 2365.5 574 c 128,-1,21
 2330 524 2330 524 2285 494 c 128,-1,22
 2240 464 2240 464 2193.5 444.5 c 128,-1,23
 2147 425 2147 425 2102 410.5 c 128,-1,24
 2057 396 2057 396 2021.5 375.5 c 128,-1,25
 1986 355 1986 355 1964.5 324 c 128,-1,26
 1943 293 1943 293 1943 240 c 1,27,-1
 2401 240 l 1,28,-1
 2401 0 l 1,29,-1
 1543 0 l 1,30,-1
 1543 242 l 2,31,32
 1543 366 1543 366 1564 454 c 128,-1,33
 1585 542 1585 542 1618.5 602 c 128,-1,34
 1652 662 1652 662 1695.5 698.5 c 128,-1,35
 1739 735 1739 735 1784.5 756 c 128,-1,36
 1830 777 1830 777 1873.5 786.5 c 128,-1,37
 1917 796 1917 796 1950.5 802 c 128,-1,38
 1984 808 1984 808 2005 815 c 128,-1,39
 2026 822 2026 822 2026 838 c 2,40,-1
 2026 1086 l 1,41,-1
 1943 1086 l 1,42,-1
 1943 851 l 1,43,-1
 1543 851 l 1,6,7
974 1595 m 1,44,-1
 1468 1595 l 1,45,-1
 1150 0 l 1,46,-1
 656 0 l 1,47,-1
 974 1595 l 1,44,-1
EndSplineSet
Validated: 1
EndChar

StartChar: threequarters
Encoding: 190 190 126
Width: 2715
GlyphClass: 2
Flags: W
HStem: 0 21G<934 1431.99> 88 288<2162 2338> 291 219<452.363 547.262> 887 180<387 549> 1412 217<451.919 547.262> 1575 20G<1248.01 1746>
VStem: 51 400<510.964 812 1141 1410.49> 549 417<511.236 886.808 1067.19 1411.39> 2338 334<-106 88 376 644>
LayerCount: 2
Fore
SplineSet
2672 -106 m 1,0,-1
 2338 -106 l 1,1,-1
 2338 88 l 1,2,-1
 1735 88 l 1,3,-1
 1735 420 l 1,4,-1
 1941 1170 l 1,5,-1
 2327 1170 l 1,6,-1
 2162 420 l 1,7,-1
 2162 376 l 1,8,-1
 2338 376 l 1,9,-1
 2338 644 l 1,10,-1
 2672 644 l 1,11,-1
 2672 -106 l 1,0,-1
51 1141 m 1,12,13
 51 1221 51 1221 56.5 1288.5 c 128,-1,14
 62 1356 62 1356 79 1410.5 c 128,-1,15
 96 1465 96 1465 127 1506 c 128,-1,16
 158 1547 158 1547 208.5 1574 c 128,-1,17
 259 1601 259 1601 332 1615 c 128,-1,18
 405 1629 405 1629 507 1629 c 256,19,20
 609 1629 609 1629 682.5 1614 c 128,-1,21
 756 1599 756 1599 807 1572 c 128,-1,22
 858 1545 858 1545 889 1507 c 128,-1,23
 920 1469 920 1469 937.5 1423 c 128,-1,24
 955 1377 955 1377 960.5 1324 c 128,-1,25
 966 1271 966 1271 966 1215 c 0,26,27
 966 1143 966 1143 950.5 1097.5 c 128,-1,28
 935 1052 935 1052 917 1025 c 1,29,30
 894 993 894 993 868 977 c 1,31,32
 895 962 895 962 917 931 c 0,33,34
 935 905 935 905 950.5 858.5 c 128,-1,35
 966 812 966 812 966 739 c 0,36,37
 966 681 966 681 960.5 625 c 128,-1,38
 955 569 955 569 937.5 519 c 128,-1,39
 920 469 920 469 889 427 c 128,-1,40
 858 385 858 385 807 355 c 128,-1,41
 756 325 756 325 682.5 308 c 128,-1,42
 609 291 609 291 507 291 c 0,43,44
 406 291 406 291 332.5 306 c 128,-1,45
 259 321 259 321 208.5 351 c 128,-1,46
 158 381 158 381 127 425 c 128,-1,47
 96 469 96 469 79 527 c 128,-1,48
 62 585 62 585 56.5 656.5 c 128,-1,49
 51 728 51 728 51 813 c 1,50,-1
 451 812 l 1,51,-1
 451 510 l 1,52,-1
 549 510 l 1,53,-1
 549 887 l 1,54,-1
 387 887 l 1,55,-1
 387 1067 l 1,56,-1
 549 1067 l 1,57,-1
 549 1412 l 1,58,-1
 451 1412 l 1,59,-1
 451 1141 l 1,60,-1
 51 1141 l 1,12,13
1252 1595 m 1,61,-1
 1746 1595 l 1,62,-1
 1428 0 l 1,63,-1
 934 0 l 1,64,-1
 1252 1595 l 1,61,-1
EndSplineSet
Validated: 1
EndChar

StartChar: AE
Encoding: 198 198 134
Width: 1742
GlyphClass: 2
Flags: W
HStem: 0 244<1327 1676> 348 230<679 836> 711 250<1327 1655> 1354 241<1327 1676>
VStem: 836 491<244 348 578 711 961 1217>
LayerCount: 2
Fore
SplineSet
613 348 m 1,0,-1
 513 0 l 1,1,-1
 -23 0 l 1,2,-1
 552 1595 l 1,3,-1
 1676 1595 l 1,4,-1
 1676 1354 l 1,5,-1
 1327 1354 l 1,6,-1
 1327 961 l 1,7,-1
 1655 961 l 1,8,-1
 1655 711 l 1,9,-1
 1327 711 l 1,10,-1
 1327 244 l 1,11,-1
 1676 244 l 1,12,-1
 1676 0 l 1,13,-1
 836 0 l 1,14,-1
 836 348 l 1,15,-1
 613 348 l 1,0,-1
679 578 m 1,16,-1
 836 578 l 1,17,-1
 836 1217 l 1,18,-1
 679 578 l 1,16,-1
EndSplineSet
Validated: 1
EndChar

StartChar: Eth
Encoding: 208 208 144
Width: 1465
GlyphClass: 2
Flags: W
HStem: 0 237<628 863.236> 726 142<15 111 628 736> 1358 237<628 863.236>
VStem: 111 517<237 726 868 1358> 864 517<237.896 1357.42>
LayerCount: 2
Fore
SplineSet
628 237 m 1,0,-1
 864 237 l 1,1,-1
 864 1358 l 1,2,-1
 628 1358 l 1,3,-1
 628 868 l 1,4,-1
 736 868 l 1,5,-1
 736 726 l 1,6,-1
 628 726 l 1,7,-1
 628 237 l 1,0,-1
1381 393 m 2,8,9
 1381 353 1381 353 1378.5 308.5 c 128,-1,10
 1376 264 1376 264 1359.5 220 c 128,-1,11
 1343 176 1343 176 1308.5 136.5 c 128,-1,12
 1274 97 1274 97 1210 66 c 1,13,14
 1145 36 1145 36 1046 18 c 128,-1,15
 947 0 947 0 802 0 c 2,16,-1
 111 0 l 1,17,-1
 111 726 l 1,18,-1
 15 726 l 1,19,-1
 15 868 l 1,20,-1
 111 868 l 1,21,-1
 111 1595 l 1,22,-1
 802 1595 l 2,23,24
 947 1595 947 1595 1046 1577 c 128,-1,25
 1145 1559 1145 1559 1209.5 1529 c 128,-1,26
 1274 1499 1274 1499 1308.5 1459.5 c 128,-1,27
 1343 1420 1343 1420 1359.5 1376.5 c 128,-1,28
 1376 1333 1376 1333 1378.5 1288.5 c 128,-1,29
 1381 1244 1381 1244 1381 1204 c 2,30,-1
 1381 393 l 2,8,9
EndSplineSet
Validated: 1
EndChar

StartChar: multiply
Encoding: 215 215 151
Width: 1166
GlyphClass: 2
Flags: W
LayerCount: 2
Fore
SplineSet
1132 924 m 1,0,-1
 899 649 l 1,1,-1
 1132 375 l 1,2,-1
 816 4 l 1,3,-1
 584 279 l 1,4,-1
 350 4 l 1,5,-1
 35 375 l 1,6,-1
 269 649 l 1,7,-1
 35 924 l 1,8,-1
 350 1294 l 1,9,-1
 584 1020 l 1,10,-1
 816 1294 l 1,11,-1
 1132 924 l 1,0,-1
EndSplineSet
Validated: 1
EndChar

StartChar: Oslash
Encoding: 216 216 152
Width: 1432
GlyphClass: 2
Flags: W
HStem: -39 276<599.547 833.291> 1358 274<598.05 830.704>
VStem: 81 517<238.195 519 821 1357.88> 834 517<237.828 944 1246 1357.88>
LayerCount: 2
Fore
SplineSet
709 -39 m 0,0,1
 552 -39 552 -39 454 -20 c 0,2,3
 377 -5 377 -5 319 16 c 1,4,-1
 218 -166 l 1,5,-1
 102 -70 l 1,6,-1
 189 87 l 1,7,8
 179 96 179 96 170 106 c 0,9,10
 130 147 130 147 110 193.5 c 128,-1,11
 90 240 90 240 86 285 c 0,12,13
 81 331 81 331 81 371 c 2,14,-1
 81 1227 l 2,15,16
 81 1267 81 1267 85.5 1312.5 c 128,-1,17
 90 1358 90 1358 110 1403 c 128,-1,18
 130 1448 130 1448 169.5 1489.5 c 128,-1,19
 209 1531 209 1531 278.5 1562.5 c 128,-1,20
 348 1594 348 1594 453 1613 c 128,-1,21
 558 1632 558 1632 709 1632 c 0,22,23
 864 1632 864 1632 968 1613 c 0,24,25
 1001 1607 1001 1607 1031 1600 c 1,26,-1
 1152 1817 l 1,27,-1
 1262 1716 l 1,28,-1
 1170 1551 l 1,29,30
 1226 1522 1226 1522 1258 1490 c 0,31,32
 1298 1450 1298 1450 1320 1403 c 0,33,34
 1340 1358 1340 1358 1345.5 1312.5 c 128,-1,35
 1351 1267 1351 1267 1351 1227 c 2,36,-1
 1351 371 l 2,37,38
 1351 331 1351 331 1345.5 285 c 128,-1,39
 1340 239 1340 239 1320 194 c 0,40,41
 1299 148 1299 148 1258 106 c 128,-1,42
 1217 64 1217 64 1145.5 32 c 128,-1,43
 1074 0 1074 0 967.5 -19.5 c 128,-1,44
 861 -39 861 -39 709 -39 c 0,0,1
598 237 m 1,45,-1
 834 237 l 1,46,-1
 834 944 l 1,47,-1
 598 519 l 1,48,-1
 598 237 l 1,45,-1
598 821 m 1,49,-1
 834 1246 l 1,50,-1
 834 1358 l 1,51,-1
 598 1358 l 1,52,-1
 598 821 l 1,49,-1
EndSplineSet
Validated: 1
EndChar

StartChar: Thorn
Encoding: 222 222 158
Width: 1383
GlyphClass: 2
Flags: W
HStem: 0 21G<100 597> 250 232<597 832.091> 1182 231<597 832.091> 1575 20G<100 597>
VStem: 100 497<0 250 482 1182 1413 1595> 833 497<482.474 1180.88>
LayerCount: 2
Fore
SplineSet
100 1595 m 1,0,-1
 597 1595 l 1,1,-1
 597 1413 l 1,2,-1
 768 1413 l 2,3,4
 910 1413 910 1413 1007 1395 c 128,-1,5
 1104 1377 1104 1377 1166.5 1347 c 128,-1,6
 1229 1317 1229 1317 1262.5 1277.5 c 128,-1,7
 1296 1238 1296 1238 1311 1194.5 c 128,-1,8
 1326 1151 1326 1151 1328 1106.5 c 128,-1,9
 1330 1062 1330 1062 1330 1022 c 2,10,-1
 1330 641 l 2,11,12
 1330 601 1330 601 1328 556.5 c 128,-1,13
 1326 512 1326 512 1311 469 c 128,-1,14
 1296 426 1296 426 1262.5 386 c 128,-1,15
 1229 346 1229 346 1166.5 316 c 128,-1,16
 1104 286 1104 286 1007 268 c 128,-1,17
 910 250 910 250 768 250 c 2,18,-1
 597 250 l 1,19,-1
 597 0 l 1,20,-1
 100 0 l 1,21,-1
 100 1595 l 1,0,-1
597 482 m 1,22,-1
 833 482 l 1,23,-1
 833 1182 l 1,24,-1
 597 1182 l 1,25,-1
 597 482 l 1,22,-1
EndSplineSet
Validated: 1
EndChar

StartChar: germandbls
Encoding: 223 223 159
Width: 1363
GlyphClass: 2
Flags: W
HStem: -37 231<676 814.643> 750 231<703 815> 1358 237<581.379 814.679>
VStem: 82 497<-205 1357.28> 815 497<195 720.532> 815 427<992.117 1357.33>
LayerCount: 2
Fore
SplineSet
579 -205 m 1,0,-1
 82 -205 l 1,1,-1
 82 1217 l 2,2,3
 82 1256 82 1256 86.5 1299.5 c 128,-1,4
 91 1343 91 1343 110 1385 c 128,-1,5
 129 1427 129 1427 167.5 1465 c 128,-1,6
 206 1503 206 1503 274.5 1532 c 128,-1,7
 343 1561 343 1561 446.5 1578 c 128,-1,8
 550 1595 550 1595 699 1595 c 0,9,10
 832 1595 832 1595 924 1574.5 c 128,-1,11
 1016 1554 1016 1554 1076.5 1520 c 128,-1,12
 1137 1486 1137 1486 1170.5 1441.5 c 128,-1,13
 1204 1397 1204 1397 1220 1350 c 128,-1,14
 1236 1303 1236 1303 1239 1256 c 128,-1,15
 1242 1209 1242 1209 1242 1170 c 0,16,17
 1242 1111 1242 1111 1230 1068.5 c 128,-1,18
 1218 1026 1218 1026 1199 995 c 128,-1,19
 1180 964 1180 964 1155.5 943.5 c 128,-1,20
 1131 923 1131 923 1106 909 c 0,21,22
 1046 876 1046 876 970 870 c 1,23,24
 1022 867 1022 867 1082 851 c 128,-1,25
 1142 835 1142 835 1193 798.5 c 128,-1,26
 1244 762 1244 762 1278 702.5 c 128,-1,27
 1312 643 1312 643 1312 553 c 2,28,-1
 1312 258 l 2,29,30
 1312 222 1312 222 1307 186 c 128,-1,31
 1302 150 1302 150 1284 117.5 c 128,-1,32
 1266 85 1266 85 1230 56.5 c 128,-1,33
 1194 28 1194 28 1133 7.5 c 128,-1,34
 1072 -13 1072 -13 980.5 -25 c 128,-1,35
 889 -37 889 -37 760 -37 c 2,36,-1
 676 -37 l 1,37,-1
 676 194 l 1,38,-1
 815 194 l 1,39,-1
 815 750 l 1,40,-1
 703 750 l 1,41,-1
 703 981 l 1,42,-1
 815 981 l 1,43,-1
 815 1358 l 1,44,-1
 579 1358 l 1,45,-1
 579 -205 l 1,0,-1
EndSplineSet
Validated: 1
EndChar

StartChar: ae
Encoding: 230 230 166
Width: 2045
GlyphClass: 2
Flags: W
HStem: -36 273<521.637 755.476 1255.21 1487.2> 579 178<1254 1491> 602 193<523.303 757> 1060 283<522.589 756.723 1255.28 1490.56>
VStem: 24 497<237.983 574.203> 94 427<895.219 1058.91> 757 497<237 579 782 1060> 1491 496<237.032 450 757 1059.66>
LayerCount: 2
Fore
SplineSet
1987 451 m 1,0,1
 1987 380 1987 380 1982.5 316.5 c 128,-1,2
 1978 253 1978 253 1959 198.5 c 128,-1,3
 1940 144 1940 144 1900.5 101 c 128,-1,4
 1861 58 1861 58 1791.5 27.5 c 128,-1,5
 1722 -3 1722 -3 1616.5 -19.5 c 128,-1,6
 1511 -36 1511 -36 1359 -36 c 0,7,8
 1265 -36 1265 -36 1200 -16.5 c 128,-1,9
 1135 3 1135 3 1092 27 c 0,10,11
 1041 55 1041 55 1009 90 c 1,12,13
 976 54 976 54 914 27 c 0,14,15
 861 3 861 3 770 -16.5 c 128,-1,16
 679 -36 679 -36 538 -36 c 0,17,18
 406 -36 406 -36 309 -2.5 c 128,-1,19
 212 31 212 31 148.5 86.5 c 128,-1,20
 85 142 85 142 54.5 215 c 128,-1,21
 24 288 24 288 24 368 c 0,22,23
 24 447 24 447 48 523.5 c 128,-1,24
 72 600 72 600 133.5 660.5 c 128,-1,25
 195 721 195 721 300 758 c 128,-1,26
 405 795 405 795 568 795 c 0,27,28
 613 795 613 795 659.5 792 c 128,-1,29
 706 789 706 789 757 782 c 1,30,-1
 757 1060 l 1,31,-1
 521 1060 l 1,32,-1
 521 893 l 1,33,-1
 119 894 l 1,34,35
 108 933 108 933 101 971 c 128,-1,36
 94 1009 94 1009 94 1044 c 0,37,38
 94 1104 94 1104 120 1158.5 c 128,-1,39
 146 1213 146 1213 211.5 1254 c 128,-1,40
 277 1295 277 1295 388 1319 c 128,-1,41
 499 1343 499 1343 669 1343 c 0,42,43
 759 1343 759 1343 821 1330.5 c 128,-1,44
 883 1318 883 1318 925 1303 c 0,45,46
 973 1285 973 1285 1004 1263 c 1,47,48
 1040 1284 1040 1284 1094 1303 c 0,49,50
 1139 1318 1139 1318 1205 1330.5 c 128,-1,51
 1271 1343 1271 1343 1359 1343 c 0,52,53
 1510 1343 1510 1343 1615.5 1325 c 128,-1,54
 1721 1307 1721 1307 1791 1277 c 128,-1,55
 1861 1247 1861 1247 1900.5 1207.5 c 128,-1,56
 1940 1168 1940 1168 1959 1125 c 128,-1,57
 1978 1082 1978 1082 1982.5 1037.5 c 128,-1,58
 1987 993 1987 993 1987 954 c 2,59,-1
 1987 579 l 1,60,-1
 1254 579 l 1,61,-1
 1254 237 l 1,62,-1
 1491 237 l 1,63,-1
 1491 450 l 1,64,-1
 1987 451 l 1,0,1
521 602 m 1,65,-1
 521 237 l 1,66,-1
 757 237 l 1,67,-1
 757 602 l 1,68,-1
 521 602 l 1,65,-1
1254 757 m 1,69,-1
 1491 757 l 1,70,-1
 1491 1060 l 1,71,-1
 1254 1060 l 1,72,-1
 1254 757 l 1,69,-1
EndSplineSet
Validated: 1
EndChar

StartChar: eth
Encoding: 240 240 176
Width: 1320
GlyphClass: 2
Flags: W
HStem: -38 274<534.377 767.617> 904 192<533.725 710>
VStem: 36 497<237.345 855.016> 769 497<315.019 900.43>
LayerCount: 2
Fore
SplineSet
477 1415 m 1,0,1
 439 1444 439 1444 403.5 1468.5 c 128,-1,2
 368 1493 368 1493 339 1510 c 2,3,-1
 278 1546 l 1,4,-1
 481 1887 l 1,5,6
 504 1876 504 1876 529.5 1863.5 c 128,-1,7
 555 1851 555 1851 583 1835 c 0,8,9
 631 1809 631 1809 690 1769 c 128,-1,10
 749 1729 749 1729 815 1672 c 1,11,-1
 1003 1815 l 1,12,-1
 1067 1692 l 1,13,-1
 915 1576 l 1,14,15
 977 1511 977 1511 1039.5 1431 c 128,-1,16
 1102 1351 1102 1351 1152.5 1255.5 c 128,-1,17
 1203 1160 1203 1160 1234.5 1047.5 c 128,-1,18
 1266 935 1266 935 1266 806 c 0,19,20
 1266 653 1266 653 1256 531 c 128,-1,21
 1246 409 1246 409 1221 315 c 128,-1,22
 1196 221 1196 221 1152 154 c 128,-1,23
 1108 87 1108 87 1041 44.5 c 128,-1,24
 974 2 974 2 880 -18 c 128,-1,25
 786 -38 786 -38 660 -38 c 0,26,27
 521 -38 521 -38 420.5 -21 c 128,-1,28
 320 -4 320 -4 251 28.5 c 128,-1,29
 182 61 182 61 139.5 109 c 128,-1,30
 97 157 97 157 74 219.5 c 128,-1,31
 51 282 51 282 43.5 358 c 128,-1,32
 36 434 36 434 36 523 c 0,33,34
 36 604 36 604 42 678.5 c 128,-1,35
 48 753 48 753 67 816.5 c 128,-1,36
 86 880 86 880 122.5 931.5 c 128,-1,37
 159 983 159 983 220 1019.5 c 128,-1,38
 281 1056 281 1056 369.5 1076 c 128,-1,39
 458 1096 458 1096 583 1096 c 2,40,-1
 710 1096 l 1,41,42
 710 1124 710 1124 700 1153.5 c 128,-1,43
 690 1183 690 1183 673 1212 c 128,-1,44
 656 1241 656 1241 633 1269 c 128,-1,45
 610 1297 610 1297 583 1323 c 1,46,-1
 355 1150 l 1,47,-1
 292 1274 l 1,48,-1
 477 1415 l 1,0,1
769 904 m 1,49,-1
 533 904 l 1,50,-1
 533 236 l 1,51,-1
 769 236 l 1,52,-1
 769 904 l 1,49,-1
EndSplineSet
Validated: 1
EndChar

StartChar: divide
Encoding: 247 247 183
Width: 1129
GlyphClass: 2
Flags: W
HStem: 92 467<335 793> 670 238<40 1090> 1000 497<335 793>
VStem: 335 458<92 559 1000 1497>
LayerCount: 2
Fore
SplineSet
793 92 m 1,0,-1
 335 92 l 1,1,-1
 335 559 l 1,2,-1
 793 559 l 1,3,-1
 793 92 l 1,0,-1
793 1000 m 1,4,-1
 335 1000 l 1,5,-1
 335 1497 l 1,6,-1
 793 1497 l 1,7,-1
 793 1000 l 1,4,-1
1090 908 m 1,8,-1
 1090 670 l 1,9,-1
 40 670 l 1,10,-1
 40 908 l 1,11,-1
 1090 908 l 1,8,-1
EndSplineSet
Validated: 1
EndChar

StartChar: oslash
Encoding: 248 248 184
Width: 1319
GlyphClass: 2
Flags: W
HStem: -39 317<561.014 757.801> 1029 314<561.438 755.781>
VStem: 64 497<278.156 379 627 1028.2> 758 497<278.555 673 920 1028.75>
LayerCount: 2
Fore
SplineSet
664 -39 m 0,0,1
 547 -39 547 -39 460.5 -27.5 c 128,-1,2
 374 -16 374 -16 310 4 c 1,3,-1
 220 -131 l 1,4,-1
 104 -53 l 1,5,-1
 183 65 l 1,6,7
 141 96 141 96 117 132 c 128,-1,8
 93 168 93 168 81 205.5 c 128,-1,9
 69 243 69 243 66.5 280.5 c 128,-1,10
 64 318 64 318 64 352 c 2,11,-1
 64 952 l 2,12,13
 64 992 64 992 68 1036.5 c 128,-1,14
 72 1081 72 1081 90.5 1124.5 c 128,-1,15
 109 1168 109 1168 146.5 1207.5 c 128,-1,16
 184 1247 184 1247 250.5 1277 c 128,-1,17
 317 1307 317 1307 418 1325 c 128,-1,18
 519 1343 519 1343 664 1343 c 0,19,20
 779 1343 779 1343 864.5 1331.5 c 128,-1,21
 950 1320 950 1320 1013 1300 c 1,22,-1
 1102 1432 l 1,23,-1
 1211 1350 l 1,24,-1
 1137 1240 l 1,25,26
 1179 1209 1179 1209 1203 1173 c 128,-1,27
 1227 1137 1227 1137 1238.5 1099.5 c 128,-1,28
 1250 1062 1250 1062 1252.5 1024 c 128,-1,29
 1255 986 1255 986 1255 952 c 2,30,-1
 1255 352 l 2,31,32
 1255 312 1255 312 1251.5 267.5 c 128,-1,33
 1248 223 1248 223 1230 180 c 128,-1,34
 1212 137 1212 137 1175.5 97 c 128,-1,35
 1139 57 1139 57 1073.5 27 c 128,-1,36
 1008 -3 1008 -3 908 -21 c 128,-1,37
 808 -39 808 -39 664 -39 c 0,0,1
561 627 m 1,38,-1
 758 920 l 1,39,-1
 758 1029 l 1,40,-1
 561 1029 l 1,41,-1
 561 627 l 1,38,-1
758 278 m 1,42,-1
 758 673 l 1,43,-1
 561 379 l 1,44,-1
 561 278 l 1,45,-1
 758 278 l 1,42,-1
EndSplineSet
Validated: 1
EndChar

StartChar: thorn
Encoding: 254 254 190
Width: 1380
GlyphClass: 2
Flags: W
HStem: -409 21G<84 561> -23 260<623.646 837> 1060 263<617.579 837> 1582 20G<84 561>
VStem: 84 477<-409 78 237 1060 1225 1602> 837 477<237.438 1059.69>
LayerCount: 2
Fore
SplineSet
561 1602 m 1,0,-1
 561 1225 l 1,1,2
 571 1240 571 1240 588 1257 c 128,-1,3
 605 1274 605 1274 641 1289 c 128,-1,4
 677 1304 677 1304 738 1313.5 c 128,-1,5
 799 1323 799 1323 898 1323 c 0,6,7
 1001 1323 1001 1323 1072.5 1303.5 c 128,-1,8
 1144 1284 1144 1284 1190 1251.5 c 128,-1,9
 1236 1219 1236 1219 1261 1176 c 128,-1,10
 1286 1133 1286 1133 1298 1087 c 128,-1,11
 1310 1041 1310 1041 1312 995 c 128,-1,12
 1314 949 1314 949 1314 909 c 2,13,-1
 1314 391 l 2,14,15
 1314 351 1314 351 1312 305 c 128,-1,16
 1310 259 1310 259 1298 213 c 128,-1,17
 1286 167 1286 167 1261 124.5 c 128,-1,18
 1236 82 1236 82 1190 49 c 128,-1,19
 1144 16 1144 16 1072.5 -3.5 c 128,-1,20
 1001 -23 1001 -23 898 -23 c 0,21,22
 798 -23 798 -23 738 -13 c 128,-1,23
 678 -3 678 -3 643.5 12 c 128,-1,24
 609 27 609 27 592 44.5 c 128,-1,25
 575 62 575 62 561 78 c 1,26,-1
 561 -409 l 1,27,-1
 84 -409 l 1,28,-1
 84 1602 l 1,29,-1
 561 1602 l 1,0,-1
561 237 m 1,30,-1
 837 237 l 1,31,-1
 837 1060 l 1,32,-1
 561 1060 l 1,33,-1
 561 237 l 1,30,-1
EndSplineSet
Validated: 1
EndChar

StartChar: Amacron
Encoding: 256 256 192
Width: 1398
GlyphClass: 2
Flags: W
HStem: 0 21G<14 531.086 865.015 1384> 393 179<596 802> 1575 20G<266.79 1131.21> 1720 336<236 1160>
LayerCount: 2
Fore
SplineSet
1160 2056 m 1,0,-1
 1160 1720 l 1,1,-1
 236 1720 l 1,2,-1
 236 2056 l 1,3,-1
 1160 2056 l 1,0,-1
570 393 m 1,4,-1
 529 0 l 1,5,-1
 14 0 l 1,6,-1
 270 1595 l 1,7,-1
 1128 1595 l 1,8,-1
 1384 0 l 1,9,-1
 867 0 l 1,10,-1
 828 393 l 1,11,-1
 570 393 l 1,4,-1
596 572 m 1,12,-1
 802 572 l 1,13,-1
 698 1361 l 1,14,-1
 596 572 l 1,12,-1
EndSplineSet
Validated: 1
EndChar

StartChar: amacron
Encoding: 257 257 193
Width: 1340
GlyphClass: 2
Flags: W
HStem: -36 273<503 630.656> 0 21G<837.611 1299> 602 193<506.574 779> 1060 283<504.875 778.27> 1475 336<182 1106>
VStem: 26 477<238.98 578.625> 104 399<895.219 1058.91> 779 477<237 602 782 1058.69>
LayerCount: 2
Fore
SplineSet
1106 1811 m 1,0,-1
 1106 1475 l 1,1,-1
 182 1475 l 1,2,-1
 182 1811 l 1,3,-1
 1106 1811 l 1,0,-1
843 0 m 1,4,-1
 798 167 l 1,5,6
 772 116 772 116 732 78 c 128,-1,7
 692 40 692 40 643 14.5 c 128,-1,8
 594 -11 594 -11 539 -23.5 c 128,-1,9
 484 -36 484 -36 428 -36 c 0,10,11
 312 -36 312 -36 235 -1.5 c 128,-1,12
 158 33 158 33 111.5 89.5 c 128,-1,13
 65 146 65 146 45.5 218.5 c 128,-1,14
 26 291 26 291 26 368 c 0,15,16
 26 447 26 447 48.5 523.5 c 128,-1,17
 71 600 71 600 126.5 660.5 c 128,-1,18
 182 721 182 721 275.5 758 c 128,-1,19
 369 795 369 795 511 795 c 0,20,21
 571 795 571 795 640.5 792 c 128,-1,22
 710 789 710 789 779 782 c 1,23,-1
 779 1060 l 1,24,-1
 503 1060 l 1,25,-1
 503 893 l 1,26,-1
 129 894 l 1,27,28
 118 933 118 933 111 971 c 128,-1,29
 104 1009 104 1009 104 1044 c 0,30,31
 104 1104 104 1104 129.5 1158.5 c 128,-1,32
 155 1213 155 1213 217.5 1254 c 128,-1,33
 280 1295 280 1295 385.5 1319 c 128,-1,34
 491 1343 491 1343 652 1343 c 0,35,36
 797 1343 797 1343 898 1325 c 128,-1,37
 999 1307 999 1307 1066 1277 c 128,-1,38
 1133 1247 1133 1247 1171 1207.5 c 128,-1,39
 1209 1168 1209 1168 1228 1124.5 c 128,-1,40
 1247 1081 1247 1081 1251.5 1036.5 c 128,-1,41
 1256 992 1256 992 1256 952 c 2,42,-1
 1256 257 l 2,43,44
 1256 209 1256 209 1262.5 164 c 128,-1,45
 1269 119 1269 119 1277 82 c 0,46,47
 1282 60 1282 60 1287.5 40 c 128,-1,48
 1293 20 1293 20 1299 0 c 1,49,-1
 843 0 l 1,4,-1
503 602 m 1,50,-1
 503 237 l 1,51,-1
 779 237 l 1,52,-1
 779 602 l 1,53,-1
 503 602 l 1,50,-1
EndSplineSet
Validated: 1
EndChar

StartChar: Dcroat
Encoding: 272 272 208
Width: 1467
GlyphClass: 2
Flags: W
HStem: 0 237<630 865.236> 726 142<4 113 630 725> 1358 237<630 865.236>
VStem: 113 517<237 726 868 1358> 866 517<237.896 1357.42>
LayerCount: 2
Fore
SplineSet
630 237 m 1,0,-1
 866 237 l 1,1,-1
 866 1358 l 1,2,-1
 630 1358 l 1,3,-1
 630 868 l 1,4,-1
 725 868 l 1,5,-1
 725 726 l 1,6,-1
 630 726 l 1,7,-1
 630 237 l 1,0,-1
1383 393 m 2,8,9
 1383 353 1383 353 1380.5 308.5 c 128,-1,10
 1378 264 1378 264 1361.5 220 c 128,-1,11
 1345 176 1345 176 1310.5 136.5 c 128,-1,12
 1276 97 1276 97 1212 66 c 1,13,14
 1147 36 1147 36 1048 18 c 128,-1,15
 949 0 949 0 804 0 c 2,16,-1
 113 0 l 1,17,-1
 113 726 l 1,18,-1
 4 726 l 1,19,-1
 4 868 l 1,20,-1
 113 868 l 1,21,-1
 113 1595 l 1,22,-1
 804 1595 l 2,23,24
 949 1595 949 1595 1048 1577 c 128,-1,25
 1147 1559 1147 1559 1211.5 1529 c 128,-1,26
 1276 1499 1276 1499 1310.5 1459.5 c 128,-1,27
 1345 1420 1345 1420 1361.5 1376.5 c 128,-1,28
 1378 1333 1378 1333 1380.5 1288.5 c 128,-1,29
 1383 1244 1383 1244 1383 1204 c 2,30,-1
 1383 393 l 2,8,9
EndSplineSet
Validated: 1
EndChar

StartChar: dcroat
Encoding: 273 273 209
Width: 1378
GlyphClass: 2
Flags: W
HStem: -37 274<541 656.538> 0 21G<877.491 1294> 1060 284<541 672.67> 1457 138<570 817 1294 1410> 1690 20G<817 1294>
VStem: 64 477<237.343 1059.12> 817 477<237 1060 1199 1457 1595 1710>
LayerCount: 2
Fore
SplineSet
817 1060 m 1,0,-1
 541 1060 l 1,1,-1
 541 237 l 1,2,-1
 817 237 l 1,3,-1
 817 1060 l 1,0,-1
1410 1595 m 1,4,-1
 1410 1457 l 1,5,-1
 1294 1457 l 1,6,-1
 1294 0 l 1,7,-1
 883 0 l 1,8,-1
 837 167 l 1,9,10
 807 117 807 117 764 78 c 0,11,12
 722 40 722 40 671 14.5 c 128,-1,13
 620 -11 620 -11 563 -24 c 128,-1,14
 506 -37 506 -37 446 -37 c 0,15,16
 374 -37 374 -37 305 -12 c 128,-1,17
 236 13 236 13 182 64 c 1,18,19
 129 116 129 116 96.5 194 c 128,-1,20
 64 272 64 272 64 377 c 2,21,-1
 64 955 l 2,22,23
 64 1055 64 1055 96 1128.5 c 128,-1,24
 128 1202 128 1202 180.5 1250 c 128,-1,25
 233 1298 233 1298 300.5 1321 c 128,-1,26
 368 1344 368 1344 439 1344 c 0,27,28
 553 1344 553 1344 651.5 1307.5 c 128,-1,29
 750 1271 750 1271 817 1199 c 1,30,-1
 817 1457 l 1,31,-1
 570 1457 l 1,32,-1
 570 1595 l 1,33,-1
 817 1595 l 1,34,-1
 817 1710 l 1,35,-1
 1294 1710 l 1,36,-1
 1294 1595 l 1,37,-1
 1410 1595 l 1,4,-1
EndSplineSet
Validated: 1
EndChar

StartChar: Emacron
Encoding: 274 274 210
Width: 991
GlyphClass: 2
Flags: W
HStem: 0 237<617 926> 711 250<617 905> 1358 237<617 926> 1720 336<36 960>
VStem: 100 517<237 711 961 1358>
LayerCount: 2
Fore
SplineSet
960 2056 m 1,0,-1
 960 1720 l 1,1,-1
 36 1720 l 1,2,-1
 36 2056 l 1,3,-1
 960 2056 l 1,0,-1
926 1595 m 1,4,-1
 926 1358 l 1,5,-1
 617 1358 l 1,6,-1
 617 961 l 1,7,-1
 905 961 l 1,8,-1
 905 711 l 1,9,-1
 617 711 l 1,10,-1
 617 237 l 1,11,-1
 926 237 l 1,12,-1
 926 0 l 1,13,-1
 100 0 l 1,14,-1
 100 1595 l 1,15,-1
 926 1595 l 1,4,-1
EndSplineSet
Validated: 1
EndChar

StartChar: emacron
Encoding: 275 275 211
Width: 1322
GlyphClass: 2
Flags: W
HStem: -36 273<562.799 794.551> 579 178<562 798> 1060 283<562.799 795.251> 1475 336<220 1144>
VStem: 65 497<237.07 579 757 1059.94> 798 467<237.032 450 757 1059.66>
LayerCount: 2
Fore
SplineSet
1144 1811 m 1,0,-1
 1144 1475 l 1,1,-1
 220 1475 l 1,2,-1
 220 1811 l 1,3,-1
 1144 1811 l 1,0,-1
1264 451 m 1,4,5
 1264 380 1264 380 1259.5 316.5 c 128,-1,6
 1255 253 1255 253 1236 198.5 c 128,-1,7
 1217 144 1217 144 1179.5 101 c 128,-1,8
 1142 58 1142 58 1077 27.5 c 128,-1,9
 1012 -3 1012 -3 914 -19.5 c 128,-1,10
 816 -36 816 -36 677 -36 c 0,11,12
 527 -36 527 -36 423.5 -18 c 128,-1,13
 320 0 320 0 252 30 c 128,-1,14
 184 60 184 60 146 99.5 c 128,-1,15
 108 139 108 139 90 182.5 c 128,-1,16
 72 226 72 226 68.5 270 c 128,-1,17
 65 314 65 314 65 354 c 2,18,-1
 65 954 l 2,19,20
 65 994 65 994 68.5 1038 c 128,-1,21
 72 1082 72 1082 90 1125 c 128,-1,22
 108 1168 108 1168 146 1207.5 c 128,-1,23
 184 1247 184 1247 252 1277 c 128,-1,24
 320 1307 320 1307 423.5 1325 c 128,-1,25
 527 1343 527 1343 677 1343 c 0,26,27
 817 1343 817 1343 915 1325 c 128,-1,28
 1013 1307 1013 1307 1078 1277 c 128,-1,29
 1143 1247 1143 1247 1180.5 1207.5 c 128,-1,30
 1218 1168 1218 1168 1237 1125 c 128,-1,31
 1256 1082 1256 1082 1260.5 1037.5 c 128,-1,32
 1265 993 1265 993 1265 954 c 2,33,-1
 1265 579 l 1,34,-1
 562 579 l 1,35,-1
 562 237 l 1,36,-1
 798 237 l 1,37,-1
 798 450 l 1,38,-1
 1264 451 l 1,4,5
562 757 m 1,39,-1
 798 757 l 1,40,-1
 798 1060 l 1,41,-1
 562 1060 l 1,42,-1
 562 757 l 1,39,-1
EndSplineSet
Validated: 1
EndChar

StartChar: Hbar
Encoding: 294 294 230
Width: 1535
GlyphClass: 2
Flags: W
HStem: 0 21G<111 628 914 1431> 688 250<628 914> 1176 124<15 111 628 914 1431 1509> 1575 20G<111 628 914 1431>
VStem: 111 517<0 688 938 1176 1300 1595> 914 517<0 688 938 1176 1300 1595>
LayerCount: 2
Fore
SplineSet
1509 1300 m 1,0,-1
 1509 1176 l 1,1,-1
 1431 1176 l 1,2,-1
 1431 0 l 1,3,-1
 914 0 l 1,4,-1
 914 688 l 1,5,-1
 628 688 l 1,6,-1
 628 0 l 1,7,-1
 111 0 l 1,8,-1
 111 1176 l 1,9,-1
 15 1176 l 1,10,-1
 15 1300 l 1,11,-1
 111 1300 l 1,12,-1
 111 1595 l 1,13,-1
 628 1595 l 1,14,-1
 628 1300 l 1,15,-1
 914 1300 l 1,16,-1
 914 1595 l 1,17,-1
 1431 1595 l 1,18,-1
 1431 1300 l 1,19,-1
 1509 1300 l 1,0,-1
914 1176 m 1,20,-1
 628 1176 l 1,21,-1
 628 938 l 1,22,-1
 914 938 l 1,23,-1
 914 1176 l 1,20,-1
EndSplineSet
Validated: 1
EndChar

StartChar: hbar
Encoding: 295 295 231
Width: 1395
GlyphClass: 2
Flags: W
HStem: 0 21G<84 561 837 1314> 1060 283<701.401 837> 1454 140<4 84 561 894> 1690 20G<84 561>
VStem: 84 477<0 1060 1188 1454 1594 1710> 837 477<0 1059.25>
LayerCount: 2
Fore
SplineSet
894 1594 m 1,0,-1
 894 1454 l 1,1,-1
 561 1454 l 1,2,-1
 561 1188 l 1,3,4
 585 1225 585 1225 624 1254 c 128,-1,5
 663 1283 663 1283 712 1302.5 c 128,-1,6
 761 1322 761 1322 817 1332.5 c 128,-1,7
 873 1343 873 1343 932 1343 c 0,8,9
 1002 1343 1002 1343 1070.5 1321 c 128,-1,10
 1139 1299 1139 1299 1193 1253.5 c 128,-1,11
 1247 1208 1247 1208 1280.5 1137 c 128,-1,12
 1314 1066 1314 1066 1314 968 c 2,13,-1
 1314 0 l 1,14,-1
 837 0 l 1,15,-1
 837 1060 l 1,16,-1
 561 1060 l 1,17,-1
 561 0 l 1,18,-1
 84 0 l 1,19,-1
 84 1454 l 1,20,-1
 4 1454 l 1,21,-1
 4 1594 l 1,22,-1
 84 1594 l 1,23,-1
 84 1710 l 1,24,-1
 561 1710 l 1,25,-1
 561 1594 l 1,26,-1
 894 1594 l 1,0,-1
EndSplineSet
Validated: 1
EndChar

StartChar: Imacron
Encoding: 298 298 234
Width: 717
GlyphClass: 2
Flags: W
HStem: 0 21G<100 617> 1575 20G<100 617> 1720 336<-137 787>
VStem: 100 517<0 1595>
LayerCount: 2
Fore
SplineSet
787 2056 m 1,0,-1
 787 1720 l 1,1,-1
 -137 1720 l 1,2,-1
 -137 2056 l 1,3,-1
 787 2056 l 1,0,-1
617 1595 m 1,4,-1
 617 0 l 1,5,-1
 100 0 l 1,6,-1
 100 1595 l 1,7,-1
 617 1595 l 1,4,-1
EndSplineSet
Validated: 1
EndChar

StartChar: imacron
Encoding: 299 299 235
Width: 682
GlyphClass: 2
Flags: W
HStem: 0 21G<84 598> 1280 20G<84 598> 1475 336<-129 795>
VStem: 84 514<0 1300>
LayerCount: 2
Fore
SplineSet
795 1811 m 1,0,-1
 795 1475 l 1,1,-1
 -129 1475 l 1,2,-1
 -129 1811 l 1,3,-1
 795 1811 l 1,0,-1
598 0 m 1,4,-1
 84 0 l 1,5,-1
 84 1300 l 1,6,-1
 598 1300 l 1,7,-1
 598 0 l 1,4,-1
EndSplineSet
Validated: 1
EndChar

StartChar: dotlessi
Encoding: 305 305 241
Width: 682
GlyphClass: 2
Flags: W
HStem: 0 21G<84 598> 1280 20G<84 598>
VStem: 84 514<0 1300>
LayerCount: 2
Fore
SplineSet
598 0 m 1,0,-1
 84 0 l 1,1,-1
 84 1300 l 1,2,-1
 598 1300 l 1,3,-1
 598 0 l 1,0,-1
EndSplineSet
Validated: 1
EndChar

StartChar: jcircumflex
Encoding: 309 309 245
Width: 696
GlyphClass: 2
Flags: W
HStem: -318.5 252.5<-171.248 84> -285 219<-172 82.3284> 1280 20G<84 612>
VStem: 84 528<-64.8511 1300>
LayerCount: 2
Fore
SplineSet
612 94 m 2,0,1
 612 54 612 54 610 7.5 c 128,-1,2
 608 -39 608 -39 596 -85 c 128,-1,3
 584 -131 584 -131 559.5 -174 c 128,-1,4
 535 -217 535 -217 489.5 -250 c 128,-1,5
 444 -283 444 -283 375 -302.5 c 128,-1,6
 306 -322 306 -322 206 -322 c 0,7,8
 129 -322 129 -322 69 -318.5 c 128,-1,9
 9 -315 9 -315 -36.5 -309.5 c 128,-1,10
 -82 -304 -82 -304 -115 -297.5 c 128,-1,11
 -148 -291 -148 -291 -172 -285 c 1,12,-1
 -172 -66 l 1,13,-1
 84 -66 l 1,14,-1
 84 1300 l 1,15,-1
 612 1300 l 1,16,-1
 612 94 l 2,0,1
621 2010 m 1,17,-1
 877 1395 l 1,18,-1
 442 1395 l 1,19,-1
 362 1715 l 1,20,-1
 286 1395 l 1,21,-1
 -148 1395 l 1,22,-1
 98 2010 l 1,23,-1
 621 2010 l 1,17,-1
EndSplineSet
Validated: 1
EndChar

StartChar: Lslash
Encoding: 321 321 256
Width: 1114
GlyphClass: 2
Flags: W
HStem: 0 237<778 1086> 1575 20G<261 778>
VStem: 261 517<237 540 1147 1595>
LayerCount: 2
Fore
SplineSet
778 1147 m 1,0,-1
 1021 1273 l 1,1,-1
 1021 935 l 1,2,-1
 778 809 l 1,3,-1
 778 237 l 1,4,-1
 1086 237 l 1,5,-1
 1086 0 l 1,6,-1
 261 0 l 1,7,-1
 261 540 l 1,8,-1
 14 412 l 1,9,-1
 14 752 l 1,10,-1
 261 880 l 1,11,-1
 261 1595 l 1,12,-1
 778 1595 l 1,13,-1
 778 1147 l 1,0,-1
EndSplineSet
Validated: 1
EndChar

StartChar: lslash
Encoding: 322 322 257
Width: 940
GlyphClass: 2
Flags: W
HStem: 0 21G<208 685> 1690 20G<208 685>
VStem: 208 477<0 643 1139 1710>
LayerCount: 2
Fore
SplineSet
685 0 m 1,0,-1
 208 0 l 1,1,-1
 208 643 l 1,2,-1
 8 539 l 1,3,-1
 8 788 l 1,4,-1
 208 892 l 1,5,-1
 208 1710 l 1,6,-1
 685 1710 l 1,7,-1
 685 1139 l 1,8,-1
 939 1271 l 1,9,-1
 939 1023 l 1,10,-1
 685 891 l 1,11,-1
 685 0 l 1,0,-1
EndSplineSet
Validated: 1
EndChar

StartChar: Eng
Encoding: 330 330 265
Width: 1513
GlyphClass: 2
Flags: W
HStem: 0 21G<100 502> 1575 20G<100 614.723 1012 1413>
VStem: 100 402<0 711> 504 400<-379.506 -125> 1012 401<-382.092 -144 834 1595>
LayerCount: 2
Fore
SplineSet
1014 -144 m 1,0,-1
 502 711 l 1,1,-1
 502 0 l 1,2,-1
 100 0 l 1,3,-1
 100 1595 l 1,4,-1
 604 1595 l 1,5,-1
 1012 834 l 1,6,-1
 1012 1595 l 1,7,-1
 1413 1595 l 1,8,-1
 1413 -245 l 2,9,10
 1413 -376 1413 -376 1373.5 -474.5 c 128,-1,11
 1334 -573 1334 -573 1269.5 -639 c 128,-1,12
 1205 -705 1205 -705 1122.5 -738.5 c 128,-1,13
 1040 -772 1040 -772 954 -772 c 0,14,15
 869 -772 869 -772 788 -739.5 c 128,-1,16
 707 -707 707 -707 644 -641 c 128,-1,17
 581 -575 581 -575 542.5 -476 c 128,-1,18
 504 -377 504 -377 504 -245 c 2,19,-1
 504 -125 l 1,20,-1
 904 -125 l 1,21,-1
 904 -383 l 1,22,-1
 1014 -383 l 1,23,-1
 1014 -144 l 1,0,-1
EndSplineSet
Validated: 1
EndChar

StartChar: eng
Encoding: 331 331 266
Width: 1394
GlyphClass: 2
Flags: W
HStem: -458.5 252.5<581.627 837> -425 219<581 835.721> 0 21G<84 561> 1060 284<720.074 837> 1280 20G<84 500.509>
VStem: 84 477<0 1060> 837 477<-204.851 1058.24>
LayerCount: 2
Fore
SplineSet
84 0 m 1,0,-1
 84 1300 l 1,1,-1
 495 1300 l 1,2,-1
 541 1133 l 1,3,4
 570 1190 570 1190 615.5 1230.5 c 128,-1,5
 661 1271 661 1271 713.5 1296 c 128,-1,6
 766 1321 766 1321 821.5 1332.5 c 128,-1,7
 877 1344 877 1344 925 1344 c 0,8,9
 1029 1344 1029 1344 1103 1311 c 128,-1,10
 1177 1278 1177 1278 1224 1221.5 c 128,-1,11
 1271 1165 1271 1165 1292.5 1091 c 128,-1,12
 1314 1017 1314 1017 1314 935 c 2,13,-1
 1314 -46 l 2,14,15
 1314 -86 1314 -86 1311.5 -132.5 c 128,-1,16
 1309 -179 1309 -179 1297.5 -225 c 128,-1,17
 1286 -271 1286 -271 1261 -314 c 128,-1,18
 1236 -357 1236 -357 1191 -390 c 128,-1,19
 1146 -423 1146 -423 1076.5 -442.5 c 128,-1,20
 1007 -462 1007 -462 907 -462 c 0,21,22
 839 -462 839 -462 787.5 -458.5 c 128,-1,23
 736 -455 736 -455 696.5 -449.5 c 128,-1,24
 657 -444 657 -444 629 -437.5 c 128,-1,25
 601 -431 601 -431 581 -425 c 1,26,-1
 581 -206 l 1,27,-1
 837 -206 l 1,28,-1
 837 1060 l 1,29,-1
 561 1060 l 1,30,-1
 561 0 l 1,31,-1
 84 0 l 1,0,-1
EndSplineSet
Validated: 1
EndChar

StartChar: Omacron
Encoding: 332 332 267
Width: 1433
GlyphClass: 2
Flags: W
HStem: -39 276<599.603 834.291> 1358 274<599.05 834.291> 1720 336<257 1181>
VStem: 82 517<237.695 1357.88> 835 517<237.695 1357.88>
LayerCount: 2
Fore
SplineSet
1181 2056 m 1,0,-1
 1181 1720 l 1,1,-1
 257 1720 l 1,2,-1
 257 2056 l 1,3,-1
 1181 2056 l 1,0,-1
599 237 m 1,4,-1
 835 237 l 1,5,-1
 835 1358 l 1,6,-1
 599 1358 l 1,7,-1
 599 237 l 1,4,-1
710 -39 m 0,8,9
 560 -39 560 -39 454.5 -19.5 c 128,-1,10
 349 0 349 0 279.5 32 c 128,-1,11
 210 64 210 64 170.5 106 c 128,-1,12
 131 148 131 148 111 193.5 c 128,-1,13
 91 239 91 239 86.5 285 c 128,-1,14
 82 331 82 331 82 371 c 2,15,-1
 82 1227 l 2,16,17
 82 1267 82 1267 86.5 1312.5 c 128,-1,18
 91 1358 91 1358 111 1403 c 128,-1,19
 131 1448 131 1448 170.5 1489.5 c 128,-1,20
 210 1531 210 1531 279.5 1562.5 c 128,-1,21
 349 1594 349 1594 454 1613 c 128,-1,22
 559 1632 559 1632 710 1632 c 0,23,24
 862 1632 862 1632 968.5 1613 c 128,-1,25
 1075 1594 1075 1594 1146.5 1562.5 c 128,-1,26
 1218 1531 1218 1531 1259 1489.5 c 128,-1,27
 1300 1448 1300 1448 1320.5 1403 c 128,-1,28
 1341 1358 1341 1358 1346.5 1312.5 c 128,-1,29
 1352 1267 1352 1267 1352 1227 c 2,30,-1
 1352 371 l 2,31,32
 1352 331 1352 331 1346.5 285 c 128,-1,33
 1341 239 1341 239 1320.5 193.5 c 128,-1,34
 1300 148 1300 148 1259 106 c 128,-1,35
 1218 64 1218 64 1146.5 32 c 128,-1,36
 1075 0 1075 0 968.5 -19.5 c 128,-1,37
 862 -39 862 -39 710 -39 c 0,8,9
EndSplineSet
Validated: 1
EndChar

StartChar: omacron
Encoding: 333 333 268
Width: 1359
GlyphClass: 2
Flags: W
HStem: -39 276<542.41 814.69> 1060 283<542.41 814.69> 1475 336<222 1146>
VStem: 64 477<237.083 1058.69> 817 477<237.083 1058.69>
LayerCount: 2
Fore
SplineSet
1146 1811 m 1,0,-1
 1146 1475 l 1,1,-1
 222 1475 l 1,2,-1
 222 1811 l 1,3,-1
 1146 1811 l 1,0,-1
541 237 m 1,4,-1
 817 237 l 1,5,-1
 817 1060 l 1,6,-1
 541 1060 l 1,7,-1
 541 237 l 1,4,-1
685 -39 m 0,8,9
 535 -39 535 -39 430.5 -21 c 128,-1,10
 326 -3 326 -3 257 27 c 128,-1,11
 188 57 188 57 149.5 97 c 128,-1,12
 111 137 111 137 92 180 c 128,-1,13
 73 223 73 223 68.5 267.5 c 128,-1,14
 64 312 64 312 64 352 c 2,15,-1
 64 952 l 2,16,17
 64 992 64 992 68.5 1036.5 c 128,-1,18
 73 1081 73 1081 92 1124.5 c 128,-1,19
 111 1168 111 1168 149.5 1207.5 c 128,-1,20
 188 1247 188 1247 257 1277 c 128,-1,21
 326 1307 326 1307 430.5 1325 c 128,-1,22
 535 1343 535 1343 685 1343 c 0,23,24
 834 1343 834 1343 937.5 1325 c 128,-1,25
 1041 1307 1041 1307 1108.5 1277 c 128,-1,26
 1176 1247 1176 1247 1213.5 1207.5 c 128,-1,27
 1251 1168 1251 1168 1269 1124.5 c 128,-1,28
 1287 1081 1287 1081 1290.5 1036.5 c 128,-1,29
 1294 992 1294 992 1294 952 c 2,30,-1
 1294 352 l 2,31,32
 1294 312 1294 312 1290.5 267.5 c 128,-1,33
 1287 223 1287 223 1269 180 c 128,-1,34
 1251 137 1251 137 1213.5 97 c 128,-1,35
 1176 57 1176 57 1108.5 27 c 128,-1,36
 1041 -3 1041 -3 937.5 -21 c 128,-1,37
 834 -39 834 -39 685 -39 c 0,8,9
EndSplineSet
Validated: 1
EndChar

StartChar: OE
Encoding: 338 338 273
Width: 1784
GlyphClass: 2
Flags: W
HStem: 0 237<602.025 838 1354 1720> 711 250<1354 1698> 1358 237<602.025 838 1354 1720>
VStem: 84 517<237.466 1357.14> 838 516<237 711 961 1358>
LayerCount: 2
Fore
SplineSet
774 0 m 2,0,1
 602 0 602 0 484 16.5 c 128,-1,2
 366 33 366 33 289 61 c 128,-1,3
 212 89 212 89 170.5 125.5 c 128,-1,4
 129 162 129 162 110 203.5 c 128,-1,5
 91 245 91 245 87.5 288 c 128,-1,6
 84 331 84 331 84 371 c 2,7,-1
 84 1227 l 2,8,9
 84 1266 84 1266 87.5 1308.5 c 128,-1,10
 91 1351 91 1351 110 1392 c 128,-1,11
 129 1433 129 1433 170.5 1470 c 128,-1,12
 212 1507 212 1507 289 1534.5 c 128,-1,13
 366 1562 366 1562 484 1578.5 c 128,-1,14
 602 1595 602 1595 774 1595 c 2,15,-1
 1720 1595 l 1,16,-1
 1720 1358 l 1,17,-1
 1354 1358 l 1,18,-1
 1354 961 l 1,19,-1
 1698 961 l 1,20,-1
 1698 711 l 1,21,-1
 1354 711 l 1,22,-1
 1354 237 l 1,23,-1
 1720 237 l 1,24,-1
 1720 0 l 1,25,-1
 774 0 l 2,0,1
601 237 m 1,26,-1
 838 237 l 1,27,-1
 838 1358 l 1,28,-1
 601 1358 l 1,29,-1
 601 237 l 1,26,-1
EndSplineSet
Validated: 1
EndChar

StartChar: oe
Encoding: 339 339 274
Width: 2089
GlyphClass: 2
Flags: W
HStem: -36 273<564.231 797.258 1296.62 1527.96> 621 206<1295 1531> 1060 283<564.231 795.888 1296.52 1528.61>
VStem: 65 497<238.125 1059.58> 798 497<237 621 827 1060> 1531 497<238.125 555 827 1059.58>
CounterMasks: 1 1c
LayerCount: 2
Fore
SplineSet
2028 555 m 1,0,-1
 2028 369 l 2,1,2
 2028 329 2028 329 2027 283.5 c 128,-1,3
 2026 238 2026 238 2011 193 c 128,-1,4
 1996 148 1996 148 1960 106.5 c 128,-1,5
 1924 65 1924 65 1855 33.5 c 128,-1,6
 1786 2 1786 2 1676.5 -17 c 128,-1,7
 1567 -36 1567 -36 1405 -36 c 0,8,9
 1301 -36 1301 -36 1232.5 -22 c 128,-1,10
 1164 -8 1164 -8 1121 12 c 128,-1,11
 1078 32 1078 32 1056.5 55 c 128,-1,12
 1035 78 1035 78 1026 96 c 1,13,14
 1014 77 1014 77 988.5 54 c 128,-1,15
 963 31 963 31 920 11 c 128,-1,16
 877 -9 877 -9 813.5 -22.5 c 128,-1,17
 750 -36 750 -36 663 -36 c 0,18,19
 511 -36 511 -36 407.5 -17 c 128,-1,20
 304 2 304 2 237.5 33.5 c 128,-1,21
 171 65 171 65 135.5 106.5 c 128,-1,22
 100 148 100 148 84.5 193 c 128,-1,23
 69 238 69 238 67 283.5 c 128,-1,24
 65 329 65 329 65 369 c 2,25,-1
 65 932 l 2,26,27
 65 972 65 972 67 1018 c 128,-1,28
 69 1064 69 1064 84.5 1109.5 c 128,-1,29
 100 1155 100 1155 135.5 1197.5 c 128,-1,30
 171 1240 171 1240 237.5 1272 c 128,-1,31
 304 1304 304 1304 407.5 1323.5 c 128,-1,32
 511 1343 511 1343 663 1343 c 0,33,34
 754 1343 754 1343 819 1328.5 c 128,-1,35
 884 1314 884 1314 927.5 1293 c 128,-1,36
 971 1272 971 1272 994.5 1249.5 c 128,-1,37
 1018 1227 1018 1227 1026 1212 c 1,38,39
 1038 1229 1038 1229 1063 1251.5 c 128,-1,40
 1088 1274 1088 1274 1132 1294.5 c 128,-1,41
 1176 1315 1176 1315 1242.5 1329 c 128,-1,42
 1309 1343 1309 1343 1405 1343 c 0,43,44
 1568 1343 1568 1343 1677.5 1323.5 c 128,-1,45
 1787 1304 1787 1304 1856 1272 c 128,-1,46
 1925 1240 1925 1240 1960.5 1197.5 c 128,-1,47
 1996 1155 1996 1155 2011 1109.5 c 128,-1,48
 2026 1064 2026 1064 2027 1018 c 128,-1,49
 2028 972 2028 972 2028 932 c 2,50,-1
 2028 621 l 1,51,-1
 1295 621 l 1,52,-1
 1295 237 l 1,53,-1
 1531 237 l 1,54,-1
 1531 555 l 1,55,-1
 2028 555 l 1,0,-1
562 237 m 1,56,-1
 798 237 l 1,57,-1
 798 1060 l 1,58,-1
 562 1060 l 1,59,-1
 562 237 l 1,56,-1
1295 827 m 1,60,-1
 1531 827 l 1,61,-1
 1531 1060 l 1,62,-1
 1295 1060 l 1,63,-1
 1295 827 l 1,60,-1
EndSplineSet
Validated: 1
EndChar

StartChar: Tbar
Encoding: 358 358 293
Width: 1236
GlyphClass: 2
Flags: W
HStem: 0 21G<359 876> 654 336<165 359 876 1089> 1358 237<25 359 876 1212>
VStem: 359 517<0 654 990 1358>
LayerCount: 2
Fore
SplineSet
1212 1595 m 1,0,-1
 1212 1358 l 1,1,-1
 876 1358 l 1,2,-1
 876 990 l 1,3,-1
 1089 990 l 1,4,-1
 1089 654 l 1,5,-1
 876 654 l 1,6,-1
 876 0 l 1,7,-1
 359 0 l 1,8,-1
 359 654 l 1,9,-1
 165 654 l 1,10,-1
 165 990 l 1,11,-1
 359 990 l 1,12,-1
 359 1358 l 1,13,-1
 25 1358 l 1,14,-1
 25 1595 l 1,15,-1
 1212 1595 l 1,0,-1
EndSplineSet
Validated: 1
EndChar

StartChar: tbar
Encoding: 359 359 294
Width: 830
GlyphClass: 2
Flags: W
HStem: 0 21G<170 647> 597 200<25 170 647 806> 1100 200<27 170 647 811> 1575 20G<170 647>
VStem: 170 477<0 597 797 1100 1300 1595>
LayerCount: 2
Fore
SplineSet
806 797 m 1,0,-1
 806 597 l 1,1,-1
 647 597 l 1,2,-1
 647 0 l 1,3,-1
 170 0 l 1,4,-1
 170 597 l 1,5,-1
 25 597 l 1,6,-1
 25 797 l 1,7,-1
 170 797 l 1,8,-1
 170 1100 l 1,9,-1
 27 1100 l 1,10,-1
 27 1300 l 1,11,-1
 170 1300 l 1,12,-1
 170 1595 l 1,13,-1
 647 1595 l 1,14,-1
 647 1300 l 1,15,-1
 811 1300 l 1,16,-1
 811 1100 l 1,17,-1
 647 1100 l 1,18,-1
 647 797 l 1,19,-1
 806 797 l 1,0,-1
EndSplineSet
Validated: 1
EndChar

StartChar: Umacron
Encoding: 362 362 297
Width: 1464
GlyphClass: 2
Flags: W
HStem: -39 276<615.603 849.607> 1575 20G<97 614 850 1367> 1720 336<271 1195>
VStem: 97 517<237.695 1595> 850 517<237.695 1595>
LayerCount: 2
Fore
SplineSet
1195 2056 m 1,0,-1
 1195 1720 l 1,1,-1
 271 1720 l 1,2,-1
 271 2056 l 1,3,-1
 1195 2056 l 1,0,-1
614 237 m 1,4,-1
 850 237 l 1,5,-1
 850 1595 l 1,6,-1
 1367 1595 l 1,7,-1
 1367 371 l 2,8,9
 1367 331 1367 331 1361.5 285 c 128,-1,10
 1356 239 1356 239 1335.5 193.5 c 128,-1,11
 1315 148 1315 148 1274 106 c 128,-1,12
 1233 64 1233 64 1161.5 32 c 128,-1,13
 1090 0 1090 0 983.5 -19.5 c 128,-1,14
 877 -39 877 -39 726 -39 c 0,15,16
 576 -39 576 -39 470.5 -19.5 c 128,-1,17
 365 0 365 0 295 32 c 128,-1,18
 225 64 225 64 185.5 106 c 128,-1,19
 146 148 146 148 126.5 193.5 c 128,-1,20
 107 239 107 239 102 285 c 128,-1,21
 97 331 97 331 97 371 c 2,22,-1
 97 1595 l 1,23,-1
 614 1595 l 1,24,-1
 614 237 l 1,4,-1
EndSplineSet
Validated: 1
EndChar

StartChar: umacron
Encoding: 363 363 298
Width: 1395
GlyphClass: 2
Flags: W
HStem: -44 281<558 673.918> 0 21G<894.491 1311> 1475 336<237 1161>
VStem: 81 477<237.836 1300> 834 477<237 1300>
LayerCount: 2
Fore
SplineSet
1161 1811 m 1,0,-1
 1161 1475 l 1,1,-1
 237 1475 l 1,2,-1
 237 1811 l 1,3,-1
 1161 1811 l 1,0,-1
1311 1300 m 1,4,-1
 1311 0 l 1,5,-1
 900 0 l 1,6,-1
 854 167 l 1,7,8
 828 115 828 115 786 75.5 c 128,-1,9
 744 36 744 36 692 9.5 c 128,-1,10
 640 -17 640 -17 581 -30.5 c 128,-1,11
 522 -44 522 -44 461 -44 c 0,12,13
 390 -44 390 -44 321.5 -21 c 128,-1,14
 253 2 253 2 199.5 48.5 c 128,-1,15
 146 95 146 95 113.5 166 c 128,-1,16
 81 237 81 237 81 332 c 2,17,-1
 81 1300 l 1,18,-1
 558 1300 l 1,19,-1
 558 237 l 1,20,-1
 834 237 l 1,21,-1
 834 1300 l 1,22,-1
 1311 1300 l 1,4,-1
EndSplineSet
Validated: 1
EndChar

StartChar: florin
Encoding: 402 402 318
Width: 1042
GlyphClass: 2
Flags: W
HStem: -434 257<-101.102 77> -383 206<-102 77> 998 202<41 205 756 1017> 1377 254<775 1051>
LayerCount: 2
Fore
SplineSet
622 -17 m 2,0,1
 610 -131 610 -131 571.5 -210.5 c 128,-1,2
 533 -290 533 -290 474.5 -339.5 c 128,-1,3
 416 -389 416 -389 340 -411.5 c 128,-1,4
 264 -434 264 -434 177 -434 c 0,5,6
 107 -434 107 -434 31 -420.5 c 128,-1,7
 -45 -407 -45 -407 -123 -383 c 1,8,-1
 -102 -177 l 1,9,-1
 77 -177 l 1,10,-1
 205 998 l 1,11,-1
 18 998 l 1,12,-1
 41 1200 l 1,13,-1
 228 1200 l 1,14,-1
 230 1217 l 2,15,16
 242 1320 242 1320 272 1398 c 128,-1,17
 302 1476 302 1476 361 1527.5 c 128,-1,18
 420 1579 420 1579 513.5 1605 c 128,-1,19
 607 1631 607 1631 747 1631 c 0,20,21
 841 1631 841 1631 902.5 1623.5 c 128,-1,22
 964 1616 964 1616 1003 1606 c 0,23,24
 1022 1601 1022 1601 1040 1596 c 128,-1,25
 1058 1591 1058 1591 1072 1583 c 1,26,-1
 1051 1377 l 1,27,-1
 775 1377 l 1,28,-1
 756 1200 l 1,29,-1
 1038 1200 l 1,30,-1
 1017 998 l 1,31,-1
 733 998 l 1,32,-1
 622 -17 l 2,0,1
EndSplineSet
Validated: 1
EndChar

StartChar: AEmacron
Encoding: 482 482 330
Width: 1741
GlyphClass: 2
Flags: W
HStem: 0 244<1327 1676> 348 230<679 836> 711 250<1327 1655> 1354 241<1327 1676> 1673 336<599 1523>
VStem: 836 491<244 348 578 711 961 1217>
LayerCount: 2
Fore
SplineSet
1523 2009 m 1,0,-1
 1523 1673 l 1,1,-1
 599 1673 l 1,2,-1
 599 2009 l 1,3,-1
 1523 2009 l 1,0,-1
613 348 m 1,4,-1
 513 0 l 1,5,-1
 -23 0 l 1,6,-1
 552 1595 l 1,7,-1
 1676 1595 l 1,8,-1
 1676 1354 l 1,9,-1
 1327 1354 l 1,10,-1
 1327 961 l 1,11,-1
 1655 961 l 1,12,-1
 1655 711 l 1,13,-1
 1327 711 l 1,14,-1
 1327 244 l 1,15,-1
 1676 244 l 1,16,-1
 1676 0 l 1,17,-1
 836 0 l 1,18,-1
 836 348 l 1,19,-1
 613 348 l 1,4,-1
679 578 m 1,20,-1
 836 578 l 1,21,-1
 836 1217 l 1,22,-1
 679 578 l 1,20,-1
EndSplineSet
Validated: 1
EndChar

StartChar: aemacron
Encoding: 483 483 331
Width: 2044
GlyphClass: 2
Flags: W
HStem: -36 273<521.637 755.476 1255.21 1487.2> 579 178<1254 1491> 602 193<523.303 757> 1060 283<522.589 756.723 1255.28 1490.56> 1417 336<545 1469>
VStem: 24 497<237.983 574.203> 94 427<895.219 1058.91> 757 497<237 579 782 1060> 1491 496<237.032 450 757 1059.66>
LayerCount: 2
Fore
SplineSet
1469 1753 m 1,0,-1
 1469 1417 l 1,1,-1
 545 1417 l 1,2,-1
 545 1753 l 1,3,-1
 1469 1753 l 1,0,-1
1987 451 m 1,4,5
 1987 380 1987 380 1982.5 316.5 c 128,-1,6
 1978 253 1978 253 1959 198.5 c 128,-1,7
 1940 144 1940 144 1900.5 101 c 128,-1,8
 1861 58 1861 58 1791.5 27.5 c 128,-1,9
 1722 -3 1722 -3 1616.5 -19.5 c 128,-1,10
 1511 -36 1511 -36 1359 -36 c 0,11,12
 1265 -36 1265 -36 1200 -16.5 c 128,-1,13
 1135 3 1135 3 1092 27 c 0,14,15
 1041 55 1041 55 1009 90 c 1,16,17
 976 54 976 54 914 27 c 0,18,19
 861 3 861 3 770 -16.5 c 128,-1,20
 679 -36 679 -36 538 -36 c 0,21,22
 406 -36 406 -36 309 -2.5 c 128,-1,23
 212 31 212 31 148.5 86.5 c 128,-1,24
 85 142 85 142 54.5 215 c 128,-1,25
 24 288 24 288 24 368 c 0,26,27
 24 447 24 447 48 523.5 c 128,-1,28
 72 600 72 600 133.5 660.5 c 128,-1,29
 195 721 195 721 300 758 c 128,-1,30
 405 795 405 795 568 795 c 0,31,32
 613 795 613 795 659.5 792 c 128,-1,33
 706 789 706 789 757 782 c 1,34,-1
 757 1060 l 1,35,-1
 521 1060 l 1,36,-1
 521 893 l 1,37,-1
 119 894 l 1,38,39
 108 933 108 933 101 971 c 128,-1,40
 94 1009 94 1009 94 1044 c 0,41,42
 94 1104 94 1104 120 1158.5 c 128,-1,43
 146 1213 146 1213 211.5 1254 c 128,-1,44
 277 1295 277 1295 388 1319 c 128,-1,45
 499 1343 499 1343 669 1343 c 0,46,47
 759 1343 759 1343 821 1330.5 c 128,-1,48
 883 1318 883 1318 925 1303 c 0,49,50
 973 1285 973 1285 1004 1263 c 1,51,52
 1040 1284 1040 1284 1094 1303 c 0,53,54
 1139 1318 1139 1318 1205 1330.5 c 128,-1,55
 1271 1343 1271 1343 1359 1343 c 0,56,57
 1510 1343 1510 1343 1615.5 1325 c 128,-1,58
 1721 1307 1721 1307 1791 1277 c 128,-1,59
 1861 1247 1861 1247 1900.5 1207.5 c 128,-1,60
 1940 1168 1940 1168 1959 1125 c 128,-1,61
 1978 1082 1978 1082 1982.5 1037.5 c 128,-1,62
 1987 993 1987 993 1987 954 c 2,63,-1
 1987 579 l 1,64,-1
 1254 579 l 1,65,-1
 1254 237 l 1,66,-1
 1491 237 l 1,67,-1
 1491 450 l 1,68,-1
 1987 451 l 1,4,5
521 602 m 1,69,-1
 521 237 l 1,70,-1
 757 237 l 1,71,-1
 757 602 l 1,72,-1
 521 602 l 1,69,-1
1254 757 m 1,73,-1
 1491 757 l 1,74,-1
 1491 1060 l 1,75,-1
 1254 1060 l 1,76,-1
 1254 757 l 1,73,-1
EndSplineSet
Validated: 1
EndChar

StartChar: dotlessj
Encoding: 567 567 365
Width: 665
GlyphClass: 2
Flags: W
HStem: -332 266<-106.541 84> -285 219<-113 83.875>
VStem: 84 497<-63.5547 1300>
LayerCount: 2
Fore
SplineSet
84 1300 m 1,0,-1
 581 1300 l 1,1,-1
 581 94 l 2,2,3
 581 -5 581 -5 549.5 -83.5 c 128,-1,4
 518 -162 518 -162 460.5 -217.5 c 128,-1,5
 403 -273 403 -273 322.5 -302.5 c 128,-1,6
 242 -332 242 -332 145 -332 c 0,7,8
 85 -332 85 -332 20.5 -320.5 c 128,-1,9
 -44 -309 -44 -309 -113 -285 c 1,10,-1
 -113 -66 l 1,11,-1
 84 -66 l 1,12,-1
 84 1300 l 1,0,-1
EndSplineSet
Validated: 1
EndChar

StartChar: circumflex
Encoding: 710 710 366
Width: 1706
GlyphClass: 2
Flags: W
HStem: 61 615<38 226 382 561>
LayerCount: 2
Fore
SplineSet
1084 676 m 1,0,-1
 1340 61 l 1,1,-1
 905 61 l 1,2,-1
 825 381 l 1,3,-1
 749 61 l 1,4,-1
 315 61 l 1,5,-1
 561 676 l 1,6,-1
 1084 676 l 1,0,-1
EndSplineSet
Validated: 1
EndChar

StartChar: caron
Encoding: 711 711 367
Width: 1706
GlyphClass: 2
Flags: W
HStem: 82 614<561 749 905 1084>
LayerCount: 2
Fore
SplineSet
561 82 m 1,0,-1
 315 696 l 1,1,-1
 749 696 l 1,2,-1
 825 377 l 1,3,-1
 905 696 l 1,4,-1
 1340 696 l 1,5,-1
 1084 82 l 1,6,-1
 561 82 l 1,0,-1
EndSplineSet
Validated: 1
EndChar

StartChar: breve
Encoding: 728 728 368
Width: 1288
GlyphClass: 2
Flags: W
HStem: 70 403<453.369 674.865>
VStem: 150 272<503.373 731> 705.5 271.5<503.373 731>
LayerCount: 2
Fore
SplineSet
568 70 m 0,0,1
 461 70 461 70 382 103.5 c 128,-1,2
 303 137 303 137 251.5 214.5 c 128,-1,3
 200 292 200 292 175 418.5 c 128,-1,4
 150 545 150 545 150 731 c 1,5,-1
 419 731 l 1,6,7
 419 671 419 671 422 623.5 c 128,-1,8
 425 576 425 576 439 542.5 c 128,-1,9
 453 509 453 509 483.5 491 c 128,-1,10
 514 473 514 473 568 473 c 0,11,12
 619 473 619 473 647.5 491 c 128,-1,13
 676 509 676 509 689.5 542.5 c 128,-1,14
 703 576 703 576 705.5 624 c 128,-1,15
 708 672 708 672 708 731 c 1,16,-1
 977 731 l 1,17,18
 977 545 977 545 952 418.5 c 128,-1,19
 927 292 927 292 876.5 214.5 c 128,-1,20
 826 137 826 137 749 103.5 c 128,-1,21
 672 70 672 70 568 70 c 0,0,1
EndSplineSet
Validated: 1
EndChar

StartChar: dotaccent
Encoding: 729 729 369
Width: 698
GlyphClass: 2
Flags: W
HStem: 0 467<80 538>
VStem: 80 458<0 467>
LayerCount: 2
Fore
SplineSet
538 0 m 1,0,-1
 80 0 l 1,1,-1
 80 467 l 1,2,-1
 538 467 l 1,3,-1
 538 0 l 1,0,-1
EndSplineSet
Validated: 1
EndChar

StartChar: ring
Encoding: 730 730 370
Width: 774
GlyphClass: 2
Flags: W
HStem: 141 178<285.245 460.788> 538 183<285.827 460.206>
VStem: 53 211<340.268 515.738> 482 213<340.268 515.738>
LayerCount: 2
Fore
SplineSet
375 141 m 0,0,1
 307 141 307 141 248.5 164 c 128,-1,2
 190 187 190 187 146.5 226 c 128,-1,3
 103 265 103 265 78 317.5 c 128,-1,4
 53 370 53 370 53 430 c 0,5,6
 53 491 53 491 78 544 c 128,-1,7
 103 597 103 597 146.5 636.5 c 128,-1,8
 190 676 190 676 248.5 698.5 c 128,-1,9
 307 721 307 721 375 721 c 0,10,11
 441 721 441 721 499 698.5 c 128,-1,12
 557 676 557 676 600.5 636.5 c 128,-1,13
 644 597 644 597 669.5 544 c 128,-1,14
 695 491 695 491 695 430 c 0,15,16
 695 370 695 370 669.5 317.5 c 128,-1,17
 644 265 644 265 600.5 226 c 128,-1,18
 557 187 557 187 499 164 c 128,-1,19
 441 141 441 141 375 141 c 0,0,1
373 319 m 0,20,21
 395 319 395 319 415 327.5 c 128,-1,22
 435 336 435 336 450 350.5 c 128,-1,23
 465 365 465 365 473.5 385 c 128,-1,24
 482 405 482 405 482 428 c 0,25,26
 482 450 482 450 473.5 470 c 128,-1,27
 465 490 465 490 450 505 c 128,-1,28
 435 520 435 520 415 529 c 128,-1,29
 395 538 395 538 373 538 c 0,30,31
 350 538 350 538 330.5 529 c 128,-1,32
 311 520 311 520 296 505 c 128,-1,33
 281 490 281 490 272.5 470 c 128,-1,34
 264 450 264 450 264 428 c 0,35,36
 264 405 264 405 272.5 385 c 128,-1,37
 281 365 281 365 296 350.5 c 128,-1,38
 311 336 311 336 330.5 327.5 c 128,-1,39
 350 319 350 319 373 319 c 0,20,21
EndSplineSet
Validated: 1
EndChar

StartChar: ogonek
Encoding: 731 731 371
Width: 1288
GlyphClass: 2
Flags: W
HStem: 0 79<598.631 723>
VStem: 276 227<-402.5 -174.254>
LayerCount: 2
Fore
SplineSet
722 -737 m 1,0,1
 605 -737 605 -737 520.5 -706 c 128,-1,2
 436 -675 436 -675 382 -623.5 c 128,-1,3
 328 -572 328 -572 302 -505 c 128,-1,4
 276 -438 276 -438 276 -367 c 0,5,6
 276 -286 276 -286 307 -206 c 128,-1,7
 338 -126 338 -126 396 -63 c 128,-1,8
 454 0 454 0 536.5 39.5 c 128,-1,9
 619 79 619 79 723 79 c 1,10,-1
 723 0 l 1,11,12
 672 0 672 0 631 -20 c 128,-1,13
 590 -40 590 -40 561.5 -72.5 c 128,-1,14
 533 -105 533 -105 518 -146 c 128,-1,15
 503 -187 503 -187 503 -229 c 0,16,17
 503 -267 503 -267 515.5 -301.5 c 128,-1,18
 528 -336 528 -336 555 -363 c 128,-1,19
 582 -390 582 -390 623.5 -406 c 128,-1,20
 665 -422 665 -422 722 -422 c 1,21,-1
 722 -737 l 1,0,1
EndSplineSet
Validated: 1
EndChar

StartChar: tilde
Encoding: 732 732 372
Width: 1288
GlyphClass: 2
Flags: W
HStem: 70 443<253.534 420.094> 260 446<663.9 823.026>
VStem: -41 268<536.076 681> 850 269<96 235.985>
LayerCount: 2
Fore
SplineSet
751 260 m 0,0,1
 726 260 726 260 704.5 246 c 128,-1,2
 683 232 683 232 658.5 211 c 128,-1,3
 634 190 634 190 605 165 c 128,-1,4
 576 140 576 140 537 119 c 128,-1,5
 498 98 498 98 446.5 84 c 128,-1,6
 395 70 395 70 326 70 c 0,7,8
 237 70 237 70 168.5 96 c 128,-1,9
 100 122 100 122 53.5 190 c 128,-1,10
 7 258 7 258 -17 376.5 c 128,-1,11
 -41 495 -41 495 -41 681 c 1,12,-1
 227 681 l 1,13,14
 227 648 227 648 232 617.5 c 128,-1,15
 237 587 237 587 249 564 c 128,-1,16
 261 541 261 541 280 527 c 128,-1,17
 299 513 299 513 328 513 c 0,18,19
 353 513 353 513 377 527.5 c 128,-1,20
 401 542 401 542 427 563 c 128,-1,21
 453 584 453 584 483.5 609.5 c 128,-1,22
 514 635 514 635 553 656 c 128,-1,23
 592 677 592 677 640.5 691.5 c 128,-1,24
 689 706 689 706 751 706 c 0,25,26
 840 706 840 706 909 680.5 c 128,-1,27
 978 655 978 655 1024.5 587 c 128,-1,28
 1071 519 1071 519 1095 400.5 c 128,-1,29
 1119 282 1119 282 1119 96 c 1,30,-1
 850 96 l 1,31,32
 850 124 850 124 845 153 c 128,-1,33
 840 182 840 182 828.5 206 c 128,-1,34
 817 230 817 230 798 245 c 128,-1,35
 779 260 779 260 751 260 c 0,0,1
EndSplineSet
Validated: 1
EndChar

StartChar: hungarumlaut
Encoding: 733 733 373
Width: 2570
GlyphClass: 2
Flags: W
LayerCount: 2
Fore
SplineSet
1274 957 m 1,0,-1
 1004 30 l 1,1,-1
 821 30 l 1,2,-1
 821 1015 l 1,3,-1
 1274 957 l 1,0,-1
1789 953 m 1,4,-1
 1519 30 l 1,5,-1
 1336 30 l 1,6,-1
 1336 1011 l 1,7,-1
 1789 953 l 1,4,-1
EndSplineSet
Validated: 1
EndChar

StartChar: endash
Encoding: 8211 8211 377
Width: 918
GlyphClass: 2
Flags: W
HStem: 461 436<82 835>
LayerCount: 2
Fore
SplineSet
835 897 m 1,0,-1
 835 461 l 1,1,-1
 82 461 l 1,2,-1
 82 897 l 1,3,-1
 835 897 l 1,0,-1
EndSplineSet
Validated: 1
EndChar

StartChar: emdash
Encoding: 8212 8212 378
Width: 1689
GlyphClass: 2
Flags: W
HStem: 461 436<82 1606>
LayerCount: 2
Fore
SplineSet
1606 897 m 1,0,-1
 1606 461 l 1,1,-1
 82 461 l 1,2,-1
 82 897 l 1,3,-1
 1606 897 l 1,0,-1
EndSplineSet
Validated: 1
EndChar

StartChar: quoteleft
Encoding: 8216 8216 379
Width: 635
GlyphClass: 2
Flags: W
HStem: 1436 199<429.616 540>
VStem: 71 492<781 1267.9>
LayerCount: 2
Fore
SplineSet
540 1436 m 1,0,1
 487 1424 487 1424 446 1401 c 0,2,3
 428 1391 428 1391 411.5 1378.5 c 128,-1,4
 395 1366 395 1366 382 1349.5 c 128,-1,5
 369 1333 369 1333 361 1312.5 c 128,-1,6
 353 1292 353 1292 353 1268 c 1,7,-1
 563 1268 l 1,8,-1
 563 781 l 1,9,-1
 71 781 l 1,10,-1
 71 1118 l 2,11,12
 71 1269 71 1269 103 1369 c 128,-1,13
 135 1469 135 1469 195.5 1528 c 128,-1,14
 256 1587 256 1587 343 1611 c 128,-1,15
 430 1635 430 1635 540 1635 c 1,16,-1
 540 1436 l 1,0,1
EndSplineSet
Validated: 1
EndChar

StartChar: quoteright
Encoding: 8217 8217 380
Width: 622
GlyphClass: 2
Flags: W
HStem: 749 199<95 202.323> 1583 20G<71 563>
VStem: 71 492<1119.32 1603>
LayerCount: 2
Fore
SplineSet
95 948 m 1,0,1
 146 960 146 960 188 983 c 0,2,3
 206 993 206 993 222.5 1005.5 c 128,-1,4
 239 1018 239 1018 252.5 1034.5 c 128,-1,5
 266 1051 266 1051 274 1071.5 c 128,-1,6
 282 1092 282 1092 282 1116 c 1,7,-1
 71 1116 l 1,8,-1
 71 1603 l 1,9,-1
 563 1603 l 1,10,-1
 563 1266 l 2,11,12
 563 1114 563 1114 531 1014.5 c 128,-1,13
 499 915 499 915 439 856 c 128,-1,14
 379 797 379 797 292 773 c 128,-1,15
 205 749 205 749 95 749 c 1,16,-1
 95 948 l 1,0,1
EndSplineSet
Validated: 1
EndChar

StartChar: quotedblleft
Encoding: 8220 8220 382
Width: 1194
GlyphClass: 2
Flags: W
HStem: 781 487<353 563 910 1122> 1436 199<429.616 540 986.757 1097>
VStem: 71 492<781 1267.9> 628 494<781 1267.9>
LayerCount: 2
Fore
SplineSet
540 1436 m 1,0,1
 487 1424 487 1424 446 1401 c 0,2,3
 428 1391 428 1391 411.5 1378.5 c 128,-1,4
 395 1366 395 1366 382 1349.5 c 128,-1,5
 369 1333 369 1333 361 1312.5 c 128,-1,6
 353 1292 353 1292 353 1268 c 1,7,-1
 563 1268 l 1,8,-1
 563 781 l 1,9,-1
 71 781 l 1,10,-1
 71 1118 l 2,11,12
 71 1269 71 1269 103 1369 c 128,-1,13
 135 1469 135 1469 195.5 1528 c 128,-1,14
 256 1587 256 1587 343 1611 c 128,-1,15
 430 1635 430 1635 540 1635 c 1,16,-1
 540 1436 l 1,0,1
1097 1436 m 1,17,18
 1044 1424 1044 1424 1003 1401 c 0,19,20
 985 1391 985 1391 968.5 1378.5 c 128,-1,21
 952 1366 952 1366 939 1349.5 c 128,-1,22
 926 1333 926 1333 918 1312.5 c 128,-1,23
 910 1292 910 1292 910 1268 c 1,24,-1
 1122 1268 l 1,25,-1
 1122 781 l 1,26,-1
 628 781 l 1,27,-1
 628 1118 l 2,28,29
 628 1269 628 1269 660 1369 c 128,-1,30
 692 1469 692 1469 753 1528 c 128,-1,31
 814 1587 814 1587 900.5 1611 c 128,-1,32
 987 1635 987 1635 1097 1635 c 1,33,-1
 1097 1436 l 1,17,18
EndSplineSet
Validated: 1
EndChar

StartChar: quotedblright
Encoding: 8221 8221 383
Width: 1184
GlyphClass: 2
Flags: W
HStem: 749 199<95 202.323 656 763.323> 1116 487<71 282 632 843>
VStem: 71 492<1119.32 1603> 632 492<1119.32 1603>
LayerCount: 2
Fore
SplineSet
95 948 m 1,0,1
 146 960 146 960 188 983 c 0,2,3
 206 993 206 993 222.5 1005.5 c 128,-1,4
 239 1018 239 1018 252.5 1034.5 c 128,-1,5
 266 1051 266 1051 274 1071.5 c 128,-1,6
 282 1092 282 1092 282 1116 c 1,7,-1
 71 1116 l 1,8,-1
 71 1603 l 1,9,-1
 563 1603 l 1,10,-1
 563 1266 l 2,11,12
 563 1114 563 1114 531 1014.5 c 128,-1,13
 499 915 499 915 439 856 c 128,-1,14
 379 797 379 797 292 773 c 128,-1,15
 205 749 205 749 95 749 c 1,16,-1
 95 948 l 1,0,1
656 948 m 1,17,18
 707 960 707 960 749 983 c 0,19,20
 767 993 767 993 783.5 1005.5 c 128,-1,21
 800 1018 800 1018 813.5 1034.5 c 128,-1,22
 827 1051 827 1051 835 1071.5 c 128,-1,23
 843 1092 843 1092 843 1116 c 1,24,-1
 632 1116 l 1,25,-1
 632 1603 l 1,26,-1
 1124 1603 l 1,27,-1
 1124 1266 l 2,28,29
 1124 1114 1124 1114 1092 1014.5 c 128,-1,30
 1060 915 1060 915 1000 856 c 128,-1,31
 940 797 940 797 853 773 c 128,-1,32
 766 749 766 749 656 749 c 1,33,-1
 656 948 l 1,17,18
EndSplineSet
Validated: 1
EndChar

StartChar: quotedblbase
Encoding: 8222 8222 384
Width: 1099
GlyphClass: 2
Flags: W
HStem: -507 806<141 429 669 957>
VStem: 141 288<-507 -371.061> 669 288<-507 -371.061>
LayerCount: 2
Fore
SplineSet
429 -507 m 1,0,-1
 141 -507 l 1,1,-1
 56 299 l 1,2,-1
 514 299 l 1,3,-1
 429 -507 l 1,0,-1
957 -507 m 1,4,-1
 669 -507 l 1,5,-1
 584 299 l 1,6,-1
 1042 299 l 1,7,-1
 957 -507 l 1,4,-1
EndSplineSet
Validated: 1
EndChar

StartChar: dagger
Encoding: 8224 8224 385
Width: 1138
GlyphClass: 2
Flags: W
HStem: 0 21G<304 825> 900 400<41 304 825 1097> 1575 20G<317 825>
VStem: 304 521<0 900 1300 1595>
LayerCount: 2
Fore
SplineSet
825 0 m 1,0,-1
 304 0 l 1,1,-1
 304 900 l 1,2,-1
 41 900 l 1,3,-1
 41 1300 l 1,4,-1
 317 1300 l 1,5,-1
 317 1595 l 1,6,-1
 825 1595 l 1,7,-1
 825 1300 l 1,8,-1
 1097 1300 l 1,9,-1
 1097 900 l 1,10,-1
 825 900 l 1,11,-1
 825 0 l 1,0,-1
EndSplineSet
Validated: 1
EndChar

StartChar: daggerdbl
Encoding: 8225 8225 386
Width: 1192
GlyphClass: 2
Flags: W
HStem: 0 21G<332 852> 295 400<68 332 852 1124> 900 400<68 332 852 1124> 1575 20G<332 852>
VStem: 68 1056<295 695 900 1300> 332 520<0 295 695 900 1300 1595>
LayerCount: 2
Fore
SplineSet
852 695 m 1,0,-1
 1124 695 l 1,1,-1
 1124 295 l 1,2,-1
 852 295 l 1,3,-1
 852 0 l 1,4,-1
 332 0 l 1,5,-1
 332 295 l 1,6,-1
 68 295 l 1,7,-1
 68 695 l 1,8,-1
 332 695 l 1,9,-1
 332 900 l 1,10,-1
 68 900 l 1,11,-1
 68 1300 l 1,12,-1
 332 1300 l 1,13,-1
 332 1595 l 1,14,-1
 852 1595 l 1,15,-1
 852 1300 l 1,16,-1
 1124 1300 l 1,17,-1
 1124 900 l 1,18,-1
 852 900 l 1,19,-1
 852 695 l 1,0,-1
EndSplineSet
Validated: 1
EndChar

StartChar: bullet
Encoding: 8226 8226 387
Width: 1017
GlyphClass: 2
Flags: W
VStem: 65 888<408.537 1042.37>
LayerCount: 2
Fore
SplineSet
953 726 m 256,0,1
 953 584 953 584 930.5 486 c 128,-1,2
 908 388 908 388 871.5 325 c 128,-1,3
 835 262 835 262 788.5 227.5 c 128,-1,4
 742 193 742 193 694.5 177 c 128,-1,5
 647 161 647 161 602 158.5 c 128,-1,6
 557 156 557 156 523 156 c 0,7,8
 476 156 476 156 423.5 159 c 128,-1,9
 371 162 371 162 320 178 c 128,-1,10
 269 194 269 194 223 228.5 c 128,-1,11
 177 263 177 263 142 326.5 c 128,-1,12
 107 390 107 390 86 487 c 128,-1,13
 65 584 65 584 65 726 c 0,14,15
 65 867 65 867 86 964 c 128,-1,16
 107 1061 107 1061 142 1124 c 128,-1,17
 177 1187 177 1187 223 1221.5 c 128,-1,18
 269 1256 269 1256 320 1272 c 128,-1,19
 371 1288 371 1288 423.5 1291 c 128,-1,20
 476 1294 476 1294 523 1294 c 0,21,22
 557 1294 557 1294 602 1291.5 c 128,-1,23
 647 1289 647 1289 694.5 1273 c 128,-1,24
 742 1257 742 1257 788.5 1223 c 128,-1,25
 835 1189 835 1189 871.5 1126 c 128,-1,26
 908 1063 908 1063 930.5 965.5 c 128,-1,27
 953 868 953 868 953 726 c 256,0,1
EndSplineSet
Validated: 1
EndChar

StartChar: ellipsis
Encoding: 8230 8230 388
Width: 1790
GlyphClass: 2
Flags: W
HStem: 0 467<79 537 667 1125 1254 1712>
VStem: 79 458<0 467> 667 458<0 467> 1254 458<0 467>
LayerCount: 2
Fore
SplineSet
537 0 m 1,0,-1
 79 0 l 1,1,-1
 79 467 l 1,2,-1
 537 467 l 1,3,-1
 537 0 l 1,0,-1
1125 0 m 1,4,-1
 667 0 l 1,5,-1
 667 467 l 1,6,-1
 1125 467 l 1,7,-1
 1125 0 l 1,4,-1
1712 0 m 1,8,-1
 1254 0 l 1,9,-1
 1254 467 l 1,10,-1
 1712 467 l 1,11,-1
 1712 0 l 1,8,-1
EndSplineSet
Validated: 1
EndChar

StartChar: perthousand
Encoding: 8240 8240 389
Width: 3539
GlyphClass: 2
Flags: W
HStem: -40 21G<887 1310.96> 75 215<1910.27 2147.67 2918.27 3155.67> 454 215<385.209 625.672> 955 219<1910.27 2147.67 2918.27 3155.67> 1334 219<385.209 625.672>
VStem: 52 333<669.918 1333.91> 627 329<669.918 1333.91> 1576 333<290.842 954.788> 2150 329<290.842 954.788> 2584 333<290.842 954.788> 3158 329<290.842 954.788>
LayerCount: 2
Fore
SplineSet
3158 955 m 1,0,-1
 2917 955 l 1,1,-1
 2917 290 l 1,2,-1
 3158 290 l 1,3,-1
 3158 955 l 1,0,-1
3034 75 m 256,4,5
 2921 75 2921 75 2844 89 c 128,-1,6
 2767 103 2767 103 2717 127 c 128,-1,7
 2667 151 2667 151 2640 182 c 128,-1,8
 2613 213 2613 213 2600.5 248 c 128,-1,9
 2588 283 2588 283 2586 318.5 c 128,-1,10
 2584 354 2584 354 2584 386 c 2,11,-1
 2584 863 l 2,12,13
 2584 895 2584 895 2586 930.5 c 128,-1,14
 2588 966 2588 966 2600.5 1000.5 c 128,-1,15
 2613 1035 2613 1035 2640 1066.5 c 128,-1,16
 2667 1098 2667 1098 2717 1122 c 128,-1,17
 2767 1146 2767 1146 2844 1160 c 128,-1,18
 2921 1174 2921 1174 3034 1174 c 256,19,20
 3147 1174 3147 1174 3224.5 1160 c 128,-1,21
 3302 1146 3302 1146 3352.5 1122 c 128,-1,22
 3403 1098 3403 1098 3430.5 1066.5 c 128,-1,23
 3458 1035 3458 1035 3470.5 1000.5 c 128,-1,24
 3483 966 3483 966 3485 930.5 c 128,-1,25
 3487 895 3487 895 3487 863 c 2,26,-1
 3487 386 l 2,27,28
 3487 354 3487 354 3485 318.5 c 128,-1,29
 3483 283 3483 283 3470.5 248 c 128,-1,30
 3458 213 3458 213 3430.5 182 c 128,-1,31
 3403 151 3403 151 3352.5 127 c 128,-1,32
 3302 103 3302 103 3224.5 89 c 128,-1,33
 3147 75 3147 75 3034 75 c 256,4,5
627 1334 m 1,34,-1
 385 1334 l 1,35,-1
 385 669 l 1,36,-1
 627 669 l 1,37,-1
 627 1334 l 1,34,-1
504 454 m 256,38,39
 391 454 391 454 313.5 468 c 128,-1,40
 236 482 236 482 186 506 c 128,-1,41
 136 530 136 530 108.5 561.5 c 128,-1,42
 81 593 81 593 68.5 627.5 c 128,-1,43
 56 662 56 662 54 697.5 c 128,-1,44
 52 733 52 733 52 765 c 2,45,-1
 52 1244 l 2,46,47
 52 1276 52 1276 54 1311 c 128,-1,48
 56 1346 56 1346 68.5 1380.5 c 128,-1,49
 81 1415 81 1415 108.5 1446 c 128,-1,50
 136 1477 136 1477 186 1501 c 128,-1,51
 236 1525 236 1525 313.5 1539 c 128,-1,52
 391 1553 391 1553 504 1553 c 256,53,54
 617 1553 617 1553 694.5 1539 c 128,-1,55
 772 1525 772 1525 822 1501 c 128,-1,56
 872 1477 872 1477 899.5 1446 c 128,-1,57
 927 1415 927 1415 939.5 1380.5 c 128,-1,58
 952 1346 952 1346 954 1311 c 128,-1,59
 956 1276 956 1276 956 1244 c 2,60,-1
 956 765 l 2,61,62
 956 733 956 733 954 697.5 c 128,-1,63
 952 662 952 662 939.5 627.5 c 128,-1,64
 927 593 927 593 899.5 561.5 c 128,-1,65
 872 530 872 530 822 506 c 128,-1,66
 772 482 772 482 694.5 468 c 128,-1,67
 617 454 617 454 504 454 c 256,38,39
2150 955 m 1,68,-1
 1909 955 l 1,69,-1
 1909 290 l 1,70,-1
 2150 290 l 1,71,-1
 2150 955 l 1,68,-1
2026 75 m 256,72,73
 1913 75 1913 75 1836 89 c 128,-1,74
 1759 103 1759 103 1709 127 c 128,-1,75
 1659 151 1659 151 1632 182 c 128,-1,76
 1605 213 1605 213 1592.5 248 c 128,-1,77
 1580 283 1580 283 1578 318.5 c 128,-1,78
 1576 354 1576 354 1576 386 c 2,79,-1
 1576 863 l 2,80,81
 1576 895 1576 895 1578 930.5 c 128,-1,82
 1580 966 1580 966 1592.5 1000.5 c 128,-1,83
 1605 1035 1605 1035 1632 1066.5 c 128,-1,84
 1659 1098 1659 1098 1709 1122 c 128,-1,85
 1759 1146 1759 1146 1836 1160 c 128,-1,86
 1913 1174 1913 1174 2026 1174 c 256,87,88
 2139 1174 2139 1174 2216.5 1160 c 128,-1,89
 2294 1146 2294 1146 2344.5 1122 c 128,-1,90
 2395 1098 2395 1098 2422.5 1066.5 c 128,-1,91
 2450 1035 2450 1035 2462.5 1000.5 c 128,-1,92
 2475 966 2475 966 2477 930.5 c 128,-1,93
 2479 895 2479 895 2479 863 c 2,94,-1
 2479 386 l 2,95,96
 2479 354 2479 354 2477 318.5 c 128,-1,97
 2475 283 2475 283 2462.5 248 c 128,-1,98
 2450 213 2450 213 2422.5 182 c 128,-1,99
 2395 151 2395 151 2344.5 127 c 128,-1,100
 2294 103 2294 103 2216.5 89 c 128,-1,101
 2139 75 2139 75 2026 75 c 256,72,73
1646 1670 m 1,102,-1
 1307 -40 l 1,103,-1
 887 -40 l 1,104,-1
 1231 1670 l 1,105,-1
 1646 1670 l 1,102,-1
EndSplineSet
Validated: 1
EndChar

StartChar: guilsinglleft
Encoding: 8249 8249 390
Width: 917
GlyphClass: 2
Flags: W
HStem: 0 21G<807.607 840> 1575 20G<808.129 840>
LayerCount: 2
Fore
SplineSet
48 1098 m 1,0,-1
 840 1595 l 1,1,-1
 840 1090 l 1,2,-1
 297 797 l 1,3,-1
 840 504 l 1,4,-1
 840 0 l 1,5,-1
 48 489 l 1,6,-1
 48 1098 l 1,0,-1
EndSplineSet
Validated: 1
EndChar

StartChar: guilsinglright
Encoding: 8250 8250 391
Width: 919
GlyphClass: 2
Flags: W
HStem: 0 21G<77 109.434> 1577 20G<77 108.784>
LayerCount: 2
Fore
SplineSet
870 489 m 1,0,-1
 77 0 l 1,1,-1
 77 504 l 1,2,-1
 620 797 l 1,3,-1
 77 1092 l 1,4,-1
 77 1597 l 1,5,-1
 870 1098 l 1,6,-1
 870 489 l 1,0,-1
EndSplineSet
Validated: 1
EndChar

StartChar: four.superior
Encoding: 8308 8308 392
Width: 1052
GlyphClass: 2
Flags: W
HStem: 524 288<475 651> 1586 20G<248.507 640>
VStem: 651 334<330 524 812 1080>
LayerCount: 2
Fore
SplineSet
985 330 m 1,0,-1
 651 330 l 1,1,-1
 651 524 l 1,2,-1
 48 524 l 1,3,-1
 48 856 l 1,4,-1
 254 1606 l 1,5,-1
 640 1606 l 1,6,-1
 475 856 l 1,7,-1
 475 812 l 1,8,-1
 651 812 l 1,9,-1
 651 1080 l 1,10,-1
 985 1080 l 1,11,-1
 985 330 l 1,0,-1
EndSplineSet
Validated: 1
EndChar

StartChar: trademark
Encoding: 8482 8482 393
Width: 1705
GlyphClass: 2
Flags: W
HStem: 657 938<182 519 706 1042 1278 1613> 1453 142<36 182 519 667>
VStem: 182 337<657 1453> 706 336<657 951> 1112 94<657 715.539> 1278 335<657 951>
LayerCount: 2
Fore
SplineSet
667 1595 m 1,0,-1
 667 1453 l 1,1,-1
 519 1453 l 1,2,-1
 519 657 l 1,3,-1
 182 657 l 1,4,-1
 182 1453 l 1,5,-1
 36 1453 l 1,6,-1
 36 1595 l 1,7,-1
 667 1595 l 1,0,-1
1112 657 m 1,8,-1
 1042 951 l 1,9,-1
 1042 657 l 1,10,-1
 706 657 l 1,11,-1
 706 1595 l 1,12,-1
 1099 1595 l 1,13,-1
 1161 1158 l 1,14,-1
 1214 1595 l 1,15,-1
 1613 1595 l 1,16,-1
 1613 657 l 1,17,-1
 1278 657 l 1,18,-1
 1278 951 l 1,19,-1
 1206 657 l 1,20,-1
 1112 657 l 1,8,-1
EndSplineSet
Validated: 1
EndChar

StartChar: minus
Encoding: 8722 8722 394
Width: 910
GlyphClass: 2
Flags: W
HStem: 461 336<78 831>
LayerCount: 2
Fore
SplineSet
831 797 m 1,0,-1
 831 461 l 1,1,-1
 78 461 l 1,2,-1
 78 797 l 1,3,-1
 831 797 l 1,0,-1
EndSplineSet
Validated: 1
EndChar

StartChar: dblgrave
Encoding: 63190 63190 395
Width: 2570
GlyphClass: 2
Flags: W
LayerCount: 2
Fore
SplineSet
1553 1015 m 1,0,-1
 1553 30 l 1,1,-1
 1370 30 l 1,2,-1
 1100 957 l 1,3,-1
 1553 1015 l 1,0,-1
1038 1011 m 1,4,-1
 1038 30 l 1,5,-1
 855 30 l 1,6,-1
 585 953 l 1,7,-1
 1038 1011 l 1,4,-1
EndSplineSet
Validated: 1
EndChar

StartChar: fi
Encoding: 64257 64257 396
Width: 1570
GlyphClass: 2
Flags: W
HStem: 0 21G<170 698 958 1486> 1098 202<17 170 698 958> 1393 317<958 1486> 1477 233<698 958>
VStem: 170 528<0 1098 1300 1475.43> 958 528<0 1098 1393 1477>
LayerCount: 2
Fore
SplineSet
1486 0 m 1,0,-1
 958 0 l 1,1,-1
 958 1098 l 1,2,-1
 698 1098 l 1,3,-1
 698 0 l 1,4,-1
 170 0 l 1,5,-1
 170 1098 l 1,6,-1
 17 1098 l 1,7,-1
 17 1300 l 1,8,-1
 170 1300 l 1,9,-1
 170 1317 l 2,10,11
 170 1420 170 1420 191.5 1494.5 c 128,-1,12
 213 1569 213 1569 266.5 1617 c 128,-1,13
 320 1665 320 1665 411 1687.5 c 128,-1,14
 502 1710 502 1710 642 1710 c 2,15,-1
 1486 1710 l 1,16,-1
 1486 1393 l 1,17,-1
 958 1393 l 1,18,-1
 958 1477 l 1,19,-1
 698 1477 l 1,20,-1
 698 1300 l 1,21,-1
 1486 1300 l 1,22,-1
 1486 0 l 1,0,-1
EndSplineSet
Validated: 1
Ligature2: "'liga' Standard Ligatures in Latin lookup 0 subtable" f i
EndChar

StartChar: fl
Encoding: 64258 64258 397
Width: 1574
GlyphClass: 2
Flags: W
HStem: 0 21G<170 698 962 1490> 1098 202<17 170 698 962> 1477 234<698 962>
VStem: 170 528<0 1098 1300 1475.43> 962 528<0 1098 1300 1477>
LayerCount: 2
Fore
SplineSet
1490 0 m 1,0,-1
 962 0 l 1,1,-1
 962 1098 l 1,2,-1
 698 1098 l 1,3,-1
 698 0 l 1,4,-1
 170 0 l 1,5,-1
 170 1098 l 1,6,-1
 17 1098 l 1,7,-1
 17 1300 l 1,8,-1
 170 1300 l 1,9,-1
 170 1317 l 2,10,11
 170 1420 170 1420 191.5 1494.5 c 128,-1,12
 213 1569 213 1569 266.5 1617 c 128,-1,13
 320 1665 320 1665 411 1688 c 128,-1,14
 502 1711 502 1711 642 1711 c 2,15,-1
 1490 1710 l 1,16,-1
 1490 0 l 1,0,-1
698 1300 m 1,17,-1
 962 1300 l 1,18,-1
 962 1477 l 1,19,-1
 698 1477 l 1,20,-1
 698 1300 l 1,17,-1
EndSplineSet
Validated: 1
Ligature2: "'liga' Standard Ligatures in Latin lookup 0 subtable" f l
EndChar

StartChar: Euro
Encoding: 8364 8364 398
Width: 1444
GlyphClass: 2
Flags: W
HStem: -39 276<643.387 874.2> 441 255<54 123 640 762> 868 255<54 123 640 762> 1358 274<640.634 875.982>
VStem: 54 708<441 696 868 1123> 123 517<237.695 441 696 868 1123 1357.88> 876 497<237.695 686 909 1357.88>
LayerCount: 2
Fore
SplineSet
876 1358 m 1,0,-1
 640 1358 l 1,1,-1
 640 1123 l 1,2,-1
 762 1123 l 1,3,-1
 762 868 l 1,4,-1
 640 868 l 1,5,-1
 640 696 l 1,6,-1
 762 696 l 1,7,-1
 762 441 l 1,8,-1
 640 441 l 1,9,-1
 640 237 l 1,10,-1
 876 237 l 1,11,-1
 876 686 l 1,12,-1
 1373 686 l 1,13,-1
 1373 371 l 2,14,15
 1373 331 1373 331 1368.5 285 c 128,-1,16
 1364 239 1364 239 1344.5 193.5 c 128,-1,17
 1325 148 1325 148 1286 106 c 128,-1,18
 1247 64 1247 64 1178.5 32 c 128,-1,19
 1110 0 1110 0 1008 -20 c 1,20,21
 905 -39 905 -39 758 -39 c 0,22,23
 608 -39 608 -39 502 -20 c 1,24,25
 397 0 397 0 326.5 32 c 128,-1,26
 256 64 256 64 215.5 106 c 128,-1,27
 175 148 175 148 154.5 193.5 c 128,-1,28
 134 239 134 239 128 285 c 0,29,30
 123 331 123 331 123 371 c 2,31,-1
 123 441 l 1,32,-1
 54 441 l 1,33,-1
 54 696 l 1,34,-1
 123 696 l 1,35,-1
 123 868 l 1,36,-1
 54 868 l 1,37,-1
 54 1123 l 1,38,-1
 123 1123 l 1,39,-1
 123 1227 l 2,40,41
 123 1267 123 1267 128.5 1312.5 c 128,-1,42
 134 1358 134 1358 154 1403 c 128,-1,43
 174 1448 174 1448 214.5 1489.5 c 128,-1,44
 255 1531 255 1531 325.5 1562.5 c 128,-1,45
 396 1594 396 1594 500.5 1613 c 128,-1,46
 605 1632 605 1632 755 1632 c 0,47,48
 903 1632 903 1632 1006.5 1613 c 128,-1,49
 1110 1594 1110 1594 1178.5 1562.5 c 128,-1,50
 1247 1531 1247 1531 1286 1489.5 c 128,-1,51
 1325 1448 1325 1448 1344.5 1403 c 128,-1,52
 1364 1358 1364 1358 1368.5 1312.5 c 128,-1,53
 1373 1267 1373 1267 1373 1227 c 2,54,-1
 1373 909 l 1,55,-1
 876 909 l 1,56,-1
 876 1358 l 1,0,-1
EndSplineSet
Validated: 1
EndChar

StartChar: Ymacron
Encoding: 65537 -1 399
Width: 1297
GlyphClass: 2
Flags: W
HStem: 0 21G<395 912> 1575 20G<-10 488.532 819.305 1306> 1711 336<188 1112>
VStem: 395 517<0 449>
LayerCount: 2
Fore
SplineSet
1112 2047 m 1,0,-1
 1112 1711 l 1,1,-1
 188 1711 l 1,2,-1
 188 2047 l 1,3,-1
 1112 2047 l 1,0,-1
484 1595 m 1,4,-1
 651 858 l 1,5,-1
 824 1595 l 1,6,-1
 1306 1595 l 1,7,-1
 912 449 l 1,8,-1
 912 0 l 1,9,-1
 395 0 l 1,10,-1
 395 459 l 1,11,-1
 -10 1595 l 1,12,-1
 484 1595 l 1,4,-1
EndSplineSet
Validated: 1
EndChar

StartChar: invertedbreve
Encoding: 65538 -1 400
Width: 1288
GlyphClass: 2
Flags: W
HStem: 328 403<453.369 674.865>
VStem: 150 269<70 293.078> 708 269<70 297.627>
LayerCount: 2
Fore
SplineSet
568 731 m 0,0,1
 672 731 672 731 749 697.5 c 128,-1,2
 826 664 826 664 876.5 586.5 c 128,-1,3
 927 509 927 509 952 382.5 c 128,-1,4
 977 256 977 256 977 70 c 1,5,-1
 708 70 l 1,6,7
 708 129 708 129 705.5 177 c 128,-1,8
 703 225 703 225 689.5 258.5 c 128,-1,9
 676 292 676 292 647.5 310 c 128,-1,10
 619 328 619 328 568 328 c 0,11,12
 514 328 514 328 483.5 310 c 128,-1,13
 453 292 453 292 439 258.5 c 128,-1,14
 425 225 425 225 422 177.5 c 128,-1,15
 419 130 419 130 419 70 c 1,16,-1
 150 70 l 1,17,18
 150 256 150 256 175 382.5 c 128,-1,19
 200 509 200 509 251.5 586.5 c 128,-1,20
 303 664 303 664 382 697.5 c 128,-1,21
 461 731 461 731 568 731 c 0,0,1
EndSplineSet
Validated: 1
EndChar

StartChar: zero.zero
Encoding: 65539 -1 402
Width: 1394
GlyphClass: 2
Flags: W
HStem: -39 276<580.797 813.093> 1358 275<580.797 813.093>
VStem: 82 497<237.083 1356.98> 815 497<237.083 1356.98>
LayerCount: 2
Fore
SplineSet
579 237 m 1,0,-1
 815 237 l 1,1,-1
 815 1358 l 1,2,-1
 579 1358 l 1,3,-1
 579 237 l 1,0,-1
701 -39 m 256,4,5
 554 -39 554 -39 451 -21 c 128,-1,6
 348 -3 348 -3 279 27 c 128,-1,7
 210 57 210 57 170.5 97 c 128,-1,8
 131 137 131 137 111.5 180 c 128,-1,9
 92 223 92 223 87 267.5 c 128,-1,10
 82 312 82 312 82 352 c 2,11,-1
 82 1242 l 2,12,13
 82 1282 82 1282 87 1326.5 c 128,-1,14
 92 1371 92 1371 111.5 1414.5 c 128,-1,15
 131 1458 131 1458 170.5 1497.5 c 128,-1,16
 210 1537 210 1537 279 1567 c 128,-1,17
 348 1597 348 1597 451 1615 c 128,-1,18
 554 1633 554 1633 701 1633 c 256,19,20
 848 1633 848 1633 950.5 1615 c 128,-1,21
 1053 1597 1053 1597 1121 1567 c 128,-1,22
 1189 1537 1189 1537 1227 1497.5 c 128,-1,23
 1265 1458 1265 1458 1284 1414.5 c 128,-1,24
 1303 1371 1303 1371 1307.5 1326.5 c 128,-1,25
 1312 1282 1312 1282 1312 1242 c 2,26,-1
 1312 352 l 2,27,28
 1312 312 1312 312 1307.5 267.5 c 128,-1,29
 1303 223 1303 223 1284 180 c 128,-1,30
 1265 137 1265 137 1227 97 c 128,-1,31
 1189 57 1189 57 1121 27 c 128,-1,32
 1053 -3 1053 -3 950.5 -21 c 128,-1,33
 848 -39 848 -39 701 -39 c 256,4,5
EndSplineSet
Validated: 1
EndChar

StartChar: uni018F
Encoding: 399 399 411
Width: 1322
GlyphClass: 2
Flags: W
HStem: -36 283<534.749 767.201> 550 178<532 768> 1070 273<535.449 767.201>
VStem: 65 467<247.344 550 857 1069.97> 768 497<247.062 550 728 1069.93>
LayerCount: 2
Fore
SplineSet
66 856 m 1,0,1
 66 927 66 927 70.5 990.5 c 128,-1,2
 75 1054 75 1054 94 1108.5 c 128,-1,3
 113 1163 113 1163 150.5 1206 c 128,-1,4
 188 1249 188 1249 253 1279.5 c 128,-1,5
 318 1310 318 1310 416 1326.5 c 128,-1,6
 514 1343 514 1343 653 1343 c 0,7,8
 803 1343 803 1343 906.5 1325 c 128,-1,9
 1010 1307 1010 1307 1078 1277 c 128,-1,10
 1146 1247 1146 1247 1184 1207.5 c 128,-1,11
 1222 1168 1222 1168 1240 1124.5 c 128,-1,12
 1258 1081 1258 1081 1261.5 1037 c 128,-1,13
 1265 993 1265 993 1265 953 c 2,14,-1
 1265 353 l 2,15,16
 1265 313 1265 313 1261.5 269 c 128,-1,17
 1258 225 1258 225 1240 182 c 128,-1,18
 1222 139 1222 139 1184 99.5 c 128,-1,19
 1146 60 1146 60 1078 30 c 128,-1,20
 1010 0 1010 0 906.5 -18 c 128,-1,21
 803 -36 803 -36 653 -36 c 0,22,23
 513 -36 513 -36 415 -18 c 128,-1,24
 317 0 317 0 252 30 c 128,-1,25
 187 60 187 60 149.5 99.5 c 128,-1,26
 112 139 112 139 93 182 c 128,-1,27
 74 225 74 225 69.5 269.5 c 128,-1,28
 65 314 65 314 65 353 c 2,29,-1
 65 728 l 1,30,-1
 768 728 l 1,31,-1
 768 1070 l 1,32,-1
 532 1070 l 1,33,-1
 532 857 l 1,34,-1
 66 856 l 1,0,1
768 550 m 1,35,-1
 532 550 l 1,36,-1
 532 247 l 1,37,-1
 768 247 l 1,38,-1
 768 550 l 1,35,-1
EndSplineSet
Validated: 1
EndChar

StartChar: schwa
Encoding: 601 601 418
Width: 1322
GlyphClass: 2
Flags: W
HStem: -36 283<534.749 767.201> 550 178<532 768> 1070 273<535.449 767.201>
VStem: 65 467<247.344 550 857 1069.97> 768 497<247.062 550 728 1069.93>
LayerCount: 2
Fore
SplineSet
66 856 m 1,0,1
 66 927 66 927 70.5 990.5 c 128,-1,2
 75 1054 75 1054 94 1108.5 c 128,-1,3
 113 1163 113 1163 150.5 1206 c 128,-1,4
 188 1249 188 1249 253 1279.5 c 128,-1,5
 318 1310 318 1310 416 1326.5 c 128,-1,6
 514 1343 514 1343 653 1343 c 0,7,8
 803 1343 803 1343 906.5 1325 c 128,-1,9
 1010 1307 1010 1307 1078 1277 c 128,-1,10
 1146 1247 1146 1247 1184 1207.5 c 128,-1,11
 1222 1168 1222 1168 1240 1124.5 c 128,-1,12
 1258 1081 1258 1081 1261.5 1037 c 128,-1,13
 1265 993 1265 993 1265 953 c 2,14,-1
 1265 353 l 2,15,16
 1265 313 1265 313 1261.5 269 c 128,-1,17
 1258 225 1258 225 1240 182 c 128,-1,18
 1222 139 1222 139 1184 99.5 c 128,-1,19
 1146 60 1146 60 1078 30 c 128,-1,20
 1010 0 1010 0 906.5 -18 c 128,-1,21
 803 -36 803 -36 653 -36 c 0,22,23
 513 -36 513 -36 415 -18 c 128,-1,24
 317 0 317 0 252 30 c 128,-1,25
 187 60 187 60 149.5 99.5 c 128,-1,26
 112 139 112 139 93 182 c 128,-1,27
 74 225 74 225 69.5 269.5 c 128,-1,28
 65 314 65 314 65 353 c 2,29,-1
 65 728 l 1,30,-1
 768 728 l 1,31,-1
 768 1070 l 1,32,-1
 532 1070 l 1,33,-1
 532 857 l 1,34,-1
 66 856 l 1,0,1
768 550 m 1,35,-1
 532 550 l 1,36,-1
 532 247 l 1,37,-1
 768 247 l 1,38,-1
 768 550 l 1,35,-1
EndSplineSet
Validated: 1
EndChar

StartChar: lessequal
Encoding: 8804 8804 424
Width: 640
GlyphClass: 2
Flags: W
HStem: 0 336<-56 650>
LayerCount: 2
Fore
SplineSet
-76 1393 m 1,0,-1
 716 1892 l 1,1,-1
 716 1387 l 1,2,-1
 173 1092 l 1,3,-1
 716 799 l 1,4,-1
 716 295 l 1,5,-1
 697 307 l 1,6,-1
 697 0 l 1,7,-1
 -56 0 l 1,8,-1
 -56 336 l 1,9,-1
 650 336 l 1,10,-1
 -76 784 l 1,11,-1
 -76 1393 l 1,0,-1
EndSplineSet
Validated: 1
EndChar

StartChar: greaterequal
Encoding: 8805 8805 426
Width: 640
GlyphClass: 2
Flags: W
HStem: 0 336<-10 697>
LayerCount: 2
Fore
SplineSet
697 336 m 1,0,-1
 697 0 l 1,1,-1
 -56 0 l 1,2,-1
 -56 307 l 1,3,-1
 -76 295 l 1,4,-1
 -76 799 l 1,5,-1
 467 1092 l 1,6,-1
 -76 1387 l 1,7,-1
 -76 1892 l 1,8,-1
 717 1393 l 1,9,-1
 717 784 l 1,10,-1
 -10 336 l 1,11,-1
 697 336 l 1,0,-1
EndSplineSet
Validated: 1
EndChar

StartChar: summation
Encoding: 8721 8721 430
Width: 991
GlyphClass: 2
Flags: W
HStem: 0 237<590 926> 1358 237<590 926>
LayerCount: 2
Fore
SplineSet
926 1595 m 1,0,-1
 926 1358 l 1,1,-1
 590 1358 l 1,2,-1
 905 874 l 1,3,-1
 905 812 l 1,4,-1
 590 237 l 1,5,-1
 926 237 l 1,6,-1
 926 0 l 1,7,-1
 100 0 l 1,8,-1
 100 237 l 1,9,-1
 432 834 l 1,10,-1
 100 1359 l 1,11,-1
 100 1595 l 1,12,-1
 926 1595 l 1,0,-1
EndSplineSet
Validated: 1
EndChar

StartChar: product
Encoding: 8719 8719 431
Width: 1520
GlyphClass: 2
Flags: W
HStem: 0 21G<100 617 903 1420> 1344 251<617 903>
VStem: 100 517<0 1344> 903 517<0 1344>
LayerCount: 2
Fore
SplineSet
1420 1595 m 1,0,-1
 1420 0 l 1,1,-1
 903 0 l 1,2,-1
 903 1344 l 1,3,-1
 617 1344 l 1,4,-1
 617 0 l 1,5,-1
 100 0 l 1,6,-1
 100 1595 l 1,7,-1
 1420 1595 l 1,0,-1
EndSplineSet
Validated: 1
EndChar

StartChar: lozenge
Encoding: 9674 9674 432
Width: 1231
GlyphClass: 2
Flags: W
HStem: 0 21G<304.531 927.444> 1575 20G<304.325 927.65>
LayerCount: 2
Fore
SplineSet
614 1375 m 1,0,-1
 445 810 l 1,1,-1
 614 220 l 1,2,-1
 785 810 l 1,3,-1
 614 1375 l 1,0,-1
921 0 m 1,4,-1
 311 0 l 1,5,-1
 49 810 l 1,6,-1
 311 1595 l 1,7,-1
 921 1595 l 1,8,-1
 1182 810 l 1,9,-1
 921 0 l 1,4,-1
EndSplineSet
Validated: 1
EndChar

StartChar: pi
Encoding: 960 960 434
Width: 1520
GlyphClass: 2
Flags: W
HStem: -51 266<1379 1569.54> -4 219<1379.12 1576> 1049 251<35 210 667 904 1381 1575>
VStem: 902 477<217.445 1049>
LayerCount: 2
Fore
SplineSet
35 1300 m 1,0,-1
 1575 1300 l 1,1,-1
 1575 1049 l 1,2,-1
 1381 1049 l 1,3,-1
 1379 215 l 1,4,-1
 1576 215 l 1,5,-1
 1576 -4 l 1,6,7
 1507 -28 1507 -28 1442.5 -39.5 c 128,-1,8
 1378 -51 1378 -51 1318 -51 c 0,9,10
 1225 -51 1225 -51 1146.5 -21.5 c 128,-1,11
 1068 8 1068 8 1012.5 63.5 c 128,-1,12
 957 119 957 119 927 197.5 c 128,-1,13
 897 276 897 276 902 375 c 1,14,-1
 904 1049 l 1,15,-1
 667 1049 l 1,16,-1
 607 0 l 1,17,-1
 130 0 l 1,18,-1
 210 1049 l 1,19,-1
 35 1049 l 1,20,-1
 35 1300 l 1,0,-1
EndSplineSet
Validated: 33
EndChar

StartChar: Delta
Encoding: 8710 8710 435
Width: 1401
GlyphClass: 2
Flags: W
HStem: 0 249<569 829> 1575 20G<297.288 1102.71>
LayerCount: 2
Fore
SplineSet
301 1595 m 1,0,-1
 1099 1595 l 1,1,-1
 1395 0 l 1,2,-1
 5 0 l 1,3,-1
 301 1595 l 1,0,-1
569 249 m 1,4,-1
 829 249 l 1,5,-1
 699 1371 l 1,6,-1
 569 249 l 1,4,-1
EndSplineSet
Validated: 1
EndChar

StartChar: Sigma
Encoding: 931 931 436
Width: 1013
GlyphClass: 2
Flags: W
HStem: 0 294<660 964> 1304 291<47 383>
LayerCount: 2
Fore
SplineSet
974 1595 m 1,0,-1
 660 294 l 1,1,-1
 964 294 l 1,2,-1
 964 0 l 1,3,-1
 37 0 l 1,4,-1
 383 1304 l 1,5,-1
 47 1304 l 1,6,-1
 47 1595 l 1,7,-1
 974 1595 l 1,0,-1
EndSplineSet
Validated: 1
EndChar

StartChar: commaaccent
Encoding: 63171 63171 439
Width: 640
GlyphClass: 2
Flags: W
HStem: -72 199<98 205.323>
VStem: 74 492<298.317 782>
LayerCount: 2
Fore
SplineSet
98 127 m 1,0,1
 149 139 149 139 191 162 c 0,2,3
 209 172 209 172 225.5 184.5 c 128,-1,4
 242 197 242 197 255.5 213.5 c 128,-1,5
 269 230 269 230 277 250.5 c 128,-1,6
 285 271 285 271 285 295 c 1,7,-1
 74 295 l 1,8,-1
 74 782 l 1,9,-1
 566 782 l 1,10,-1
 566 445 l 2,11,12
 566 293 566 293 534 193.5 c 128,-1,13
 502 94 502 94 442 35 c 128,-1,14
 382 -24 382 -24 295 -48 c 128,-1,15
 208 -72 208 -72 98 -72 c 1,16,-1
 98 127 l 1,0,1
EndSplineSet
Validated: 1
EndChar

StartChar: caron.alt
Encoding: 65544 -1 440
Width: 1706
GlyphClass: 2
Flags: W
HStem: 82 614<561 749 905 1084>
LayerCount: 2
Fore
SplineSet
561 82 m 1,0,-1
 315 696 l 1,1,-1
 749 696 l 1,2,-1
 825 377 l 1,3,-1
 905 696 l 1,4,-1
 1340 696 l 1,5,-1
 1084 82 l 1,6,-1
 561 82 l 1,0,-1
EndSplineSet
Validated: 1
EndChar
